<svg viewBox="0 0 116 108" version="1.1" xmlns="http://www.w3.org/2000/svg" xmlns:xlink="http://www.w3.org/1999/xlink">
    <!-- Generator: Sketch 54.1 (76490) - https://sketchapp.com -->
    <defs>
        <polygon id="path-1" points="0 107.411765 116 107.411765 116 0.0401176471 0 0.0401176471"></polygon>
    </defs>
    <g id="Page-1" stroke="none" stroke-width="1" fill="none" fill-rule="evenodd">
        <g id="Homepage" transform="translate(-285.000000, -1711.000000)">
            <g id="Group-14" transform="translate(155.000000, 1535.000000)">
                <g id="Group-41" transform="translate(130.000000, 175.000000)">
                    <polygon id="Fill-1" fill="#E797A1" points="110.512942 106.845459 5.38858667 106.845459 5.38858667 57.7091059 27.1385867 57.7091059 57.9507644 26.7719294 88.7642311 57.7091059 110.512942 57.7091059"></polygon>
                    <polygon id="Fill-2" fill="#AD1F2B" points="47.0753778 106.845847 68.8253778 106.845847 68.8253778 85.0076118 47.0753778 85.0076118"></polygon>
                    <g id="Group-40" transform="translate(0.000000, 1.253612)">
                        <path d="M68.3723333,76.4742 L47.5284222,76.4742 C47.2783778,76.4742 47.0760222,76.6773765 47.0760222,76.9297294 L47.0760222,83.7536118 L68.8260222,83.7536118 L68.8260222,76.9297294 C68.8260222,76.6773765 68.6223778,76.4742 68.3723333,76.4742" id="Fill-3" fill="#F7D6DE"></path>
                        <path d="M74.6788667,10.9596235 L77.633,6.50915294 C78.0029111,5.95138824 78.0377111,5.23315294 77.7232222,4.64174118 C77.4074444,4.05032941 76.7939333,3.68021176 76.125,3.68021176 L58.0006444,3.68021176 C56.9978889,3.68021176 56.1871778,4.49421176 56.1871778,5.49974118 L56.1871778,16.4195059 C56.1871778,17.4250353 56.9978889,18.2390353 58.0006444,18.2390353 L76.125,18.2390353 C76.7939333,18.2390353 77.4087333,17.8689176 77.7232222,17.2775059 C78.039,16.6860941 78.0029111,15.9678588 77.633,15.4100941 L74.6788667,10.9596235 Z" id="Fill-5" fill="#C83951"></path>
                        <path d="M58,27.3382353 C56.9985333,27.3382353 56.1878222,26.5242353 56.1878222,25.5187059 L56.1878222,1.86094118 C56.1878222,0.854117647 56.9985333,0.0401176471 58,0.0401176471 C59.0014667,0.0401176471 59.8121778,0.854117647 59.8121778,1.86094118 L59.8121778,25.5187059 C59.8121778,26.5242353 59.0014667,27.3382353 58,27.3382353" id="Fill-7" fill="#D06E7B"></path>
                        <path d="M65.3385467,33.9211529 C65.6182356,33.2404471 66.2807244,32.7978588 67.0128133,32.7978588 L101.450636,32.7978588 C102.070591,32.7978588 102.646724,33.1162118 102.979258,33.6403294 L115.66708,53.6590353 C116.022813,54.2206824 116.044724,54.9298588 115.727658,55.5122118 C115.409302,56.0932706 114.799658,56.4556235 114.138458,56.4556235 L86.9506356,56.4556235 C86.4685911,56.4556235 86.0084578,56.2640941 85.66948,55.9224471 L65.7316578,35.9037412 C65.2122356,35.3835059 65.0575689,34.6018588 65.3385467,33.9211529" id="Fill-9" fill="#AD1F2B"></path>
                        <path d="M50.6120889,33.9211529 C50.3324,33.2404471 49.6699111,32.7978588 48.9378222,32.7978588 L14.5,32.7978588 C13.8800444,32.7978588 13.3039111,33.1162118 12.9713778,33.6403294 L0.283555556,53.6590353 C-0.0721777778,54.2206824 -0.0940888889,54.9298588 0.222977778,55.5122118 C0.541333333,56.0932706 1.15097778,56.4556235 1.81217778,56.4556235 L29,56.4556235 C29.4820444,56.4556235 29.9421778,56.2640941 30.2811556,55.9224471 L50.2189778,35.9037412 C50.7371111,35.3835059 50.8930667,34.6018588 50.6120889,33.9211529" id="Fill-11" fill="#AD1F2B"></path>
                        <path d="M88.7878178,58.2509529 C88.3238178,58.2509529 87.8598178,58.0736588 87.5066622,57.7177765 L58.0001289,28.0915412 L28.4935956,57.7177765 C27.7859956,58.4282471 26.6388844,58.4282471 25.9312844,57.7177765 C25.2223956,57.0073059 25.2223956,55.8555412 25.9312844,55.1437765 L56.7189733,24.2311882 C57.4265733,23.5207176 58.5736844,23.5207176 59.2812844,24.2311882 L90.0689733,55.1437765 C90.7778622,55.8555412 90.7778622,57.0073059 90.0689733,57.7177765 C89.7145289,58.0736588 89.2518178,58.2509529 88.7878178,58.2509529" id="Fill-13" fill="#C83951"></path>
                        <path d="M58.0002578,45.5367647 C64.00648,45.5367647 68.8759022,50.4259412 68.8759022,56.4565294 C68.8759022,62.4858235 64.00648,67.375 58.0002578,67.375 C51.9940356,67.375 47.1246133,62.4858235 47.1246133,56.4565294 C47.1246133,50.4259412 51.9940356,45.5367647 58.0002578,45.5367647" id="Fill-15" fill="#F7D6DE"></path>
                        <path d="M58,49.1764706 C56.9985333,49.1764706 56.1878222,49.9904706 56.1878222,50.996 L56.1878222,54.6363529 L52.5621778,54.6363529 C51.5607111,54.6363529 50.75,55.4503529 50.75,56.4558824 C50.75,57.4614118 51.5607111,58.2754118 52.5621778,58.2754118 L58,58.2754118 C59.0014667,58.2754118 59.8121778,57.4614118 59.8121778,56.4558824 L59.8121778,50.996 C59.8121778,49.9904706 59.0014667,49.1764706 58,49.1764706" id="Fill-17" fill="#C83951"></path>
                        <path d="M85.1379422,68.2848941 C85.1379422,65.7717176 83.1092311,63.7347765 80.6062089,63.7347765 C78.1044756,63.7347765 76.0757644,65.7717176 76.0757644,68.2848941 C76.0757644,68.5967765 76.1079867,68.9008941 76.1672756,69.1946588 L76.0757644,69.1946588 L76.0757644,76.4740706 L85.1379422,76.4740706 L85.1379422,69.1946588 L85.0464311,69.1946588 C85.10572,68.9008941 85.1379422,68.5967765 85.1379422,68.2848941" id="Fill-19" fill="#F7D6DE"></path>
                        <mask id="mask-2" fill="white">
                            <use xlink:href="#path-1"></use>
                        </mask>
                        <g id="Clip-22"></g>
                        <path d="M77.9378222,74.6537647 L83.3756444,74.6537647 L83.3756444,72.8342353 L77.9378222,72.8342353 L77.9378222,74.6537647 Z M80.6560889,65.5548235 C82.1550667,65.5548235 83.3756444,66.7790588 83.3756444,68.2854118 L83.3756444,69.1951765 L77.9378222,69.1951765 L77.9378222,68.2854118 C77.9378222,66.7790588 79.1571111,65.5548235 80.6560889,65.5548235 L80.6560889,65.5548235 Z M80.6560889,61.9157647 C77.1580444,61.9157647 74.3121778,64.7731765 74.3121778,68.2854118 L74.3121778,76.4745882 C74.3121778,77.4801176 75.1228889,78.2941176 76.1256444,78.2941176 L85.1878222,78.2941176 C86.1892889,78.2941176 87,77.4801176 87,76.4745882 L87,68.2854118 C87,64.7731765 84.1541333,61.9157647 80.6560889,61.9157647 L80.6560889,61.9157647 Z" id="Fill-21" fill="#D06E7B" mask="url(#mask-2)"></path>
                        <polygon id="Fill-23" fill="#F7D6DE" mask="url(#mask-2)" points="30.8121778 96.4932941 39.8743556 96.4932941 39.8743556 85.5735294 30.8121778 85.5735294"></polygon>
                        <path d="M32.6256444,94.6724706 L38.0634667,94.6724706 L38.0634667,92.8529412 L32.6256444,92.8529412 L32.6256444,94.6724706 Z M32.6243556,89.2125882 L38.0621778,89.2125882 L38.0621778,87.3930588 L32.6243556,87.3930588 L32.6243556,89.2125882 Z M39.8756444,83.754 L30.8121778,83.754 C29.8107111,83.754 29,84.568 29,85.5735294 L29,96.492 C29,97.4988235 29.8107111,98.3128235 30.8121778,98.3128235 L39.8756444,98.3128235 C40.8771111,98.3128235 41.6878222,97.4988235 41.6878222,96.492 L41.6878222,85.5735294 C41.6878222,84.568 40.8771111,83.754 39.8756444,83.754 L39.8756444,83.754 Z" id="Fill-24" fill="#D06E7B" mask="url(#mask-2)"></path>
                        <polygon id="Fill-25" fill="#F7D6DE" mask="url(#mask-2)" points="14.4510222 96.4932941 23.5132 96.4932941 23.5132 85.5735294 14.4510222 85.5735294"></polygon>
                        <path d="M16.2632,94.6724706 L21.7010222,94.6724706 L21.7010222,92.8529412 L16.2632,92.8529412 L16.2632,94.6724706 Z M16.2632,89.2125882 L21.7010222,89.2125882 L21.7010222,87.3930588 L16.2632,87.3930588 L16.2632,89.2125882 Z M23.5132,83.754 L14.4510222,83.754 C13.4482667,83.754 12.6375556,84.568 12.6375556,85.5735294 L12.6375556,96.492 C12.6375556,97.4988235 13.4482667,98.3128235 14.4510222,98.3128235 L23.5132,98.3128235 C24.5146667,98.3128235 25.3253778,97.4988235 25.3253778,96.492 L25.3253778,85.5735294 C25.3253778,84.568 24.5146667,83.754 23.5132,83.754 L23.5132,83.754 Z" id="Fill-26" fill="#D06E7B" mask="url(#mask-2)"></path>
                        <polygon id="Fill-27" fill="#F7D6DE" mask="url(#mask-2)" points="92.4378222 96.4932941 101.5 96.4932941 101.5 85.5735294 92.4378222 85.5735294"></polygon>
                        <path d="M94.25,94.6724706 L99.6878222,94.6724706 L99.6878222,92.8529412 L94.25,92.8529412 L94.25,94.6724706 Z M94.25,89.2125882 L99.6878222,89.2125882 L99.6878222,87.3930588 L94.25,87.3930588 L94.25,89.2125882 Z M101.5,83.754 L92.4378222,83.754 C91.4350667,83.754 90.6256444,84.568 90.6256444,85.5735294 L90.6256444,96.492 C90.6256444,97.4988235 91.4350667,98.3128235 92.4378222,98.3128235 L101.5,98.3128235 C102.501467,98.3128235 103.312178,97.4988235 103.312178,96.492 L103.312178,85.5735294 C103.312178,84.568 102.501467,83.754 101.5,83.754 L101.5,83.754 Z" id="Fill-28" fill="#D06E7B" mask="url(#mask-2)"></path>
                        <polygon id="Fill-29" fill="#F7D6DE" mask="url(#mask-2)" points="76.0753778 96.4932941 85.1375556 96.4932941 85.1375556 85.5735294 76.0753778 85.5735294"></polygon>
                        <path d="M77.8875556,94.6724706 L83.3253778,94.6724706 L83.3253778,92.8529412 L77.8875556,92.8529412 L77.8875556,94.6724706 Z M77.8875556,89.2125882 L83.3253778,89.2125882 L83.3253778,87.3930588 L77.8875556,87.3930588 L77.8875556,89.2125882 Z M85.1375556,83.754 L76.0753778,83.754 C75.0739111,83.754 74.2632,84.568 74.2632,85.5735294 L74.2632,96.492 C74.2632,97.4988235 75.0739111,98.3128235 76.0753778,98.3128235 L85.1375556,98.3128235 C86.1403111,98.3128235 86.9510222,97.4988235 86.9510222,96.492 L86.9510222,85.5735294 C86.9510222,84.568 86.1403111,83.754 85.1375556,83.754 L85.1375556,83.754 Z" id="Fill-30" fill="#D06E7B" mask="url(#mask-2)"></path>
                        <path d="M101.401013,68.2848941 C101.401013,65.7717176 99.3723022,63.7347765 96.86928,63.7347765 C94.3675467,63.7347765 92.3388356,65.7717176 92.3388356,68.2848941 C92.3388356,68.5967765 92.3710578,68.9008941 92.4303467,69.1946588 L92.3388356,69.1946588 L92.3388356,76.4740706 L101.401013,76.4740706 L101.401013,69.1946588 L101.309502,69.1946588 C101.368791,68.9008941 101.401013,68.5967765 101.401013,68.2848941" id="Fill-31" fill="#F7D6DE" mask="url(#mask-2)"></path>
                        <path d="M94.2010222,74.6537647 L99.6388444,74.6537647 L99.6388444,72.8342353 L94.2010222,72.8342353 L94.2010222,74.6537647 Z M96.9192889,65.5548235 C98.4182667,65.5548235 99.6375556,66.7790588 99.6375556,68.2854118 L99.6375556,69.1951765 L94.2010222,69.1951765 L94.2010222,68.2854118 C94.2010222,66.7790588 95.4203111,65.5548235 96.9192889,65.5548235 L96.9192889,65.5548235 Z M96.9192889,61.9157647 C93.4212444,61.9157647 90.5753778,64.7731765 90.5753778,68.2854118 L90.5753778,76.4745882 C90.5753778,77.4801176 91.3860889,78.2941176 92.3875556,78.2941176 L101.451022,78.2941176 C102.452489,78.2941176 103.2632,77.4801176 103.2632,76.4745882 L103.2632,68.2854118 C103.2632,64.7731765 100.417333,61.9157647 96.9192889,61.9157647 L96.9192889,61.9157647 Z" id="Fill-32" fill="#D06E7B" mask="url(#mask-2)"></path>
                        <path d="M23.4635778,68.2848941 C23.4635778,65.7717176 21.4348667,63.7347765 18.9318444,63.7347765 C16.4301111,63.7347765 14.4014,65.7717176 14.4014,68.2848941 C14.4014,68.5967765 14.4336222,68.9008941 14.4929111,69.1946588 L14.4014,69.1946588 L14.4014,76.4740706 L23.4635778,76.4740706 L23.4635778,69.1946588 L23.3720667,69.1946588 C23.4313556,68.9008941 23.4635778,68.5967765 23.4635778,68.2848941" id="Fill-33" fill="#F7D6DE" mask="url(#mask-2)"></path>
                        <path d="M16.2632,74.6537647 L21.7010222,74.6537647 L21.7010222,72.8342353 L16.2632,72.8342353 L16.2632,74.6537647 Z M18.9814667,65.5548235 C20.4804444,65.5548235 21.7010222,66.7790588 21.7010222,68.2854118 L21.7010222,69.1951765 L16.2632,69.1951765 L16.2632,68.2854118 C16.2632,66.7790588 17.4824889,65.5548235 18.9814667,65.5548235 L18.9814667,65.5548235 Z M18.9814667,61.9157647 C15.4834222,61.9157647 12.6375556,64.7731765 12.6375556,68.2854118 L12.6375556,76.4745882 C12.6375556,77.4801176 13.4482667,78.2941176 14.4510222,78.2941176 L23.5132,78.2941176 C24.5146667,78.2941176 25.3253778,77.4801176 25.3253778,76.4745882 L25.3253778,68.2854118 C25.3253778,64.7731765 22.4795111,61.9157647 18.9814667,61.9157647 L18.9814667,61.9157647 Z" id="Fill-34" fill="#D06E7B" mask="url(#mask-2)"></path>
                        <path d="M39.7263911,68.2848941 C39.7263911,65.7717176 37.69768,63.7347765 35.1946578,63.7347765 C32.6929244,63.7347765 30.6642133,65.7717176 30.6642133,68.2848941 C30.6642133,68.5967765 30.6964356,68.9008941 30.7557244,69.1946588 L30.6642133,69.1946588 L30.6642133,76.4740706 L39.7263911,76.4740706 L39.7263911,69.1946588 L39.63488,69.1946588 C39.6941689,68.9008941 39.7263911,68.5967765 39.7263911,68.2848941" id="Fill-35" fill="#F7D6DE" mask="url(#mask-2)"></path>
                        <path d="M32.5264,74.6537647 L37.9642222,74.6537647 L37.9642222,72.8342353 L32.5264,72.8342353 L32.5264,74.6537647 Z M35.2446667,65.5548235 C36.7436444,65.5548235 37.9629333,66.7790588 37.9629333,68.2854118 L37.9629333,69.1951765 L32.5264,69.1951765 L32.5264,68.2854118 C32.5264,66.7790588 33.7456889,65.5548235 35.2446667,65.5548235 L35.2446667,65.5548235 Z M35.2446667,61.9157647 C31.7466222,61.9157647 28.9007556,64.7731765 28.9007556,68.2854118 L28.9007556,76.4745882 C28.9007556,77.4801176 29.7114667,78.2941176 30.7129333,78.2941176 L39.7764,78.2941176 C40.7778667,78.2941176 41.5885778,77.4801176 41.5885778,76.4745882 L41.5885778,68.2854118 C41.5885778,64.7731765 38.7427111,61.9157647 35.2446667,61.9157647 L35.2446667,61.9157647 Z" id="Fill-36" fill="#D06E7B" mask="url(#mask-2)"></path>
                        <path d="M58,47.3565529 C53.0029778,47.3565529 48.9378222,51.4382 48.9378222,56.4554941 C48.9378222,61.4727882 53.0029778,65.5557294 58,65.5557294 C62.9970222,65.5557294 67.0621778,61.4727882 67.0621778,56.4554941 C67.0621778,51.4382 62.9970222,47.3565529 58,47.3565529 M58,69.1947882 C51.0039111,69.1947882 45.3121778,63.4799647 45.3121778,56.4554941 C45.3121778,49.4310235 51.0039111,43.7162 58,43.7162 C64.9960889,43.7162 70.6878222,49.4310235 70.6878222,56.4554941 C70.6878222,63.4799647 64.9960889,69.1947882 58,69.1947882" id="Fill-37" fill="#D06E7B" mask="url(#mask-2)"></path>
                        <path d="M67.0625644,81.9338235 L48.93692,81.9338235 L48.93692,80.1142941 C48.93692,79.1100588 49.7502089,78.2934706 50.7503867,78.2934706 L65.2503867,78.2934706 C66.2505644,78.2934706 67.0625644,79.1100588 67.0625644,80.1142941 L67.0625644,81.9338235 Z M65.2503867,74.6544118 L50.7503867,74.6544118 C47.7511422,74.6544118 45.3125644,77.1028824 45.3125644,80.1142941 L45.3125644,105.591588 C45.3125644,106.598412 46.1232756,107.411118 47.1247422,107.411118 C48.1274978,107.411118 48.93692,106.598412 48.93692,105.591588 L48.93692,85.5741765 L56.1379422,85.5741765 L56.1379422,105.591588 L59.7635867,105.591588 L59.7635867,85.5741765 L67.0625644,85.5741765 L67.0625644,105.591588 C67.0625644,106.598412 67.8732756,107.411118 68.8747422,107.411118 C69.8774978,107.411118 70.6882089,106.598412 70.6882089,105.591588 L70.6882089,80.1142941 C70.6882089,77.1028824 68.2483422,74.6544118 65.2503867,74.6544118 L65.2503867,74.6544118 Z" id="Fill-38" fill="#D06E7B" mask="url(#mask-2)"></path>
                        <path d="M114.187564,107.411765 L1.81320889,107.411765 C0.810453333,107.411765 -0.000257777778,106.597765 -0.000257777778,105.592235 C-0.000257777778,104.585412 0.810453333,103.771412 1.81320889,103.771412 L114.187564,103.771412 C115.189031,103.771412 115.999742,104.585412 115.999742,105.592235 C115.999742,106.597765 115.189031,107.411765 114.187564,107.411765" id="Fill-39" fill="#C83951" mask="url(#mask-2)"></path>
                    </g>
                </g>
            </g>
        </g>
    </g>
</svg>