<?xml version="1.0" encoding="UTF-8"?>
<svg width="106px" height="109px" viewBox="0 0 106 109" version="1.1" xmlns="http://www.w3.org/2000/svg" xmlns:xlink="http://www.w3.org/1999/xlink">
    <!-- Generator: Sketch 54.1 (76490) - https://sketchapp.com -->
    <title>Group 7</title>
    <desc>Created with Sketch.</desc>
    <defs>
        <polygon id="path-1" points="0.775886258 0.0696202532 63.3198648 0.0696202532 63.3198648 89.2182152 0.775886258 89.2182152"></polygon>
    </defs>
    <g id="Page-1" stroke="none" stroke-width="1" fill="none" fill-rule="evenodd">
        <g id="Homepage" transform="translate(-1044.000000, -1976.000000)">
            <g id="Group-14" transform="translate(155.000000, 1535.000000)">
                <g id="Group-7" transform="translate(889.000000, 440.000000)">
                    <polygon id="Fill-1" fill="#CD566B" points="30.7326079 71.9292785 -0.000418421053 109.930797 105.938213 109.930797 75.2051868 71.9292785"></polygon>
                    <polygon id="Fill-2" fill="#AD1F2B" points="30.7326079 71.9292785 0.147423684 109.834722 28.2820553 109.834722 46.3773711 71.9292785"></polygon>
                    <polygon id="Fill-3" fill="#E797A1" points="59.5170474 71.9292785 77.6123632 109.834722 105.746995 109.834722 75.1632053 71.9292785"></polygon>
                    <g id="Group-6" transform="translate(20.921053, 1.322646)">
                        <mask id="mask-2" fill="white">
                            <use xlink:href="#path-1"></use>
                        </mask>
                        <g id="Clip-5"></g>
                        <path d="M32.3397632,42.3999873 C26.0467105,42.3999873 20.9238421,37.2856835 20.9238421,31.0031519 C20.9238421,24.7206203 26.0467105,19.6063165 32.3397632,19.6063165 C38.6328158,19.6063165 43.7556842,24.7206203 43.7556842,31.0031519 C43.7556842,37.2856835 38.6328158,42.3999873 32.3397632,42.3999873 M54.1646053,9.21479747 C48.2578947,3.31796203 40.4041316,0.0694810127 32.0510526,0.0694810127 C23.6965789,0.0694810127 15.8442105,3.31796203 9.9375,9.21479747 C-0.994447368,20.1256835 -2.35292105,40.6566962 6.99460526,53.0950506 L32.0510526,89.2182152 L57.0698421,53.1451772 C66.4550263,40.6566962 65.0965526,20.1256835 54.1646053,9.21479747" id="Fill-4" fill="#C83951" mask="url(#mask-2)"></path>
                    </g>
                </g>
            </g>
        </g>
    </g>
</svg>