<svg width="20" height="20" xmlns="http://www.w3.org/2000/svg">

 <g>
  <title>background</title>
  <rect fill="none" id="canvas_background" height="22" width="22" y="-1" x="-1"/>
 </g>
 <g>
  <title>Layer 1</title>
  <path clip-rule="nonzero" fill="#ffffff" fill-rule="nonzero" stroke-width="2" stroke-linecap="round" stroke-linejoin="round" stroke-miterlimit="4" stroke-dashoffset="0" id="path929" d="m9.997134,1.208215c-3.554149,0 -6.446787,2.893793 -6.446787,6.447936c-0.000006,6.253759 6.083862,11.007975 6.083862,11.007975c0.213726,0.170214 0.516702,0.170214 0.730434,0c0,0 6.085022,-4.754215 6.085011,-11.007975c-0.000012,-3.554143 -2.898365,-6.447936 -6.45252,-6.447936zm0,3.518205c1.611738,0 2.934309,1.318005 2.934315,2.929731c0.000012,1.611755 -1.322565,2.933172 -2.934315,2.933172c-1.611744,0 -2.929743,-1.321417 -2.929731,-2.933172c0.000006,-1.611726 1.317999,-2.929731 2.929731,-2.929731z"/>
 </g>
</svg>