<svg width="20" height="20" xmlns="http://www.w3.org/2000/svg">

 <g>
  <title>background</title>
  <rect fill="none" id="canvas_background" height="22" width="22" y="-1" x="-1"/>
 </g>
 <g>
  <title>Layer 1</title>
  <path fill="#0a1f44" stroke="null" id="svg_1" d="m16.743548,10.048292q0,-0.349656 -0.233104,-0.582759l-1.178469,-1.178469l-4.687974,-4.687974q-0.233104,-0.233104 -0.582759,-0.233104t-0.582759,0.233104l-1.178469,1.178469q-0.233104,0.233104 -0.233104,0.582759t0.233104,0.582759l2.447589,2.447589l-6.501003,0q-0.336705,0 -0.582759,0.246054t-0.246054,0.582759l0,1.657626q0,0.336705 0.246054,0.582759t0.582759,0.246054l6.501003,0l-2.447589,2.447589q-0.246054,0.246054 -0.246054,0.582759t0.246054,0.582759l1.178469,1.178469q0.233104,0.233104 0.582759,0.233104t0.582759,-0.233104l4.687974,-4.687974l1.178469,-1.178469q0.233104,-0.233104 0.233104,-0.582759zm3.250501,0q0,2.706593 -1.333871,4.992304t-3.619582,3.619582t-4.992304,1.333871t-4.992304,-1.333871t-3.619582,-3.619582t-1.333871,-4.992304t1.333871,-4.992304t3.619582,-3.619582t4.992304,-1.333871t4.992304,1.333871t3.619582,3.619582t1.333871,4.992304z"/>
 </g>
</svg>