<svg width="20" height="20" xmlns="http://www.w3.org/2000/svg" clip-rule="evenodd">

 <g>
  <title>background</title>
  <rect fill="none" id="canvas_background" height="22" width="22" y="-1" x="-1"/>
 </g>
 <g>
  <title>Layer 1</title>
  <path stroke="null" id="svg_1" fill-rule="nonzero" d="m9.896279,10.814791c3.680777,0.020536 7.148037,2.441763 8.334619,6.259302c0.040344,0.129625 0.098748,0.264203 0.058259,0.386254c-0.093359,0.282554 -0.484274,0.215557 -0.606472,-0.18701c-0.821883,-2.666495 -2.939437,-4.952125 -5.70905,-5.631129c-2.455162,-0.601811 -5.203657,-0.110691 -7.090652,1.519675c-1.241345,1.072541 -2.167074,2.543424 -2.600081,4.09922c0,0 -0.208857,0.40446 -0.475099,0.188175c-0.270902,-0.220217 0.017478,-0.721387 0.206818,-1.186436c1.24251,-3.051876 4.136942,-5.386443 7.689551,-5.446886c0.064084,-0.000874 0.128023,-0.001165 0.192108,-0.001165zm-0.015293,-8.447349c1.729989,0.016458 3.363414,1.343589 3.694468,3.070373c0.323335,1.686295 -0.658905,3.53382 -2.245432,4.20525c-1.757516,0.743816 -4.026542,-0.091466 -4.876535,-1.826844c-0.877666,-1.792034 -0.048063,-4.230156 1.803103,-5.094859c0.506121,-0.236384 1.062928,-0.355814 1.624395,-0.353921zm-0.045296,0.58244c-1.450639,0.013836 -2.812579,1.111283 -3.114213,2.539055c-0.304255,1.440444 0.525638,3.040807 1.888452,3.617567c1.772954,0.750371 4.123106,-0.476847 4.416729,-2.484292c0.258959,-1.769896 -1.164152,-3.616402 -3.087414,-3.67131c-0.034518,-0.000728 -0.069036,-0.00102 -0.103555,-0.00102z"/>
 </g>
</svg>