<svg width="20" height="20" xmlns="http://www.w3.org/2000/svg">

 <g>
  <title>background</title>
  <rect fill="none" id="canvas_background" height="22" width="22" y="-1" x="-1"/>
 </g>
 <g>
  <title>Layer 1</title>
  <g stroke="null" id="svg_4">
   <path stroke="null" id="svg_2" fill="#0a1f44" d="m11.175112,10.547522c-0.404263,0.309901 -0.941583,0.480635 -1.513525,0.480635s-1.109941,-0.170395 -1.514544,-0.480635l-7.651127,-5.862662l0,11.095339c0,0.562099 0.455857,1.018295 1.018295,1.018295l16.971579,0c0.562438,0 1.018295,-0.456196 1.018295,-1.018295l0,-11.540674c0,-0.02376 -0.005431,-0.045823 -0.007128,-0.068905l-8.321844,6.376901z"/>
   <path stroke="null" id="svg_3" fill="#0a1f44" d="m10.012111,9.681596l8.451507,-6.476354c-0.012559,-0.000339 -0.024439,-0.003734 -0.036998,-0.003734l-16.971579,0c-0.192797,0 -0.370999,0.056685 -0.524761,0.149689l8.261425,6.330399c0.219273,0.167679 0.600794,0.168358 0.820406,0z"/>
  </g>
 </g>
</svg>