<svg width="20" height="20" xmlns="http://www.w3.org/2000/svg">

 <g>
  <title>background</title>
  <rect fill="none" id="canvas_background" height="22" width="22" y="-1" x="-1"/>
 </g>
 <g>
  <path fill="#ffffff" stroke="null" id="svg_1" fill-rule="evenodd" d="m9.999609,10.781821c-1.526897,0 -9.393583,-6.339789 -9.393583,-6.339789l0,-0.696603c0,-0.863131 0.700512,-1.563643 1.565206,-1.563643l15.656753,0c0.865476,0 1.565988,0.700512 1.565988,1.563643l-0.012509,0.781821c0,0 -7.781467,6.25457 -9.381855,6.25457zm0,2.150008c1.673879,0 9.381855,-6.059115 9.381855,-6.059115l0.012509,9.381855c0,0.863131 -0.700512,1.563643 -1.565988,1.563643l-15.656753,0c-0.863913,0 -1.565206,-0.700512 -1.565206,-1.563643l0.012509,-9.381855c-0.000782,0 7.854176,6.059115 9.381073,6.059115z" clip-rule="evenodd"/>
 </g>
</svg>