<svg width="20" height="20" xmlns="http://www.w3.org/2000/svg">

 <g>
  <title>background</title>
  <rect fill="none" id="canvas_background" height="22" width="22" y="-1" x="-1"/>
 </g>
 <g>
  <path fill="#ffffff" stroke="null" id="XMLID_1_" d="m12.986847,12.609813c-0.588386,-0.128318 -1.292572,0.097021 -1.546079,0.644721c-0.147097,0.316101 -0.169005,0.748002 -0.488236,0.888839c-0.228469,0.103281 -0.491365,-0.012519 -0.710445,-0.134578c-1.076622,-0.600905 -3.236125,-4.894874 -3.07338,-6.118593c0.031297,-0.247247 0.100151,-0.528922 0.316101,-0.650981c0.303582,-0.172134 0.6635,0.068854 1.004639,0.137707c0.591516,0.125189 1.189292,-0.306712 1.439669,-0.854412c0.250377,-0.5477 0.22221,-1.183032 0.137707,-1.780808c-0.100151,-0.697926 -0.287934,-1.414631 -0.751132,-1.943553c-1.32074,-1.502263 -3.270552,0.012519 -4.049851,1.280053c-0.500754,0.816856 -0.776169,1.75264 -0.907617,2.694685c-0.284804,2.009277 3.323757,9.188843 5.107695,10.162185c0.835634,0.456938 1.749511,0.791818 2.697814,0.87632c1.483485,0.131448 3.862068,-0.528922 3.445816,-2.484994c-0.147097,-0.688537 -0.610294,-1.267535 -1.111049,-1.76203c-0.431901,-0.425641 -0.923266,-0.826245 -1.511652,-0.954563z"/>
 </g>
</svg>