<svg width="20" height="20" xmlns="http://www.w3.org/2000/svg">

 <g>
  <title>background</title>
  <rect fill="none" id="canvas_background" height="22" width="22" y="-1" x="-1"/>
 </g>
 <g>
  <title>Layer 1</title>
  <path stroke="null" id="svg_1" fill="#ffffff" d="m14.281803,0.29458l-8.563605,0c-0.630567,0 -1.141814,0.511247 -1.141814,1.141814l0,17.127211c0,0.630567 0.511247,1.141814 1.141814,1.141814l8.563605,0c0.630567,0 1.141814,-0.511247 1.141814,-1.141814l0,-17.127211c0,-0.630567 -0.511247,-1.141814 -1.141814,-1.141814zm-6.279977,0.856361l3.996349,0c0.078785,0 0.142727,0.063942 0.142727,0.142727s-0.063942,0.142727 -0.142727,0.142727l-3.996349,0c-0.078785,0 -0.142727,-0.063942 -0.142727,-0.142727s0.063942,-0.142727 0.142727,-0.142727zm1.998175,17.698118c-0.315141,0 -0.570907,-0.255766 -0.570907,-0.570907s0.255766,-0.570907 0.570907,-0.570907s0.570907,0.255766 0.570907,0.570907s-0.255766,0.570907 -0.570907,0.570907zm4.567256,-1.712721l-9.134513,0l0,-15.129036l9.134513,0l0,15.129036z"/>
 </g>
</svg>