<svg width="19.999999999999996" height="19.999999999999996" xmlns="http://www.w3.org/2000/svg">

 <g>
  <title>background</title>
  <rect fill="none" id="canvas_background" height="22" width="22" y="-1" x="-1"/>
 </g>
 <g>
  <title>Layer 1</title>
  <path fill="#0a1f44" stroke="null" id="svg_1" d="m13.772777,11.79047c0.639454,-1.006074 1.0146,-2.19972 1.0146,-3.482891c0,-3.585203 -2.903119,-6.492586 -6.48406,-6.492586c-3.585203,0 -6.488323,2.907382 -6.488323,6.492586c0,3.585203 2.903119,6.492586 6.48406,6.492586c1.300222,0 2.510921,-0.383672 3.525521,-1.040178l0.294149,-0.204625l4.629644,4.629644l1.436639,-1.462217l-4.625381,-4.629644l0.213151,-0.302675zm-1.837363,-7.110724c0.967706,0.967706 1.500584,2.25514 1.500584,3.62357c0,1.368431 -0.532878,2.655864 -1.500584,3.62357c-0.967706,0.967706 -2.25514,1.500584 -3.62357,1.500584c-1.368431,0 -2.655864,-0.532878 -3.62357,-1.500584c-0.967706,-0.967706 -1.500584,-2.25514 -1.500584,-3.62357c0,-1.368431 0.532878,-2.655864 1.500584,-3.62357c0.967706,-0.967706 2.25514,-1.500584 3.62357,-1.500584c1.368431,0 2.655864,0.532878 3.62357,1.500584z"/>
 </g>
</svg>