<svg width="20" height="20" xmlns="http://www.w3.org/2000/svg">
 <title/>
 <desc/>

 <g>
  <title>background</title>
  <rect fill="none" id="canvas_background" height="22" width="22" y="-1" x="-1"/>
 </g>
 <g>
  <title>Layer 1</title>
  <path fill="#0a1f44" stroke="null" id="Fill-195" d="m18.465063,6.546085c0,0 -0.168909,-1.190432 -0.686963,-1.714816c-0.656638,-0.687923 -1.393122,-0.691189 -1.730749,-0.731497c-2.417326,-0.174859 -6.043512,-0.174859 -6.043512,-0.174859l-0.007676,0c0,0 -3.625993,0 -6.043512,0.174859c-0.337628,0.040308 -1.073729,0.043574 -1.730749,0.731497c-0.518055,0.524384 -0.686581,1.714816 -0.686581,1.714816c0,0 -0.172747,1.397919 -0.172747,2.795838l0,1.31078c0,1.397725 0.172747,2.795644 0.172747,2.795644c0,0 0.168526,1.190432 0.686581,1.714821c0.657021,0.688112 1.520186,0.666039 1.904649,0.738209c1.38218,0.132637 5.87345,0.173711 5.87345,0.173711c0,0 3.630025,-0.005568 6.04735,-0.180233c0.337628,-0.040308 1.074112,-0.043574 1.730749,-0.731686c0.518055,-0.524389 0.686963,-1.714821 0.686963,-1.714821c0,0 0.172364,-1.397919 0.172364,-2.795644l0,-1.31078c0,-1.397919 -0.172364,-2.795838 -0.172364,-2.795838zm-10.248405,5.694559l-0.000766,-4.853656l4.667666,2.435178l-4.6669,2.418479z"/>
 </g>
</svg>