<svg width="20" height="20" xmlns="http://www.w3.org/2000/svg">
 <title/>
 <desc/>

 <g>
  <title>background</title>
  <rect fill="none" id="canvas_background" height="22" width="22" y="-1" x="-1"/>
 </g>
 <g>
  <title>Layer 1</title>
  <path stroke="null" fill="#ffffff" id="Fill-195" d="m18.780705,6.417297c0,0 -0.175207,-1.234821 -0.712579,-1.778758c-0.681122,-0.713574 -1.445068,-0.716962 -1.795285,-0.758773c-2.507462,-0.181379 -6.26886,-0.181379 -6.26886,-0.181379l-0.007962,0c0,0 -3.761198,0 -6.26886,0.181379c-0.350217,0.041811 -1.113766,0.045199 -1.795285,0.758773c-0.537372,0.543937 -0.712182,1.778758 -0.712182,1.778758c0,0 -0.179188,1.450044 -0.179188,2.900088l0,1.359656c0,1.449843 0.179188,2.899887 0.179188,2.899887c0,0 0.17481,1.234821 0.712182,1.778762c0.681519,0.71377 1.57687,0.690874 1.975669,0.765735c1.433718,0.137582 6.092457,0.180188 6.092457,0.180188c0,0 3.76538,-0.005775 6.272841,-0.186954c0.350217,-0.041811 1.114163,-0.045199 1.795285,-0.758969c0.537372,-0.543942 0.712579,-1.778762 0.712579,-1.778762c0,0 0.178791,-1.450044 0.178791,-2.899887l0,-1.359656c0,-1.450044 -0.178791,-2.900088 -0.178791,-2.900088zm-10.630544,5.906896l-0.000794,-5.034638l4.841712,2.52598l-4.840918,2.508658z"/>
 </g>
</svg>