<svg width="20" height="20" xmlns="http://www.w3.org/2000/svg">

 <g>
  <title>background</title>
  <rect fill="none" id="canvas_background" height="22" width="22" y="-1" x="-1"/>
 </g>
 <g>
  <title>Layer 1</title>
  <path stroke="null" fill="#0a1f44" id="svg_1" d="m14.267012,6.764005l-2.906389,0l0,-1.906165c0,-0.715857 0.47445,-0.882751 0.808619,-0.882751c0.333408,0 2.051009,0 2.051009,0l0,-3.147036l-2.824653,-0.011025c-3.13563,0 -3.849207,2.347161 -3.849207,3.849207l0,2.09777l-1.813404,0l0,3.242838l1.813404,0c0,4.161705 0,9.176129 0,9.176129l3.814231,0c0,0 0,-5.063845 0,-9.176129l2.573741,0l0.332648,-3.242838z"/>
 </g>
</svg>