<svg width="20" height="20" xmlns="http://www.w3.org/2000/svg">

 <g>
  <title>background</title>
  <rect fill="none" id="canvas_background" height="22" width="22" y="-1" x="-1"/>
 </g>
 <g>
  <title>Layer 1</title>
  <path stroke="null" fill="#ffffff" id="svg_2" d="m19.171007,11.982869l0,6.781118l-3.931342,0l0,-6.328237c0,-1.589862 -0.568809,-2.674612 -1.991786,-2.674612c-1.087297,0 -1.733179,0.731235 -2.017902,1.438902c-0.103188,0.252875 -0.130578,0.603842 -0.130578,0.958631l0,6.605316l-3.932616,0c0,0 0.052231,-10.717556 0,-11.827147l3.932616,0l0,1.677126c-0.007644,0.012739 -0.017835,0.026116 -0.026116,0.038218l0.026116,0l0,-0.038218c0.52231,-0.805759 1.455463,-1.954205 3.544067,-1.954205c2.588622,-0.000637 4.52754,1.690502 4.52754,5.323108l0,0zm-16.116462,-10.747493c-1.345905,0 -2.225552,0.883469 -2.225552,2.044017c0,1.133796 0.854806,2.044017 2.173321,2.044017l0.026116,0c1.370109,0 2.223641,-0.909585 2.223641,-2.044017c-0.026116,-1.160548 -0.853532,-2.044017 -2.1988,-2.044017l0.001274,0zm-1.991786,17.529248l3.931342,0l0,-11.827147l-3.931342,0l0,11.827147z"/>
 </g>
</svg>