<svg width="20" height="20" xmlns="http://www.w3.org/2000/svg">

 <g>
  <title>background</title>
  <rect fill="none" id="canvas_background" height="22" width="22" y="-1" x="-1"/>
 </g>
 <g>
  <title>Layer 1</title>
  <path fill="#0a1f44" stroke="null" id="svg_2" d="m17.649561,11.653916l0,5.656148l-3.279142,0l0,-5.278399c0,-1.326108 -0.474445,-2.2309 -1.661354,-2.2309c-0.906918,0 -1.445649,0.609925 -1.683137,1.200191c-0.08607,0.210923 -0.108915,0.503666 -0.108915,0.799596l0,5.509511l-3.280205,0c0,0 0.043566,-8.93954 0,-9.865053l3.280205,0l0,1.398895c-0.006376,0.010626 -0.014876,0.021783 -0.021783,0.031878l0.021783,0l0,-0.031878c0.43566,-0.672086 1.214005,-1.630008 2.956116,-1.630008c2.159176,-0.000531 3.776432,1.410052 3.776432,4.440018l0,0zm-13.442782,-8.964511c-1.122623,0 -1.856339,0.736904 -1.856339,1.70492c0,0.945702 0.712996,1.70492 1.812773,1.70492l0.021783,0c1.142812,0 1.854745,-0.758687 1.854745,-1.70492c-0.021783,-0.968016 -0.711933,-1.70492 -1.834024,-1.70492l0.001063,0zm-1.661354,14.621191l3.279142,0l0,-9.865053l-3.279142,0l0,9.865053z"/>
 </g>
</svg>