<svg width="35" height="35" xmlns="http://www.w3.org/2000/svg">
 <title/>

 <desc/>
 <g>
  <rect fill="none" id="canvas_background" height="37" width="37" y="-1" x="-1"/>
 </g>
 <g>
  <path stroke="null" id="quote2" fill="#0a1f44" d="m33.478316,22.053393c-0.222203,-0.684243 -0.607531,-1.311173 -1.143639,-1.878142c-0.561679,-0.592541 -1.29971,-1.051054 -2.214973,-1.382595c-0.916145,-0.328895 -2.092409,-0.495547 -3.542018,-0.495547l-1.9672,0c0.234547,-2.421304 1.096906,-4.48197 2.588838,-6.185525c1.489287,-1.698264 3.554362,-3.192842 6.194342,-4.474916l-1.601271,-2.481264c-3.475886,1.48047 -6.450052,3.646065 -8.920735,6.506484c-2.469801,2.863065 -3.699852,5.699677 -3.699852,8.513363c0,3.022663 0.713341,5.393707 2.151487,7.105197c1.438146,1.71149 3.49793,2.564149 6.175825,2.564149c1.699146,0 3.175207,-0.56697 4.430828,-1.700027c1.253858,-1.131294 1.882551,-2.456575 1.882551,-3.967906c0,-0.729213 -0.11022,-1.439027 -0.334186,-2.123271m-17.984314,0c-0.223966,-0.684243 -0.608412,-1.311173 -1.145402,-1.878142c-0.559916,-0.592541 -1.298828,-1.051054 -2.214973,-1.382595c-0.914382,-0.328895 -2.090646,-0.495547 -3.541136,-0.495547l-1.968081,0c0.235429,-2.421304 1.096906,-4.48197 2.587957,-6.185525c1.490169,-1.698264 3.557007,-3.192842 6.195224,-4.474916l-1.600389,-2.481264c-3.476768,1.48047 -6.44917,3.646065 -8.920735,6.506484c-2.469801,2.863065 -3.69897,5.699677 -3.69897,8.513363c0,3.022663 0.711578,5.393707 2.150605,7.105197c1.436382,1.71149 3.496166,2.564149 6.175825,2.564149c1.698264,0 3.176088,-0.56697 4.43171,-1.700027c1.253858,-1.131294 1.881669,-2.456575 1.881669,-3.967906c0,-0.729213 -0.111983,-1.439027 -0.333304,-2.123271"/>
 </g>
</svg>