<?xml version="1.0" encoding="UTF-8"?>
<svg width="70px" height="70px" viewBox="0 0 70 70" version="1.1" xmlns="http://www.w3.org/2000/svg" xmlns:xlink="http://www.w3.org/1999/xlink">
    <!-- Generator: Sketch 54.1 (76490) - https://sketchapp.com -->
    <title>Group 9</title>
    <desc>Created with Sketch.</desc>
    <defs>
        <polygon id="path-1" points="0.000307692308 0.531538462 69.2307692 0.531538462 69.2307692 69.2306154 0.000307692308 69.2306154"></polygon>
        <polygon id="path-3" points="0.209461538 0.559538462 17.6923077 0.559538462 17.6923077 18.4615385 0.209461538 18.4615385"></polygon>
    </defs>
    <g id="25.DORMITORY" stroke="none" stroke-width="1" fill="none" fill-rule="evenodd">
        <g id="Dormitory" transform="translate(-541.000000, -2993.000000)">
            <g id="Group-19" transform="translate(150.000000, 2587.000000)">
                <g id="Group-9" transform="translate(391.000000, 406.000000)">
                    <g id="Group-3" transform="translate(0.000000, 0.237538)">
                        <mask id="mask-2" fill="white">
                            <use xlink:href="#path-1"></use>
                        </mask>
                        <g id="Clip-2"></g>
                        <path d="M52.3726154,36.3952308 C52.3726154,38.8952308 50.3456923,40.9221538 47.8449231,40.9221538 L40.6572308,40.9221538 L40.6572308,48.1106154 C40.6572308,50.6113846 38.6303077,52.6390769 36.1287692,52.6390769 L33.5141538,52.6390769 L33.1018462,52.6390769 C30.6010769,52.6390769 28.5726154,50.6113846 28.5726154,48.1106154 L28.5726154,40.9221538 L21.3849231,40.9221538 C18.8856923,40.9221538 16.858,38.8952308 16.858,36.3952308 L16.858,33.366 C16.858,30.866 18.8856923,28.8390769 21.3849231,28.8390769 L28.5726154,28.8390769 L28.5726154,21.6513846 C28.5726154,19.1498462 30.6010769,17.1236923 33.1018462,17.1236923 L33.5141538,17.1236923 L36.1287692,17.1236923 C38.6303077,17.1236923 40.6572308,19.1498462 40.6572308,21.6513846 L40.6572308,28.8390769 L47.8449231,28.8390769 C50.3456923,28.8390769 52.3726154,30.866 52.3726154,33.366 L52.3726154,36.3952308 Z M60.6818462,0.531384615 L34.6156923,0.531384615 L8.54876923,0.531384615 C3.82723077,0.531384615 0.000307692308,4.35907692 0.000307692308,9.08061538 L0.000307692308,60.6821538 C0.000307692308,65.4029231 3.82723077,69.2306154 8.54876923,69.2306154 L34.6156923,69.2306154 L51.7641538,69.2306154 L51.7641538,60.3129231 C51.7641538,55.5913846 55.5918462,51.7636923 60.3126154,51.7636923 L69.2310769,51.3290769 L69.2310769,9.08061538 C69.2310769,4.35907692 65.4033846,0.531384615 60.6818462,0.531384615 L60.6818462,0.531384615 Z" id="Fill-1" fill="#C83951" mask="url(#mask-2)"></path>
                    </g>
                    <g id="Group-6" transform="translate(51.538462, 51.006769)">
                        <mask id="mask-4" fill="white">
                            <use xlink:href="#path-3"></use>
                        </mask>
                        <g id="Clip-5"></g>
                        <path d="M0.209461538,9.32184615 L0.209461538,18.4618462 L17.6925385,0.559538462 L8.97176923,0.559538462 C4.13253846,0.559538462 0.209461538,4.48261538 0.209461538,9.32184615" id="Fill-4" fill="#AD1F2B" mask="url(#mask-4)"></path>
                    </g>
                    <path d="M47.8447692,29.0767692 L40.6570769,29.0767692 L40.6570769,21.8890769 C40.6570769,19.3875385 38.6301538,17.3613846 36.1293846,17.3613846 L33.514,17.3613846 L33.1016923,17.3613846 C30.6009231,17.3613846 28.5732308,19.3875385 28.5732308,21.8890769 L28.5732308,29.0767692 L21.3847692,29.0767692 C18.8855385,29.0767692 16.8578462,31.1036923 16.8578462,33.6036923 L16.8578462,36.6329231 C16.8578462,39.1329231 18.8855385,41.1598462 21.3847692,41.1598462 L28.5732308,41.1598462 L28.5732308,48.3483077 C28.5732308,50.8490769 30.6009231,52.876 33.1016923,52.876 L33.514,52.876 L36.1293846,52.876 C38.6301538,52.876 40.6570769,50.8490769 40.6570769,48.3483077 L40.6570769,41.1598462 L47.8447692,41.1598462 C50.3463077,41.1598462 52.3724615,39.1329231 52.3724615,36.6329231 L52.3724615,33.6036923 C52.3724615,31.1036923 50.3455385,29.0767692 47.8447692,29.0767692" id="Fill-7" fill="#F7D6DE"></path>
                </g>
            </g>
        </g>
    </g>
</svg>