<?xml version="1.0" encoding="UTF-8"?>
<svg width="355px" height="250px" viewBox="0 0 355 250" version="1.1" xmlns="http://www.w3.org/2000/svg" xmlns:xlink="http://www.w3.org/1999/xlink">
    <!-- Generator: Sketch 54.1 (76490) - https://sketchapp.com -->
    <title>Group 41</title>
    <desc>Created with Sketch.</desc>
    <g id="Page-1" stroke="none" stroke-width="1" fill="none" fill-rule="evenodd" opacity="0.2">
        <g id="Welcome-to-SNA" transform="translate(-1085.000000, -630.000000)" fill="#0A1F44">
            <g id="Group-41" transform="translate(1085.000000, 630.000000)">
                <path d="M44.9866727,30.1946369 L88.7771649,60.7421543 L88.7771649,31.8938328 L44.9866727,1.34631544 L44.9866727,30.1946369 Z M89.0811969,61.8081181 L44.2804428,30.555886 L44.2804428,0 L89.0804907,31.2515347 L89.4833948,30.9690909 L89.4833948,61.5263717 L89.0811969,61.8081181 Z" id="Fill-1"></path>
                <path d="M89.26711,31.8941815 L89.26711,60.742503 L133.057613,30.1946369 L133.057613,1.34666414 L89.26711,31.8941815 Z M88.9641397,61.8081181 L88.5608856,61.5274178 L88.5608856,30.9718804 L88.9634335,31.252232 L133.763838,0 L133.763838,30.5562347 L88.9641397,61.8081181 Z" id="Fill-3"></path>
                <path d="M0.706229916,31.8938328 L0.706229916,60.7421543 L44.4967221,30.1946369 L44.4967221,1.34631544 L0.706229916,31.8938328 Z M0.402551052,61.8081181 L0,61.5267204 L0,30.9704856 L0.402904167,31.2518833 L45.202952,0 L45.202952,30.555886 L0.402551052,61.8081181 Z" id="Fill-5"></path>
                <path d="M133.625049,30.1948073 L177.415541,60.7424969 L177.415541,31.8943614 L133.625049,1.34632304 L133.625049,30.1948073 Z M177.718514,61.8081181 L132.918819,30.5560584 L132.918819,0 L177.71922,31.2520597 L178.121771,30.9720552 L178.121771,61.5274162 L177.718514,61.8081181 Z" id="Fill-7"></path>
                <path d="M222.185935,30.1946369 L265.976427,60.7421543 L265.976427,31.8938328 L222.185935,1.34631544 L222.185935,30.1946369 Z M266.280459,61.8081181 L221.479705,30.555886 L221.479705,0 L266.279753,31.2515347 L266.682657,30.9690909 L266.682657,61.5263717 L266.280459,61.8081181 Z" id="Fill-9"></path>
                <path d="M266.466372,31.8941815 L266.466372,60.742503 L310.256875,30.1946369 L310.256875,1.34666414 L266.466372,31.8941815 Z M266.163402,61.8081181 L265.760148,61.5274178 L265.760148,30.9718804 L266.162696,31.252232 L310.9631,0 L310.9631,30.5562347 L266.163402,61.8081181 Z" id="Fill-11"></path>
                <path d="M177.905492,31.8941815 L177.905492,60.742503 L221.695984,30.1946369 L221.695984,1.34666414 L177.905492,31.8941815 Z M177.602519,61.8081181 L177.199262,61.5274178 L177.199262,30.9718804 L177.601813,31.252232 L222.402214,0 L222.402214,30.5562347 L177.602519,61.8081181 Z" id="Fill-13"></path>
                <path d="M310.74682,30.1948073 L354.537313,60.7424969 L354.537313,31.8943614 L310.74682,1.34632304 L310.74682,30.1948073 Z M354.840285,61.8081181 L310.04059,30.5560584 L310.04059,0 L354.840991,31.2520597 L355.243542,30.9720552 L355.243542,61.5274162 L354.840285,61.8081181 Z" id="Fill-15"></path>
                <path d="M89.26711,94.6248088 L89.26711,123.47313 L133.057613,92.9252642 L133.057613,64.0772914 L89.26711,94.6248088 Z M88.9641397,124.538745 L88.5608856,124.258045 L88.5608856,93.7025077 L88.9634335,93.9828594 L133.763838,62.7306273 L133.763838,93.286862 L88.9641397,124.538745 Z" id="Fill-17"></path>
                <path d="M133.625049,92.9254346 L177.415541,123.473124 L177.415541,94.6249887 L133.625049,64.0769503 L133.625049,92.9254346 Z M177.718514,124.538745 L132.918819,93.2866857 L132.918819,62.7306273 L177.71922,93.982687 L178.121771,93.7026825 L178.121771,124.258043 L177.718514,124.538745 Z" id="Fill-19"></path>
                <path d="M222.185935,92.9252642 L265.976427,123.472782 L265.976427,94.6244601 L222.185935,64.0769427 L222.185935,92.9252642 Z M266.280459,124.538745 L221.479705,93.2865133 L221.479705,62.7306273 L266.279753,93.982162 L266.682657,93.6997182 L266.682657,124.256999 L266.280459,124.538745 Z" id="Fill-21"></path>
                <path d="M266.466372,94.6248088 L266.466372,123.47313 L310.256875,92.9252642 L310.256875,64.0772914 L266.466372,94.6248088 Z M266.163402,124.538745 L265.760148,124.258045 L265.760148,93.7025077 L266.162696,93.9828594 L310.9631,62.7306273 L310.9631,93.286862 L266.163402,124.538745 Z" id="Fill-23"></path>
                <path d="M177.905492,94.6248088 L177.905492,123.47313 L221.695984,92.9252642 L221.695984,64.0772914 L177.905492,94.6248088 Z M177.602519,124.538745 L177.199262,124.258045 L177.199262,93.7025077 L177.601813,93.9828594 L222.402214,62.7306273 L222.402214,93.286862 L177.602519,124.538745 Z" id="Fill-25"></path>
                <path d="M310.74682,92.9254346 L354.537313,123.473124 L354.537313,94.6249887 L310.74682,64.0769503 L310.74682,92.9254346 Z M354.840285,124.538745 L310.04059,93.2866857 L310.04059,62.7306273 L354.840991,93.982687 L355.243542,93.7026825 L355.243542,124.258043 L354.840285,124.538745 Z" id="Fill-27"></path>
                <path d="M222.185935,155.655892 L265.976427,186.203409 L265.976427,157.355087 L222.185935,126.80757 L222.185935,155.655892 Z M266.280459,187.269373 L221.479705,156.017141 L221.479705,125.461255 L266.279753,156.712789 L266.682657,156.430345 L266.682657,186.987626 L266.280459,187.269373 Z" id="Fill-29"></path>
                <path d="M266.466372,157.355436 L266.466372,186.203758 L310.256875,155.655892 L310.256875,126.807919 L266.466372,157.355436 Z M266.163402,187.269373 L265.760148,186.988672 L265.760148,156.433135 L266.162696,156.713487 L310.9631,125.461255 L310.9631,156.017489 L266.163402,187.269373 Z" id="Fill-31"></path>
                <path d="M177.905492,157.355436 L177.905492,186.203758 L221.695984,155.655892 L221.695984,126.807919 L177.905492,157.355436 Z M177.602519,187.269373 L177.199262,186.988672 L177.199262,156.433135 L177.601813,156.713487 L222.402214,125.461255 L222.402214,156.017489 L177.602519,187.269373 Z" id="Fill-33"></path>
                <path d="M310.74682,155.656062 L354.537313,186.203752 L354.537313,157.355616 L310.74682,126.807578 L310.74682,155.656062 Z M354.840285,187.269373 L310.04059,156.017313 L310.04059,125.461255 L354.840991,156.713314 L355.243542,156.43331 L355.243542,186.988671 L354.840285,187.269373 Z" id="Fill-35"></path>
                <path d="M266.466372,220.086063 L266.466372,248.934385 L310.256875,218.386868 L310.256875,189.538546 L266.466372,220.086063 Z M266.162696,250 L265.760148,249.718602 L265.760148,219.162019 L266.163402,219.443765 L310.9631,188.191882 L310.9631,218.747768 L266.162696,250 Z" id="Fill-37"></path>
                <path d="M310.74682,218.386868 L354.537313,248.934385 L354.537313,220.086063 L310.74682,189.538546 L310.74682,218.386868 Z M354.840991,250 L310.04059,218.747768 L310.04059,188.191882 L354.840285,219.443765 L355.243542,219.162019 L355.243542,249.718602 L354.840991,250 Z" id="Fill-39"></path>
            </g>
        </g>
    </g>
</svg>