<?xml version="1.0" encoding="utf-8"?>
<!-- Generator: Adobe Illustrator 19.2.1, SVG Export Plug-In . SVG Version: 6.00 Build 0)  -->
<svg version="1.2" baseProfile="tiny" id="Layer_1" xmlns="http://www.w3.org/2000/svg" xmlns:xlink="http://www.w3.org/1999/xlink"
	 x="0px" y="0px" viewBox="0 0 891 450" xml:space="preserve">
<g>
	<g>
		<g>
			<path fill="#E6DAA6" d="M698.1,284.9v-17.7h3.7l4.6,7.6c1.2,2,2.2,4,3,5.9h0.1c-0.2-2.4-0.3-4.6-0.3-7.3v-6.2h3v17.7h-3.3
				l-4.6-7.8c-1.1-1.9-2.3-4.1-3.2-6.1l-0.1,0c0.1,2.3,0.2,4.6,0.2,7.5v6.3H698.1z"/>
			<path fill="#E6DAA6" d="M726.3,272.1c-0.1,0.9-0.1,1.9-0.1,3.7v7.2c0,2.7-0.6,4.6-1.9,5.8c-1.3,1.2-3.2,1.5-4.9,1.5
				c-1.6,0-3.4-0.3-4.5-1l0.7-2.4c0.8,0.5,2.2,1,3.7,1c2.1,0,3.7-1.1,3.7-3.9v-1.1H723c-0.7,1.1-2,1.9-3.7,1.9
				c-3.2,0-5.4-2.6-5.4-6.2c0-4.2,2.7-6.7,5.8-6.7c1.9,0,3.1,0.9,3.7,2h0.1l0.1-1.7H726.3z M723,277.3c0-0.3,0-0.6-0.1-0.9
				c-0.3-1.2-1.3-2.1-2.6-2.1c-1.8,0-3.1,1.6-3.1,4.2c0,2.2,1.1,3.9,3.1,3.9c1.2,0,2.3-0.8,2.6-1.9c0.1-0.3,0.1-0.8,0.1-1.2V277.3z"
				/>
			<path fill="#E6DAA6" d="M740.1,281.1c0,1.5,0.1,2.8,0.1,3.8h-2.8l-0.2-1.9h-0.1c-0.6,0.9-1.8,2.2-4.1,2.2c-2.3,0-4.5-1.4-4.5-5.6
				v-7.5h3.2v7c0,2.1,0.7,3.5,2.4,3.5c1.3,0,2.1-0.9,2.5-1.7c0.1-0.3,0.2-0.6,0.2-1v-7.7h3.2V281.1z"/>
			<path fill="#E6DAA6" d="M744.5,272.1l2.3,6.8c0.3,0.8,0.5,1.8,0.7,2.5h0.1c0.2-0.7,0.4-1.7,0.7-2.5l2-6.8h3.5l-3.2,8.7
				c-1.8,4.8-2.9,6.9-4.5,8.2c-1.3,1.1-2.6,1.5-3.4,1.7L742,288c0.6-0.1,1.2-0.4,1.9-0.9c0.6-0.4,1.3-1.2,1.8-2
				c0.1-0.2,0.2-0.4,0.2-0.6c0-0.1,0-0.3-0.2-0.6l-4.7-11.7H744.5z"/>
			<path fill="#E6DAA6" d="M756.5,279.4c0.1,2.3,1.9,3.3,3.9,3.3c1.5,0,2.6-0.2,3.5-0.6l0.5,2.2c-1.1,0.4-2.6,0.8-4.5,0.8
				c-4.1,0-6.6-2.5-6.6-6.5c0-3.5,2.2-6.9,6.2-6.9c4.1,0,5.5,3.4,5.5,6.2c0,0.6-0.1,1.1-0.1,1.4H756.5z M762.1,277.2
				c0-1.2-0.5-3.1-2.6-3.1c-2,0-2.8,1.8-3,3.1H762.1z"/>
			<path fill="#E6DAA6" d="M766.7,275.9c0-1.5,0-2.7-0.1-3.8h2.8l0.2,1.9h0.1c0.6-1,1.9-2.2,4.1-2.2c2.2,0,4.5,1.4,4.5,5.5v7.6H775
				v-7.2c0-1.8-0.7-3.2-2.4-3.2c-1.3,0-2.2,0.9-2.5,1.9c-0.1,0.3-0.1,0.7-0.1,1v7.5h-3.3V275.9z"/>
			<path fill="#E6DAA6" d="M788.4,267.2v7.1h7.5v-7.1h3.2v17.7h-3.2v-7.8h-7.5v7.8h-3.2v-17.7H788.4z"/>
			<path fill="#E6DAA6" d="M813.8,278.4c0,4.7-3.3,6.8-6.6,6.8c-3.6,0-6.4-2.5-6.4-6.6c0-4.2,2.8-6.8,6.6-6.8
				C811.2,271.8,813.8,274.5,813.8,278.4z M804.1,278.5c0,2.5,1.2,4.3,3.2,4.3c1.8,0,3.1-1.8,3.1-4.4c0-2-0.9-4.3-3.1-4.3
				C805.1,274.2,804.1,276.4,804.1,278.5z"/>
			<path fill="#E6DAA6" d="M822.6,284.9l-0.2-1.4h-0.1c-0.8,1-2.1,1.7-3.8,1.7c-2.6,0-4-1.9-4-3.8c0-3.2,2.9-4.9,7.6-4.8v-0.2
				c0-0.8-0.3-2.2-2.6-2.2c-1.3,0-2.6,0.4-3.4,0.9l-0.6-2.1c0.9-0.6,2.6-1.1,4.6-1.1c4.1,0,5.3,2.6,5.3,5.4v4.6
				c0,1.2,0.1,2.3,0.2,3.1H822.6z M822.1,278.7c-2.3-0.1-4.5,0.4-4.5,2.4c0,1.3,0.8,1.8,1.8,1.8c1.3,0,2.2-0.8,2.5-1.8
				c0.1-0.2,0.1-0.5,0.1-0.7V278.7z"/>
			<path fill="#E6DAA6" d="M827.6,275.9c0-1.5,0-2.7-0.1-3.8h2.8l0.2,1.9h0.1c0.6-1,1.9-2.2,4.1-2.2c2.2,0,4.5,1.4,4.5,5.5v7.6H836
				v-7.2c0-1.8-0.7-3.2-2.4-3.2c-1.3,0-2.2,0.9-2.5,1.9c-0.1,0.3-0.1,0.7-0.1,1v7.5h-3.3V275.9z"/>
			<path fill="#E6DAA6" d="M853.3,272.1c-0.1,0.9-0.1,1.9-0.1,3.7v7.2c0,2.7-0.6,4.6-1.9,5.8c-1.3,1.2-3.2,1.5-4.9,1.5
				c-1.6,0-3.4-0.3-4.5-1l0.7-2.4c0.8,0.5,2.2,1,3.7,1c2.1,0,3.7-1.1,3.7-3.9v-1.1h-0.1c-0.7,1.1-2,1.9-3.7,1.9
				c-3.2,0-5.4-2.6-5.4-6.2c0-4.2,2.7-6.7,5.8-6.7c1.9,0,3.1,0.9,3.7,2h0.1l0.1-1.7H853.3z M849.9,277.3c0-0.3,0-0.6-0.1-0.9
				c-0.3-1.2-1.3-2.1-2.6-2.1c-1.8,0-3.1,1.6-3.1,4.2c0,2.2,1.1,3.9,3.1,3.9c1.2,0,2.3-0.8,2.6-1.9c0.1-0.3,0.1-0.8,0.1-1.2V277.3z"
				/>
		</g>
		<g>
			<path fill="#E6DAA6" d="M775.9,313.8c-1.6,0.6-4.7,1.5-8.3,1.5c-4.1,0-7.5-1-10.1-3.6c-2.3-2.2-3.8-5.9-3.8-10.1
				c0-8.1,5.6-14,14.6-14c3.1,0,5.6,0.7,6.7,1.2l-0.8,2.8c-1.4-0.6-3.2-1.2-6-1.2c-6.6,0-10.9,4.1-10.9,10.9
				c0,6.9,4.1,10.9,10.4,10.9c2.3,0,3.8-0.3,4.7-0.7v-8.1H767v-2.8h8.9V313.8z"/>
			<path fill="#E6DAA6" d="M780.3,301.6c0-2.3,0-4.3-0.2-6.1h3.1l0.1,3.8h0.2c0.9-2.6,3-4.3,5.4-4.3c0.4,0,0.7,0,1,0.1v3.3
				c-0.4-0.1-0.7-0.1-1.2-0.1c-2.5,0-4.3,1.9-4.7,4.5c-0.1,0.5-0.2,1-0.2,1.6V315h-3.5V301.6z"/>
			<path fill="#E6DAA6" d="M809.8,305.1c0,7.2-5,10.3-9.7,10.3c-5.3,0-9.3-3.8-9.3-10c0-6.5,4.3-10.3,9.6-10.3
				C806,295.1,809.8,299.2,809.8,305.1z M794.4,305.3c0,4.3,2.4,7.5,5.9,7.5c3.4,0,5.9-3.2,5.9-7.5c0-3.3-1.6-7.5-5.8-7.5
				C796.2,297.8,794.4,301.6,794.4,305.3z"/>
			<path fill="#E6DAA6" d="M829.7,309.7c0,2,0,3.8,0.2,5.3h-3.1l-0.2-3.2h-0.1c-0.9,1.6-3,3.6-6.4,3.6c-3,0-6.7-1.7-6.7-8.5v-11.3
				h3.5v10.7c0,3.7,1.1,6.2,4.3,6.2c2.4,0,4-1.6,4.7-3.2c0.2-0.5,0.3-1.2,0.3-1.8v-11.9h3.5V309.7z"/>
			<path fill="#E6DAA6" d="M834.8,301.9c0-2.5-0.1-4.5-0.2-6.3h3.2l0.2,3.3h0.1c1.4-2.4,3.7-3.8,6.9-3.8c4.7,0,8.2,4,8.2,9.9
				c0,7-4.2,10.4-8.8,10.4c-2.6,0-4.8-1.1-6-3h-0.1v10.5h-3.5V301.9z M838.2,307.1c0,0.5,0.1,1,0.2,1.4c0.6,2.4,2.8,4.1,5.3,4.1
				c3.7,0,5.9-3,5.9-7.5c0-3.9-2-7.2-5.8-7.2c-2.4,0-4.7,1.7-5.3,4.4c-0.1,0.4-0.2,1-0.2,1.4V307.1z"/>
		</g>
		<path fill="#D2232A" d="M853.5,243.2c-0.4,2.2-1.2,4.2-2.2,6.1C852.3,247.4,853.1,245.3,853.5,243.2z"/>
		<path fill="#D2232A" d="M831.7,261h-74.1c-0.3,0-0.6,0-0.9,0c0.3,0,0.6,0,0.9,0H831.7c8.5,0,15.8-4.7,19.6-11.7
			C847.5,256.3,840.1,261,831.7,261z"/>
		<g>
					<g>
				<g>
					<linearGradient id="SVGID_1_" gradientUnits="userSpaceOnUse" x1="536.0309" y1="260.9683" x2="536.0309" y2="158.428">
						<stop  offset="0" style="stop-color:#796A45"/>
						<stop  offset="4.969777e-02" style="stop-color:#8F7F58"/>
						<stop  offset="0.13" style="stop-color:#B0A175"/>
						<stop  offset="0.2067" style="stop-color:#CBBD8D"/>
						<stop  offset="0.2773" style="stop-color:#DED19E"/>
						<stop  offset="0.3362" style="stop-color:#E6DAA6"/>
						<stop  offset="0.4063" style="stop-color:#F1E2B0"/>
						<stop  offset="0.5114" style="stop-color:#FCEBB9"/>
						<stop  offset="0.635" style="stop-color:#FFEEBD"/>
						<stop  offset="0.7163" style="stop-color:#FFEDBA"/>
						<stop  offset="0.7791" style="stop-color:#FDE9B0"/>
						<stop  offset="0.8358" style="stop-color:#FAE4A1"/>
						<stop  offset="0.8888" style="stop-color:#F6DD8D"/>
						<stop  offset="0.9393" style="stop-color:#F1D674"/>
						<stop  offset="0.9873" style="stop-color:#ECCD52"/>
						<stop  offset="0.9974" style="stop-color:#EACA49"/>
					</linearGradient>
					<polygon fill="url(#SVGID_1_)" points="569.1,224.6 502.9,158.4 477.5,158.4 477.5,261 502.9,261 502.9,196.7 569.1,261 
						594.5,261 594.5,158.4 569.1,158.4 					"/>
					<linearGradient id="SVGID_2_" gradientUnits="userSpaceOnUse" x1="664.8641" y1="260.9683" x2="664.8641" y2="158.428">
						<stop  offset="0" style="stop-color:#796A45"/>
						<stop  offset="4.969777e-02" style="stop-color:#8F7F58"/>
						<stop  offset="0.13" style="stop-color:#B0A175"/>
						<stop  offset="0.2067" style="stop-color:#CBBD8D"/>
						<stop  offset="0.2773" style="stop-color:#DED19E"/>
						<stop  offset="0.3362" style="stop-color:#E6DAA6"/>
						<stop  offset="0.4063" style="stop-color:#F1E2B0"/>
						<stop  offset="0.5114" style="stop-color:#FCEBB9"/>
						<stop  offset="0.635" style="stop-color:#FFEEBD"/>
						<stop  offset="0.7163" style="stop-color:#FFEDBA"/>
						<stop  offset="0.7791" style="stop-color:#FDE9B0"/>
						<stop  offset="0.8358" style="stop-color:#FAE4A1"/>
						<stop  offset="0.8888" style="stop-color:#F6DD8D"/>
						<stop  offset="0.9393" style="stop-color:#F1D674"/>
						<stop  offset="0.9873" style="stop-color:#ECCD52"/>
						<stop  offset="0.9974" style="stop-color:#EACA49"/>
					</linearGradient>
					<polygon fill="url(#SVGID_2_)" points="698.1,196.4 631.7,196.4 631.7,158.4 606.3,158.4 606.3,261 631.7,261 631.7,221.5 
						698.1,221.5 698.1,261 723.5,261 723.5,158.4 698.1,158.4 					"/>
					<linearGradient id="SVGID_3_" gradientUnits="userSpaceOnUse" x1="794.5833" y1="260.9688" x2="794.5833" y2="158.428">
						<stop  offset="0" style="stop-color:#796A45"/>
						<stop  offset="4.969777e-02" style="stop-color:#8F7F58"/>
						<stop  offset="0.13" style="stop-color:#B0A175"/>
						<stop  offset="0.2067" style="stop-color:#CBBD8D"/>
						<stop  offset="0.2773" style="stop-color:#DED19E"/>
						<stop  offset="0.3362" style="stop-color:#E6DAA6"/>
						<stop  offset="0.4063" style="stop-color:#F1E2B0"/>
						<stop  offset="0.5114" style="stop-color:#FCEBB9"/>
						<stop  offset="0.635" style="stop-color:#FFEEBD"/>
						<stop  offset="0.7163" style="stop-color:#FFEDBA"/>
						<stop  offset="0.7791" style="stop-color:#FDE9B0"/>
						<stop  offset="0.8358" style="stop-color:#FAE4A1"/>
						<stop  offset="0.8888" style="stop-color:#F6DD8D"/>
						<stop  offset="0.9393" style="stop-color:#F1D674"/>
						<stop  offset="0.9873" style="stop-color:#ECCD52"/>
						<stop  offset="0.9974" style="stop-color:#EACA49"/>
					</linearGradient>
					<path fill="url(#SVGID_3_)" d="M853.8,178.2c-1.2-11.1-10.6-19.8-22-19.8h-74.5c-12.2,0-22.2,9.9-22.2,22.2v58
						c0,11.9,9.3,21.6,21,22.3c0.2,0,0.3,0,0.5,0c0.3,0,0.6,0,0.9,0h74.1c8.5,0,15.8-4.7,19.6-11.7c1-1.9,1.8-4,2.2-6.1
						c0.3-1.5,0.5-3,0.5-4.5l0-42.4l-66.9,0.1l14.7,24.8l26.3,0v15.8h-67.5v-57.4h67.5v9L853.8,178.2z"/>
				</g>
			</g>
		</g>
		<path fill="#FFEEBD" d="M756.6,260.9c0.3,0,0.6,0,0.9,0h74.1c8.5,0,15.8-4.7,19.6-11.7c1-1.9,1.8-4,2.2-6.1c0.3-1.5,0.5-3,0.5-4.5
			v-1.7l0,0v-16.3l0,0h0v-8.2c0,0-9.7,7.3-25.9,16.6v7.9h-16.2l0,0c-15.7,8-55.7,24-55.7,24C756.3,260.9,756.5,260.9,756.6,260.9z"
			/>
	</g>
	<g>
		<path fill="#E6DAA6" d="M487.7,145.3c-0.9,0.8-1.8,1.3-2.6,1.6c-0.8,0.3-1.7,0.5-2.7,0.5c-1.6,0-2.8-0.4-3.6-1.1
			c-0.8-0.8-1.3-1.7-1.3-2.9c0-0.7,0.2-1.3,0.5-1.9c0.3-0.6,0.7-1,1.2-1.4c0.5-0.3,1.1-0.6,1.7-0.8c0.5-0.1,1.2-0.2,2.1-0.4
			c1.9-0.2,3.4-0.5,4.3-0.8c0-0.3,0-0.5,0-0.6c0-1-0.2-1.7-0.7-2.1c-0.6-0.5-1.5-0.8-2.7-0.8c-1.1,0-2,0.2-2.5,0.6
			c-0.5,0.4-0.9,1.1-1.2,2.1l-2.4-0.3c0.2-1,0.6-1.8,1.1-2.4c0.5-0.6,1.2-1.1,2.1-1.4c0.9-0.3,2-0.5,3.2-0.5c1.2,0,2.2,0.1,3,0.4
			c0.8,0.3,1.3,0.6,1.7,1.1c0.4,0.4,0.6,1,0.8,1.6c0.1,0.4,0.1,1.2,0.1,2.2v3.2c0,2.2,0.1,3.7,0.2,4.3c0.1,0.6,0.3,1.2,0.6,1.7h-2.5
			C487.9,146.6,487.7,146,487.7,145.3z M487.5,139.9c-0.9,0.4-2.2,0.7-3.9,0.9c-1,0.1-1.7,0.3-2.1,0.5c-0.4,0.2-0.7,0.4-1,0.8
			c-0.2,0.3-0.3,0.7-0.3,1.1c0,0.6,0.2,1.2,0.7,1.6c0.5,0.4,1.2,0.6,2.1,0.6c0.9,0,1.8-0.2,2.5-0.6c0.7-0.4,1.3-1,1.6-1.7
			c0.3-0.5,0.4-1.3,0.4-2.4V139.9z"/>
		<path fill="#E6DAA6" d="M501.3,147.1v-14.2h2.2v2c0.4-0.7,1-1.3,1.8-1.7c0.7-0.4,1.6-0.6,2.5-0.6c1.1,0,1.9,0.2,2.6,0.7
			c0.7,0.4,1.2,1.1,1.4,1.8c1.1-1.7,2.6-2.5,4.4-2.5c1.4,0,2.5,0.4,3.3,1.2c0.8,0.8,1.1,2,1.1,3.6v9.8h-2.4v-9c0-1-0.1-1.7-0.2-2.1
			c-0.2-0.4-0.4-0.8-0.9-1c-0.4-0.3-0.9-0.4-1.4-0.4c-1,0-1.8,0.3-2.5,1c-0.7,0.7-1,1.7-1,3.2v8.3h-2.4v-9.3c0-1.1-0.2-1.9-0.6-2.4
			c-0.4-0.5-1-0.8-1.9-0.8c-0.7,0-1.3,0.2-1.9,0.5c-0.6,0.4-1,0.9-1.3,1.6c-0.3,0.7-0.4,1.7-0.4,3v7.4H501.3z"/>
		<path fill="#E6DAA6" d="M533.9,142.5l2.5,0.3c-0.4,1.5-1.1,2.6-2.2,3.4c-1.1,0.8-2.4,1.2-4.1,1.2c-2.1,0-3.7-0.6-5-1.9
			c-1.2-1.3-1.8-3.1-1.8-5.4c0-2.4,0.6-4.3,1.9-5.6c1.2-1.3,2.8-2,4.8-2c1.9,0,3.5,0.6,4.7,1.9c1.2,1.3,1.8,3.1,1.8,5.5
			c0,0.1,0,0.4,0,0.6h-10.6c0.1,1.6,0.5,2.8,1.3,3.6c0.8,0.8,1.8,1.2,3,1.2c0.9,0,1.6-0.2,2.3-0.7
			C533,144.2,533.5,143.5,533.9,142.5z M526,138.6h8c-0.1-1.2-0.4-2.1-0.9-2.7c-0.8-0.9-1.8-1.4-3-1.4c-1.1,0-2,0.4-2.8,1.1
			C526.5,136.3,526,137.3,526,138.6z"/>
		<path fill="#E6DAA6" d="M539.4,147.1v-14.2h2.2v2c0.4-0.7,1-1.3,1.8-1.7c0.7-0.4,1.6-0.6,2.5-0.6c1.1,0,1.9,0.2,2.6,0.7
			c0.7,0.4,1.2,1.1,1.4,1.8c1.1-1.7,2.6-2.5,4.4-2.5c1.4,0,2.5,0.4,3.3,1.2c0.8,0.8,1.1,2,1.1,3.6v9.8h-2.4v-9c0-1-0.1-1.7-0.2-2.1
			c-0.2-0.4-0.4-0.8-0.9-1c-0.4-0.3-0.9-0.4-1.4-0.4c-1,0-1.8,0.3-2.5,1c-0.7,0.7-1,1.7-1,3.2v8.3h-2.4v-9.3c0-1.1-0.2-1.9-0.6-2.4
			c-0.4-0.5-1-0.8-1.9-0.8c-0.7,0-1.3,0.2-1.9,0.5c-0.6,0.4-1,0.9-1.3,1.6c-0.3,0.7-0.4,1.7-0.4,3v7.4H539.4z"/>
		<path fill="#E6DAA6" d="M564.5,147.1h-2.2v-19.7h2.4v7c1-1.3,2.3-1.9,3.9-1.9c0.9,0,1.7,0.2,2.5,0.5c0.8,0.4,1.4,0.8,1.9,1.5
			c0.5,0.6,0.9,1.4,1.2,2.3c0.3,0.9,0.4,1.9,0.4,2.9c0,2.4-0.6,4.3-1.8,5.7c-1.2,1.3-2.7,2-4.3,2c-1.7,0-3-0.7-4-2.1V147.1z
			 M564.5,139.8c0,1.7,0.2,2.9,0.7,3.7c0.8,1.2,1.8,1.9,3.1,1.9c1.1,0,2-0.5,2.7-1.4c0.8-0.9,1.2-2.3,1.2-4.1c0-1.9-0.4-3.2-1.1-4.1
			c-0.7-0.9-1.6-1.3-2.7-1.3c-1.1,0-2,0.5-2.7,1.4C564.9,136.8,564.5,138.1,564.5,139.8z"/>
		<path fill="#E6DAA6" d="M587.3,142.5l2.5,0.3c-0.4,1.5-1.1,2.6-2.2,3.4c-1.1,0.8-2.4,1.2-4.1,1.2c-2.1,0-3.7-0.6-5-1.9
			c-1.2-1.3-1.8-3.1-1.8-5.4c0-2.4,0.6-4.3,1.8-5.6c1.2-1.3,2.8-2,4.8-2c1.9,0,3.5,0.6,4.7,1.9c1.2,1.3,1.8,3.1,1.8,5.5
			c0,0.1,0,0.4,0,0.6h-10.6c0.1,1.6,0.5,2.8,1.3,3.6c0.8,0.8,1.8,1.2,3,1.2c0.9,0,1.6-0.2,2.3-0.7
			C586.4,144.2,586.9,143.5,587.3,142.5z M579.4,138.6h8c-0.1-1.2-0.4-2.1-0.9-2.7c-0.8-0.9-1.8-1.4-3-1.4c-1.1,0-2,0.4-2.8,1.1
			C579.9,136.3,579.5,137.3,579.4,138.6z"/>
		<path fill="#E6DAA6" d="M592.8,147.1v-14.2h2.2v2.2c0.6-1,1.1-1.7,1.5-2c0.5-0.3,1-0.5,1.5-0.5c0.8,0,1.6,0.3,2.5,0.8l-0.8,2.2
			c-0.6-0.3-1.2-0.5-1.8-0.5c-0.5,0-1,0.2-1.4,0.5c-0.4,0.3-0.7,0.8-0.9,1.3c-0.3,0.9-0.4,1.8-0.4,2.8v7.5H592.8z"/>
		<path fill="#E6DAA6" d="M608.7,140c0-2.6,0.7-4.6,2.2-5.9c1.2-1.1,2.7-1.6,4.5-1.6c2,0,3.6,0.6,4.8,1.9c1.2,1.3,1.9,3.1,1.9,5.3
			c0,1.8-0.3,3.3-0.8,4.3c-0.5,1.1-1.3,1.9-2.4,2.4c-1.1,0.6-2.2,0.9-3.4,0.9c-2,0-3.6-0.6-4.8-1.9
			C609.3,144.2,608.7,142.4,608.7,140z M611.2,140c0,1.8,0.4,3.2,1.2,4.1c0.8,0.9,1.8,1.4,3,1.4c1.2,0,2.2-0.5,3-1.4
			c0.8-0.9,1.2-2.3,1.2-4.2c0-1.8-0.4-3.1-1.2-4c-0.8-0.9-1.8-1.4-3-1.4c-1.2,0-2.2,0.5-3,1.4C611.6,136.8,611.2,138.1,611.2,140z"
			/>
		<path fill="#E6DAA6" d="M625.5,147.1v-12.4h-2.1v-1.9h2.1v-1.5c0-1,0.1-1.7,0.3-2.1c0.2-0.6,0.6-1.1,1.2-1.5
			c0.6-0.4,1.4-0.6,2.5-0.6c0.7,0,1.4,0.1,2.3,0.2l-0.4,2.1c-0.5-0.1-1-0.1-1.4-0.1c-0.7,0-1.3,0.2-1.6,0.5
			c-0.3,0.3-0.5,0.9-0.5,1.8v1.3h2.8v1.9h-2.8v12.4H625.5z"/>
	</g>
</g>
<g>
	<path fill="#FFFFFF" d="M183.2,97.1l6,1.4c0.1,0,1.3,0.3,2.7,0.3l-37.4,12.7l0.1,0.5c4.2,16.8,2.9,30.7-4.1,41.5
		c-10,15.6-28.5,19.1-28.6,19.1l-0.5,0.1v0.5c0,20.8,4.1,40.6,12.3,58.9c6.6,14.8,15.8,28.7,27.4,41.4
		c18.6,20.2,38.1,31.4,43.8,34.4v0.8l0.6-0.5l0.6,0.4v-0.8c5.7-3,25.2-14.1,43.9-34.4c11.6-12.6,20.8-26.5,27.4-41.3
		c8.1-18.3,12.3-38.1,12.3-58.9v-0.5l-0.4-0.1c-0.2,0-19.7-4.1-29.7-20.5c-6.6-10.9-7.6-24.6-3-40.9l0.1-0.5l-36.9-11.9
		c1.2-0.1,2.1-0.3,2.2-0.3l6.1-1.4l-0.3-0.2l32.7,10.3c-15.8,54.9,33.7,63.1,33.7,63.1c0,96-84.9,140.2-88.5,142.1v0.1
		c0,0,0,0-0.1,0c0,0-0.1,0-0.1,0v-0.1c-3.6-1.9-88.5-46.1-88.5-142.1c0,0,49.4-7.7,33.5-62.6L183.2,97.1L183.2,97.1z M195.3,99.2
		c0.4,0.1,0.9,0.2,1.6,0.2c0.5,0,1-0.1,1.4-0.2c-0.3,1.7-1.1,3.8-2.6,6.2l-3.2,5.2l4.6-0.7c0,0.4-0.1,0.8-0.1,1.3l-0.2,5.9l4.7-3.5
		c0.3,1.7,0.8,3.6,1.6,5.5l2.6,6.3l2.6-6.3c0.8-1.9,1.3-3.8,1.6-5.5l4.7,3.5l-0.2-5.9c0-0.4,0-0.9-0.1-1.3l4.6,0.7l-3.2-5.2
		c-1.5-2.4-2.2-4.5-2.6-6.2c0.5,0.1,1,0.2,1.4,0.2c0.8,0,1.5-0.1,1.9-0.3l38.8,12.5c-4.5,16.3-3.3,30.2,3.4,41.2
		c9.2,15.1,26.4,20.1,29.9,21c-0.1,20.3-4.2,39.7-12.1,57.6c-6.5,14.7-15.7,28.4-27.2,40.9c-18.4,20-37.7,31-43.4,34.1
		c-5.7-3-25-14-43.4-34c-11.5-12.5-20.7-26.3-27.2-41c-8-17.9-12.1-37.3-12.2-57.6c3.4-0.8,19.6-5.3,28.9-19.6
		c7.1-11,8.6-25.1,4.5-41.9L195.3,99.2L195.3,99.2z M178.4,88.9c-3.9-0.4-8.9-5.8-8.9-5.8c10.5-0.6,14.2-3,14.2-3
		c-4.3,1.4-14,0.5-14,0.5c-3.8-2-6-7.3-6-7.3c7.7,1.7,17,0.6,17,0.6c-6.1-0.1-16.2-3.5-16.2-3.5c-3.5-2.7-4.8-10.5-4.8-10.5
		c11.2,8.2,31.4,11.4,31.4,11.4c1.2,5.9,5.2,8.6,8.7,9.9c0.7-2.6,3-10.3,4.2-11c1.3-0.8,3.2-1.1,4.7-0.1c0,0,3.7,0,3.2,3.5
		c0,0-1.4-0.9-2.7-0.3c0,0,0.3,5,2.4,7.8c3.4-1.3,7.3-4,8.5-9.8c0,0,20.2-3.3,31.4-11.4c0,0-1.3,7.8-4.8,10.5c0,0-10,3.3-16.2,3.5
		c0,0,9.4,1.1,17-0.6c0,0-2.2,5.3-6,7.3c0,0-9.6,0.9-14-0.5c0,0,3.7,2.4,14.2,3c0,0-5,5.4-8.9,5.8c0,0-5.9-1.1-10.2-4.1
		c0,0,0.8,1.2,2.2,2.6c1.4,1.4,3.3,3.1,5.7,4.1c0,0-5.5,2.5-8.8,1.7c0,0-2.1-1.3-3.9-3.3c0,0,0.8,2.5,2.3,4.4c0.4,0.5,0.8,1,1.3,1.3
		c0,0-2.9,0.7-5.1,0c0,0-1.4-1.5-2-3.2c-0.1-0.3-0.2-0.6-0.3-0.9c0,0,0,0.3,0.1,0.8c0.1,1.1,0.5,3.1,1.5,3.9c0,0-1.6,0.6-3.1-0.3
		c0,0-1.8-0.8-2.1-2.4c0,0-0.3,0.7-0.4,1.9c0,0.4-0.1,0.9-0.1,1.5c0,2.3,0.7,5.7,3.2,9.8c0,0-1.7-0.3-2.8-1.5c0,0,0.9,2.5,1.1,5.9
		c0,0-2.7-2-4-3.9c0,0,0.4,5.3-1.8,10.6c-2.2-5.3-1.8-10.6-1.8-10.6c-1.3,1.9-4,3.9-4,3.9c0.1-3.3,1.1-5.9,1.1-5.9
		c-1.1,1.2-2.8,1.5-2.8,1.5c2.5-4.1,3.2-7.4,3.2-9.7c0-0.6,0-1.1-0.1-1.5c-0.1-1.3-0.4-2-0.4-2c-0.3,1.6-2.1,2.4-2.1,2.4
		c-1.5,0.9-3.1,0.3-3.1,0.3c1-0.8,1.4-2.7,1.5-3.8c0.1-0.5,0.1-0.9,0.1-0.9c-0.1,0.3-0.2,0.7-0.3,1c-0.7,1.6-2,3.1-2,3.1
		c-2.2,0.7-5.1,0-5.1,0c0.4-0.3,0.8-0.7,1.2-1.2c1.6-1.9,2.4-4.6,2.4-4.6c-1.8,2-3.9,3.3-3.9,3.3c-3.4,0.8-8.8-1.7-8.8-1.7
		c2.4-1.1,4.4-2.7,5.7-4.1c1.4-1.5,2.2-2.6,2.2-2.6C184.3,87.8,178.4,88.9,178.4,88.9L178.4,88.9z M110.1,166.4
		c0,103.6,91.5,152.7,95.5,154.7v0.1c0,0,0,0,0.1,0c0,0,0.1,0,0.1,0v-0.1c3.9-2,95.5-51.1,95.5-154.7c0,0-51.2-5.7-34.1-64.9
		l-29.6-9.9l0.1,0l-1.5-0.7c3.8-1.6,7.1-5.1,7.9-5.9l4.1-4.4l-1.8-0.1c2.4-2.6,3.8-5.7,4-6.1l2-5l-1.2,0.3c2.3-3.7,3.2-8.6,3.3-9.3
		l1.1-6.8l-5.5,4c-10.5,7.7-30,10.9-30.2,10.9l-1.9,0.3l-0.4,1.9c-0.5,2.2-1.4,4-2.9,5.4l0.3-2.1c0.3-2.3-0.5-3.8-1.2-4.7
		c-1.2-1.4-2.9-1.8-3.9-2c-0.9-0.5-2-0.7-3-0.7c-1.4,0-2.7,0.4-4,1.1c-0.9,0.5-1.9,1.1-4.4,9.4c-2.2-1.5-3.6-3.7-4.2-6.4l-0.4-1.9
		l-1.9-0.3c-0.2,0-19.7-3.3-30.2-10.9l-5.5-4l1.1,6.8c0.1,0.7,1,5.6,3.3,9.3l-1.2-0.3l2,5c0.2,0.5,1.5,3.6,4,6.1l-1.8,0.1l4.1,4.4
		c0.8,0.8,4.1,4.3,7.9,5.9l-1.5,0.7l0.1,0l-29.6,9.9C161.3,160.7,110.1,166.4,110.1,166.4L110.1,166.4z"/>
	<path fill="#FFFFFF" d="M258.8,334.5c0.2,0.2,0.4,0.3,0.4,0.3l0,0c0.2-0.3,0.4-0.5,0.6-0.8c0.4-0.5,0.6-1,0.8-1.5
		c1.2-2.9-0.2-5.5-1.3-7c-0.6-0.8-1.2-1.3-1.2-1.3c-0.1,0.1-0.1,0.1-0.1,0.2c-0.3,0.4-0.6,0.8-0.9,1.1c-0.4,0.5-0.6,1.1-0.8,1.6
		c-0.9,2.5,0,4.5,1.1,5.9C258,333.7,258.5,334.2,258.8,334.5L258.8,334.5z"/>
	<path fill="#FFFFFF" d="M251.7,331.7c0.2,0.2,0.4,0.3,0.4,0.3c0.2-0.3,0.4-0.5,0.6-0.8c0.4-0.5,0.6-1,0.8-1.5
		c1.2-2.9-0.2-5.5-1.3-7c-0.6-0.8-1.2-1.3-1.2-1.3l0,0c-0.1,0.1-0.1,0.1-0.1,0.2c-0.3,0.4-0.7,0.8-0.9,1.1c-0.4,0.5-0.6,1.1-0.8,1.6
		c-0.9,2.4,0,4.5,1.1,5.9C250.8,330.9,251.4,331.4,251.7,331.7L251.7,331.7z"/>
	<path fill="#FFFFFF" d="M244.3,330c0.2,0.2,0.4,0.3,0.4,0.3c0.2-0.3,0.4-0.5,0.6-0.8c0.4-0.5,0.6-1,0.8-1.5c1.2-2.9-0.2-5.5-1.3-7
		c-0.6-0.8-1.2-1.3-1.2-1.3c-0.1,0.1-0.1,0.1-0.1,0.2c-0.3,0.4-0.7,0.8-0.9,1.1c-0.4,0.5-0.6,1-0.8,1.6c-0.9,2.4,0,4.5,1.1,5.9
		C243.4,329.2,243.9,329.7,244.3,330L244.3,330z"/>
	<path fill="#FFFFFF" d="M261.7,320.6c0.4-0.1,0.7-0.2,1.1-0.3c0.4-0.1,0.7-0.2,1-0.4c0.3-0.1,0.7-0.3,1-0.4
		c0.3-0.2,0.6-0.3,0.9-0.5c0.3-0.2,0.6-0.4,0.9-0.5c0.4-0.3,0.7-0.5,0.8-0.6c0.1-0.1,0.1-0.1,0.1-0.1v0c-0.1,0-0.2-0.1-0.3-0.1
		c-0.6-0.2-1.2-0.4-1.8-0.5c-0.5-0.1-1-0.2-1.5-0.2c-0.5,0-0.9-0.1-1.4,0c-0.4,0-0.9,0-1.3,0.1c-0.4,0-0.8,0.1-1.2,0.2
		c-0.4,0.1-0.8,0.2-1.1,0.2c-0.4,0.1-0.7,0.2-1.1,0.3c-0.4,0.1-0.7,0.2-1,0.4c-0.3,0.1-0.7,0.3-1,0.4c-0.3,0.2-0.6,0.3-0.9,0.5
		c-0.3,0.2-0.6,0.4-0.9,0.5c-0.5,0.3-0.7,0.5-0.7,0.5c0.6,0.2,1.1,0.4,1.7,0.6c0.6,0.2,1.1,0.3,1.6,0.3c0.5,0.1,1,0.1,1.5,0.1
		c0.4,0,0.9,0,1.3,0c0.4,0,0.8-0.1,1.2-0.1C260.9,320.8,261.3,320.7,261.7,320.6L261.7,320.6z"/>
	<path fill="#FFFFFF" d="M271.6,330.6c0.4,0.1,0.8,0.2,1.2,0.3c0.4,0.1,0.8,0.1,1.1,0.1c0.4,0,0.8,0,1.1,0c0.4,0,0.8,0,1.1,0
		c0.4,0,0.8-0.1,1.1-0.1c0.4-0.1,0.8-0.1,1.1-0.2c0.6-0.1,0.9-0.2,0.9-0.2c-0.3-0.4-0.7-0.7-1.1-1c-0.4-0.3-0.8-0.5-1.2-0.8
		c-0.4-0.2-0.8-0.4-1.2-0.5c-0.4-0.1-0.8-0.3-1.2-0.3c-0.4-0.1-0.8-0.2-1.2-0.2c-0.4-0.1-0.8-0.1-1.1-0.1c-0.4,0-0.8,0-1.1,0
		c-0.4,0-0.8,0-1.1,0c-0.4,0-0.8,0.1-1.1,0.1c-0.4,0-0.8,0.1-1.1,0.2c-0.4,0.1-0.7,0.1-0.7,0.1c0.3,0.3,0.6,0.6,0.9,0.8
		c0.4,0.3,0.8,0.6,1.3,0.9c0.4,0.2,0.8,0.4,1.2,0.6C270.8,330.4,271.2,330.5,271.6,330.6L271.6,330.6z"/>
	<path fill="#FFFFFF" d="M272.7,336.7c0.4,0.3,0.8,0.6,1.3,0.8c0.4,0.2,0.8,0.4,1.2,0.6c0.4,0.2,0.8,0.3,1.2,0.4
		c0.4,0.1,0.8,0.2,1.2,0.3c0.4,0.1,0.8,0.1,1.1,0.2c0.6,0.1,1,0.1,1,0.1c-0.2-1.1-0.8-2-1.5-2.8c-0.4-0.4-0.8-0.8-1.3-1.1
		c-0.4-0.3-0.8-0.5-1.2-0.7c-0.4-0.2-0.8-0.4-1.2-0.5c-0.4-0.2-0.8-0.3-1.2-0.4c-0.4-0.1-0.8-0.2-1.2-0.3c-0.5-0.1-0.9-0.2-1.1-0.2
		c-0.3,0-0.5-0.1-0.5-0.1l0,0c0.2,0.9,0.5,1.7,1,2.3C271.7,335.8,272.2,336.3,272.7,336.7L272.7,336.7z"/>
	<path fill="#FFFFFF" d="M274.4,353.5c0.1-0.1,0.1-0.2,0.2-0.3c0.4-0.7,0.7-1.4,0.7-2c0.1-1-0.1-1.9-0.5-2.7c-0.4-0.8-1-1.5-1.5-2
		c-0.6-0.6-1.1-1-1.2-1l0,0c0,0.1-0.1,0.1-0.1,0.2c-0.3,0.5-0.6,0.9-0.7,1.4c0.2-0.8,0.4-1.6,0.6-2.4c0.1-0.8,0.2-1.7,0.3-2.5
		c0.2,0.3,0.3,0.5,0.5,0.8c0.4,0.5,0.8,0.9,1.3,1.2c0.4,0.3,0.8,0.5,1.2,0.7c0.4,0.2,0.8,0.3,1.2,0.5c0.4,0.1,0.8,0.2,1.2,0.3
		c0.5,0.1,0.9,0.2,1.1,0.2c0.1,0,0.2,0,0.2,0v0c0-0.7-0.2-1.3-0.5-1.9c-0.4-0.7-0.9-1.3-1.4-1.8c-0.4-0.3-0.8-0.6-1.3-0.9
		c-0.4-0.2-0.8-0.4-1.2-0.6c-0.4-0.2-0.8-0.3-1.2-0.4c-0.5-0.2-0.9-0.3-1.2-0.3l0,0c0-0.3-0.1-0.6-0.1-0.9c0-0.2-0.1-0.4-0.1-0.6
		c0-0.1-0.1-0.3-0.1-0.4c-0.4-2-1.1-3.9-2.1-5.6c-0.5-0.8-1-1.5-1.5-2.3c-0.4-0.6-0.9-1.1-1.4-1.7c-0.4-0.5-0.9-0.9-1.4-1.3
		c-0.4-0.4-0.9-0.8-1.3-1.1c-0.4-0.3-0.8-0.7-1.3-1c-0.4-0.3-0.8-0.6-1.3-0.8c-0.4-0.3-0.8-0.5-1.3-0.8c-0.4-0.2-0.8-0.5-1.2-0.7
		c-0.4-0.2-0.8-0.4-1.2-0.6c-0.4-0.2-0.8-0.4-1.2-0.6c-0.4-0.2-0.8-0.3-1.2-0.5c-0.4-0.2-0.8-0.3-1.2-0.5c-0.4-0.1-0.8-0.3-1.2-0.4
		c-0.4-0.1-0.8-0.3-1.2-0.4c-0.4-0.1-0.8-0.2-1.2-0.3c-0.4-0.1-0.8-0.2-1.2-0.3c-0.4-0.1-0.8-0.2-1.2-0.3c-0.4-0.1-0.8-0.2-1.2-0.2
		c-0.1,0-0.2,0-0.2,0c1.1-0.1,2.2-0.2,3.2-0.4c1.2-0.2,2.5-0.3,3.7-0.5c1.2-0.2,2.5-0.4,3.7-0.7c1.2-0.3,2.5-0.5,3.7-0.8
		c1.2-0.3,2.5-0.6,3.7-1c1.2-0.3,2.5-0.7,3.7-1.1c1.2-0.4,2.5-0.8,3.7-1.2c1.3-0.4,2.5-0.9,3.7-1.4c1.3-0.5,2.5-1,3.7-1.6
		c1.3-0.6,2.5-1.1,3.7-1.7c1.3-0.6,2.5-1.3,3.7-1.9c1.3-0.7,2.5-1.4,3.7-2.1c1.3-0.8,2.5-1.5,3.7-2.3c1.3-0.8,2.5-1.7,3.8-2.6
		c1.3-0.9,2.5-1.9,3.8-2.8c1.3-1,2.5-2.1,3.8-3.1c1.3-1.1,2.5-2.3,3.8-3.5c1.3-1.3,2.6-2.5,3.8-3.9c1.3-1.4,2.6-2.8,3.8-4.3
		c1.3-1.6,2.6-3.2,3.8-4.9c1.3-1.8,2.6-3.7,3.9-5.6c1.4-2.1,2.7-4.4,3.9-6.6c1.4-2.7,2.7-5.4,3.9-8.2c1.5-3.6,2.9-7.2,4-11
		c2.5-8.1,4-16.5,4.4-25.3c0.1-1,0.1-1.9,0.1-2.9c0-0.6,0-1.2,0-1.9c0-2.2,0-4.3-0.1-6.4c0.3-0.1,0.8-0.3,1.4-0.6
		c1-0.4,2.3-1.1,3.7-1.9c1.2-0.7,2.4-1.5,3.7-2.5c1.3-0.9,2.5-2,3.8-3.2c1.3-1.3,2.6-2.8,3.8-4.5c1.7-2.4,3.1-5.3,3.9-8.5
		c0.7-2.6,1-5.6,0.8-8.8c0,0-0.2,0-0.6,0.2c-0.7,0.2-2,0.6-3.7,1.4c-1.1,0.5-2.4,1.1-3.7,1.9c-1.2,0.7-2.5,1.6-3.8,2.6
		c-1.3,1-2.6,2.3-3.8,3.7c-1.5,1.7-2.8,3.7-3.9,6c-1.1,2.4-1.9,5.1-2.2,8.2c-0.5-4.6-1.3-9.1-2.3-13.5c-0.9-3.9-2-7.6-3.3-11.3
		c-1-2.9-2.2-5.7-3.4-8.5c-1.1-2.4-2.2-4.7-3.5-7c-1.1-2-2.3-4-3.5-6c-1.1-1.8-2.3-3.6-3.5-5.3c-1.1-1.6-2.3-3.2-3.5-4.7
		c-1.1-1.5-2.3-2.9-3.5-4.3c-1.2-1.3-2.3-2.6-3.6-3.9c-1.2-1.2-2.3-2.4-3.6-3.6c-1.2-1.1-2.4-2.2-3.6-3.3c-1.2-1-2.4-2-3.6-3
		c-0.7-0.5-1.3-1.1-2-1.6c0.7,0.5,1.3,1.1,2,1.7c1.2,1,2.4,2.1,3.6,3.2c1.2,1.1,2.4,2.3,3.6,3.4c1.2,1.2,2.4,2.5,3.6,3.8
		c1.2,1.4,2.4,2.7,3.5,4.2c1.2,1.5,2.4,3,3.5,4.6c1.2,1.7,2.4,3.4,3.5,5.1c1.2,1.9,2.4,3.9,3.5,5.8c1.2,2.2,2.4,4.5,3.5,6.8
		c1.2,2.7,2.4,5.4,3.4,8.2c1.3,3.5,2.4,7.1,3.4,10.7c0.7,2.5,1.2,5.1,1.7,7.7c0,0,0,0,0,0c-0.8-1.7-2-3.9-3.5-6
		c-1-1.4-2.2-2.9-3.6-4.2c-1.1-1.1-2.3-2.1-3.6-3.1c-1.1-0.8-2.3-1.6-3.6-2.2c-1.1-0.6-2.3-1.1-3.6-1.5c-1.2-0.4-2.4-0.7-3.7-1
		c-1.2-0.2-2.4-0.4-3.7-0.5c-0.4,0-0.7,0-1.1-0.1l0,0c0,0,0.2,1.4,1,3.5c0.7,1.9,1.8,4.4,3.5,7c1,1.5,2.1,3,3.6,4.4
		c1.1,1.1,2.3,2.1,3.6,3c1.1,0.8,2.3,1.5,3.6,2.1c1.1,0.5,2.3,1,3.6,1.4c1.2,0.4,2.4,0.7,3.7,0.9c1.2,0.2,2.4,0.4,3.7,0.4
		c0.3,0,0.5,0,0.8,0c0.3,2.2,0.6,4.4,0.8,6.7c0.3,3.6,0.4,7.2,0.4,10.9c-0.1,3.3-0.2,6.6-0.6,9.8c-0.2-2.7-0.8-7-2.7-11.6
		c-0.9-2.2-2-4.4-3.5-6.5c-1-1.5-2.2-2.9-3.6-4.2c-1.1-1.1-2.3-2.1-3.6-3c-1.1-0.8-2.3-1.5-3.6-2.2c-1.1-0.6-2.4-1.1-3.6-1.6
		c-0.2-0.1-0.4-0.2-0.6-0.2c0,0-0.6,3.9,0.4,9c0.5,2.9,1.5,6.3,3.4,9.6c0.9,1.7,2.1,3.3,3.5,4.9c1,1.2,2.2,2.3,3.6,3.3
		c1.1,0.8,2.3,1.7,3.6,2.4c1.1,0.6,2.3,1.2,3.6,1.8c0.9,0.4,1.8,0.7,2.8,1.1c-0.1,0.7-0.2,1.5-0.3,2.2c-0.9,6.4-2.3,12.5-4.2,18.3
		c-0.4,1.3-0.9,2.7-1.4,4c0.2-2.9,0.2-6.3-0.4-9.9c-0.6-3.3-1.6-6.8-3.4-10.2c-1-1.8-2.1-3.6-3.5-5.3c-1-1.3-2.2-2.5-3.6-3.7
		c-1.1-1-2.3-1.9-3.6-2.8c-0.2-0.1-0.4-0.3-0.6-0.4l0,0c0,0-5.3,12.2-0.2,25c0.9,2.1,2,4.2,3.5,6.3c1,1.4,2.2,2.8,3.6,4.2
		c1.1,1.1,2.3,2.1,3.6,3.1c0.5,0.4,1,0.8,1.6,1.2c-1.1,2.3-2.2,4.6-3.5,6.8c-1.2,2.2-2.5,4.3-3.9,6.4c-1.2,1.9-2.5,3.7-3.8,5.4
		c-1.2,1.6-2.5,3.2-3.8,4.7c-1.2,1.4-2.5,2.8-3.8,4.2c-1.2,1.3-2.5,2.5-3.8,3.8c-1.2,1.2-2.5,2.3-3.8,3.4c-1.2,1-2.5,2.1-3.8,3
		c-1.2,1-2.5,1.9-3.8,2.8c-1.2,0.9-2.5,1.7-3.7,2.5c-0.7,0.4-1.4,0.9-2.1,1.3c0.4-0.5,2-2.6,3.8-5.8c3.7-6.8,8.2-18.7,4-31.6
		c-0.7-2.2-1.7-4.3-2.9-6.5c-0.6-1.1-1.4-2.3-2.2-3.4c0,0-0.5,0.5-1.3,1.4c-1.1,1.4-2.9,3.6-4.5,6.7c-3.5,6.3-6.6,15.8-3.4,26.8
		c0.7,2.3,1.6,4.6,2.8,7c0.9,1.7,1.9,3.3,3.1,5c0.2,0.2,0.3,0.4,0.5,0.7c-0.5,0.3-1,0.6-1.6,0.9c-1.2,0.7-2.5,1.4-3.7,2.1
		c-1.2,0.6-2.5,1.3-3.7,1.9c-1.2,0.6-2.5,1.1-3.7,1.7c-1.2,0.5-2.5,1-3.7,1.5c-1.2,0.5-2.5,0.9-3.7,1.4c-1.2,0.4-2.5,0.8-3.7,1.2
		c-1.2,0.4-2.5,0.7-3.7,1.1c-1.2,0.3-2.5,0.6-3.7,0.9c-1.2,0.3-2.5,0.5-3.7,0.8c-1.2,0.2-2.5,0.4-3.7,0.6c-1.2,0.2-2.5,0.4-3.7,0.5
		c-1.2,0.1-2.5,0.3-3.7,0.4c-1.2,0.1-2.5,0.2-3.7,0.2c-0.2,0-0.4,0-0.7,0c-0.1,0-4.4,0.1-4.4,0.1H234c-0.7,0-1.4,0-2.1,0
		c-0.3,0-0.6,0-1,0l-0.1,1.5c0.3,0,0.6,0,1,0c1.2,0,2.5,0,3.7,0c1.2,0,2.5,0,3.7-0.1c0.3,0,0.6,0,0.9,0c0.2,0,0.4,0,0.6,0.1
		c0.4,0,0.8,0.1,1.1,0.1c0.4,0,0.8,0.1,1.1,0.2c0.4,0.1,0.8,0.1,1.1,0.2c0.4,0.1,0.8,0.1,1.1,0.2c0.4,0.1,0.8,0.2,1.2,0.2
		c0.4,0.1,0.8,0.2,1.2,0.3c0.4,0.1,0.8,0.2,1.2,0.3c0.4,0.1,0.8,0.2,1.2,0.3c0.4,0.1,0.8,0.2,1.2,0.3c0.4,0.1,0.8,0.3,1.2,0.4
		c0.4,0.1,0.8,0.3,1.2,0.4c0.4,0.1,0.8,0.3,1.2,0.5c0.4,0.2,0.8,0.3,1.2,0.5c0.4,0.2,0.8,0.4,1.2,0.5c0.4,0.2,0.8,0.4,1.2,0.6
		c0.4,0.2,0.8,0.4,1.2,0.7c0.4,0.2,0.8,0.5,1.2,0.7c0.4,0.3,0.9,0.5,1.3,0.8c0.4,0.3,0.9,0.6,1.3,0.9c0.5,0.3,0.9,0.7,1.3,1.1
		c0.5,0.4,0.9,0.8,1.3,1.2c0.5,0.5,1,1,1.4,1.5c0.5,0.6,1,1.3,1.5,2c0.7,1.1,1.3,2.3,1.8,3.6c0.3,0.8,0.5,1.7,0.7,2.5
		c0.2,0.9,0.2,1.7,0.3,2.6c0,0.4,0,0.7,0,1.1c-0.3,0-0.6,0.1-0.9,0.2c-0.4,0.1-0.7,0.2-1.1,0.3c-0.4,0.1-0.7,0.3-1,0.4
		c-0.4,0.2-0.7,0.4-1,0.6c-0.4,0.2-0.7,0.5-1,0.8c-0.4,0.3-0.7,0.7-0.9,1c-0.4,0.6-0.7,1.2-0.8,1.6c-0.2,0.5-0.2,0.8-0.2,0.8l0,0
		c0.1,0,0.2,0,0.3-0.1c0.4-0.1,0.7-0.1,1.1-0.2c0.4-0.1,0.7-0.2,1.1-0.3c0.4-0.1,0.7-0.3,1-0.4c0.4-0.2,0.7-0.4,1-0.6
		c0.4-0.2,0.7-0.5,1-0.8c0.4-0.3,0.7-0.7,0.9-1c0.1-0.2,0.3-0.4,0.4-0.5c-0.1,0.4-0.1,0.8-0.2,1.3c-0.2,0.8-0.4,1.6-0.7,2.4
		c-0.2,0.6-0.5,1.3-0.8,1.9c-0.2,0.5-0.5,1-0.8,1.5c-0.1,0.1-0.1,0.2-0.2,0.3c-0.1-0.1-0.2-0.2-0.2-0.2l0,0
		c-0.2,0.3-0.4,0.6-0.5,0.9c-0.1,0.3-0.2,0.6-0.3,0.9c-0.1,0.2-0.3,0.4-0.5,0.6c-0.3,0.4-0.6,0.7-0.9,1.1c-0.1,0.1-0.2,0.2-0.3,0.3
		c-0.3,0-0.6-0.1-0.9-0.1c-0.4,0-0.8,0-1.1,0c-0.4,0-0.7,0.1-1.1,0.1c-0.4,0.1-0.7,0.2-1.1,0.3c-0.4,0.1-0.7,0.3-1,0.4
		c-0.4,0.2-0.7,0.4-1,0.6c-0.4,0.3-0.7,0.6-1,0.8c-0.5,0.5-0.7,0.9-0.7,0.9l0,0l0,0c0.3,0,0.6,0.1,0.9,0.1c0.4,0,0.8,0,1.1,0
		c0.4,0,0.7-0.1,1.1-0.1c0.4-0.1,0.7-0.2,1.1-0.3c0.4-0.1,0.7-0.3,1-0.4c0.1-0.1,0.3-0.1,0.4-0.2c-0.1,0.1-0.2,0.2-0.3,0.3
		c-0.3,0.3-0.6,0.5-1,0.8c-0.2,0.1-0.4,0.3-0.5,0.4c0.2-0.1,0.4-0.3,0.5-0.4c0.3-0.2,0.7-0.5,1-0.8c0.2-0.2,0.4-0.3,0.6-0.5
		c0.1-0.1,0.2-0.1,0.3-0.2c0.4-0.2,0.7-0.5,1-0.7c0.5-0.4,0.8-0.7,0.9-0.9c0.1-0.1,0.2-0.2,0.2-0.2c-0.1,0-0.1,0-0.2,0l-0.1,0
		c0,0,0.1-0.1,0.1-0.1c0.3-0.3,0.6-0.7,0.9-1c0.1-0.1,0.2-0.3,0.3-0.4c-0.1,1.3,0.5,2.4,1.2,3.1c0.5,0.5,1,0.9,1.3,1.1
		c0.1,0.1,0.2,0.1,0.2,0.1c0.3-0.5,0.5-0.9,0.7-1.4c0.3-1.3,0-2.4-0.6-3.2c-0.4-0.7-1-1.2-1.4-1.6l0,0c0,0,0-0.1,0-0.1
		c0.3-0.5,0.6-0.9,0.8-1.4c0.3-0.5,0.6-1.1,0.8-1.6c0.3-0.6,0.5-1.1,0.7-1.7c-0.5,1.6,0.1,3,0.8,4c0.4,0.6,0.9,1.1,1.4,1.4
		C274,353.3,274.4,353.5,274.4,353.5L274.4,353.5L274.4,353.5z"/>
	<path fill="#FFFFFF" d="M264,362c0.4-0.2,0.7-0.5,1-0.7c0.4-0.4,0.7-0.8,0.9-1.2c0.6-1.2,0.5-2.4,0.5-2.4c-0.3,0.1-0.6,0.2-0.8,0.3
		c-0.4,0.2-0.7,0.3-1,0.5c-0.4,0.3-0.7,0.5-1,0.8c-0.5,0.5-0.7,1-0.8,1.5c-0.2,0.9,0,1.7,0,1.7c0.1,0,0.2-0.1,0.3-0.1
		C263.4,362.4,263.7,362.2,264,362L264,362z"/>
	<path fill="#FFFFFF" d="M265.5,329.6L265.5,329.6c-0.3,0.2-0.6,0.4-0.9,0.6c-0.4,0.3-0.7,0.5-1,0.8c-0.4,0.3-0.7,0.7-0.9,1
		c-0.4,0.5-0.6,1-0.8,1.5c-1.1,2.9,0.8,5.5,0.8,5.5c0.1,0,0.1-0.1,0.2-0.1c0.4-0.2,0.7-0.5,1-0.7c0.4-0.3,0.7-0.6,0.9-0.9
		c0.4-0.4,0.7-0.8,0.9-1.3c0.4-0.8,0.6-1.6,0.7-2.3c0.1-1.6-0.4-2.9-0.7-3.6C265.6,329.8,265.5,329.6,265.5,329.6L265.5,329.6z"/>
	<path fill="#FFFFFF" d="M265.2,339.6c-0.4,0.8-0.6,1.5-0.7,2.2c-0.1,1.2,0.2,2,0.2,2c0.1,0,0.1,0,0.2-0.1c0.4-0.1,0.7-0.3,1-0.4
		c0.4-0.2,0.7-0.4,1-0.6c0.4-0.2,0.7-0.5,1-0.7c0.4-0.3,0.7-0.7,0.9-1c0.4-0.5,0.6-1,0.8-1.5c0.7-1.7,0.4-3.2,0.4-3.2
		c-0.3,0.1-0.6,0.2-0.9,0.3c-0.4,0.2-0.7,0.3-1,0.5c-0.4,0.2-0.7,0.4-1,0.6c-0.4,0.3-0.7,0.5-1,0.8
		C265.7,338.8,265.4,339.2,265.2,339.6L265.2,339.6z"/>
	<path fill="#FFFFFF" d="M262.5,353.8c0.4,0,0.7-0.1,1.1-0.2c0.4-0.1,0.7-0.2,1.1-0.3c0.4-0.1,0.7-0.2,1-0.4c0.4-0.2,0.7-0.3,1-0.5
		c0.4-0.2,0.7-0.5,1-0.7c0.4-0.3,0.7-0.6,0.9-0.9c0.4-0.4,0.7-0.8,0.9-1.2c0.2-0.4,0.3-0.6,0.3-0.6c-0.2,0-0.3,0-0.5,0
		c-0.4,0-0.7,0-1.1,0.1c-0.4,0-0.7,0.1-1.1,0.2c-0.4,0.1-0.7,0.2-1.1,0.3c-0.4,0.1-0.7,0.3-1,0.4c-0.4,0.2-0.7,0.4-1,0.6
		c-0.4,0.2-0.7,0.5-1,0.8c-0.4,0.4-0.7,0.7-0.9,1.1c-0.5,0.8-0.7,1.4-0.7,1.4C261.9,353.8,262.2,353.8,262.5,353.8L262.5,353.8z"/>
	<path fill="#FFFFFF" d="M255.1,361.7c-0.4,0.3-0.7,0.5-1,0.8c-0.6,0.6-0.9,1.1-0.9,1.1c0.4,0.1,0.8,0.1,1.1,0.1c0.4,0,0.7,0,1.1,0
		c0.4,0,0.7-0.1,1.1-0.2c0.4-0.1,0.7-0.2,1.1-0.3c0.4-0.1,0.7-0.3,1-0.4c0.4-0.2,0.7-0.4,1-0.6c0.4-0.2,0.7-0.5,1-0.7
		c0.6-0.5,0.9-0.9,0.9-0.9c0,0,0,0,0,0l0,0c-0.4-0.1-0.8-0.1-1.1-0.1c-0.4,0-0.8,0-1.1,0c-0.4,0-0.7,0.1-1.1,0.1
		c-0.4,0.1-0.7,0.1-1.1,0.2c-0.4,0.1-0.7,0.2-1,0.4C255.7,361.3,255.4,361.5,255.1,361.7L255.1,361.7z"/>
	<path fill="#FFFFFF" d="M180.5,319.1l-0.1-1.5c-0.3,0-0.6,0-1,0c-0.7,0-1.4,0-2.1,0h-0.1c0,0-4.3-0.1-4.4-0.1c-0.2,0-0.4,0-0.7,0
		c-1.2-0.1-2.5-0.1-3.7-0.2c-1.2-0.1-2.5-0.2-3.7-0.4c-1.2-0.1-2.5-0.3-3.7-0.5c-1.2-0.2-2.5-0.4-3.7-0.6c-1.2-0.2-2.5-0.5-3.7-0.8
		c-1.2-0.3-2.5-0.6-3.7-0.9c-1.2-0.3-2.5-0.7-3.7-1.1c-1.2-0.4-2.5-0.8-3.7-1.2c-1.2-0.4-2.5-0.9-3.7-1.4c-1.3-0.5-2.5-1-3.7-1.5
		c-1.3-0.5-2.5-1.1-3.7-1.7c-1.3-0.6-2.5-1.2-3.7-1.9c-1.3-0.7-2.5-1.4-3.7-2.1c-0.5-0.3-1-0.6-1.6-0.9c0.2-0.2,0.3-0.4,0.5-0.7
		c1.2-1.7,2.2-3.4,3.1-5c1.2-2.4,2.2-4.7,2.8-7c3.2-11,0.1-20.5-3.4-26.8c-1.7-3-3.4-5.3-4.5-6.7c-0.8-0.9-1.3-1.4-1.3-1.4
		c-0.8,1.1-1.5,2.3-2.2,3.4c-1.2,2.2-2.2,4.4-2.9,6.5c-4.3,13,0.2,24.8,4,31.6c1.8,3.3,3.4,5.3,3.8,5.8c-0.7-0.4-1.4-0.8-2.1-1.3
		c-1.3-0.8-2.5-1.6-3.7-2.5c-1.3-0.9-2.5-1.8-3.8-2.8c-1.3-1-2.5-2-3.8-3c-1.3-1.1-2.5-2.2-3.8-3.4c-1.3-1.2-2.6-2.5-3.8-3.8
		c-1.3-1.4-2.6-2.8-3.8-4.2c-1.3-1.5-2.6-3.1-3.8-4.7c-1.3-1.8-2.6-3.6-3.8-5.4c-1.4-2.1-2.7-4.2-3.9-6.4c-1.2-2.2-2.4-4.5-3.5-6.8
		c0.5-0.4,1.1-0.8,1.6-1.2c1.3-1,2.5-2.1,3.6-3.1c1.4-1.4,2.5-2.8,3.6-4.2c1.5-2.1,2.6-4.2,3.5-6.3c5.2-12.8-0.2-25-0.2-25l0,0
		c-0.2,0.1-0.4,0.3-0.6,0.4c-1.3,0.9-2.5,1.9-3.6,2.8c-1.3,1.2-2.5,2.4-3.6,3.7c-1.4,1.7-2.6,3.5-3.5,5.3c-1.8,3.4-2.8,6.9-3.4,10.2
		c-0.6,3.6-0.6,7-0.4,9.9c-0.5-1.3-0.9-2.6-1.4-4c-1.9-5.8-3.3-11.9-4.2-18.3c-0.1-0.7-0.2-1.5-0.3-2.2c1-0.3,1.9-0.7,2.8-1.1
		c1.3-0.6,2.5-1.2,3.6-1.8c1.3-0.8,2.5-1.6,3.6-2.4c1.4-1,2.5-2.2,3.6-3.3c1.4-1.6,2.6-3.2,3.5-4.9c1.9-3.3,2.9-6.7,3.4-9.6
		c0.9-5.2,0.4-9,0.4-9c-0.2,0.1-0.4,0.2-0.6,0.2c-1.3,0.5-2.5,1-3.6,1.6c-1.3,0.7-2.5,1.4-3.6,2.2c-1.3,0.9-2.5,1.9-3.6,3
		c-1.4,1.3-2.6,2.8-3.6,4.2c-1.5,2.1-2.6,4.4-3.5,6.5c-1.8,4.6-2.5,8.9-2.7,11.6c-0.3-3.2-0.5-6.5-0.6-9.8
		c-0.1-3.7,0.1-7.3,0.4-10.9c0.2-2.2,0.4-4.5,0.8-6.7c0.3,0,0.5,0,0.8,0c1.3-0.1,2.5-0.2,3.7-0.4c1.3-0.2,2.5-0.5,3.7-0.9
		c1.3-0.4,2.5-0.9,3.6-1.4c1.3-0.6,2.5-1.3,3.6-2.1c1.3-0.9,2.5-1.9,3.6-3c1.4-1.4,2.6-2.9,3.6-4.4c1.7-2.6,2.8-5.1,3.5-7
		c0.7-2.1,1-3.5,1-3.5v0c-0.4,0-0.7,0-1.1,0.1c-1.3,0.1-2.5,0.3-3.7,0.5c-1.3,0.3-2.5,0.6-3.7,1c-1.3,0.4-2.5,1-3.6,1.5
		c-1.3,0.7-2.5,1.4-3.6,2.2c-1.3,1-2.5,2-3.6,3.1c-1.4,1.4-2.6,2.8-3.6,4.2c-1.6,2.2-2.7,4.3-3.5,6c0,0,0,0,0,0
		c0.5-2.6,1-5.1,1.7-7.7c0.9-3.6,2.1-7.2,3.4-10.7c1-2.8,2.2-5.5,3.4-8.2c1.1-2.3,2.2-4.6,3.5-6.8c1.1-2,2.3-3.9,3.5-5.8
		c1.1-1.8,2.3-3.5,3.5-5.1c1.1-1.6,2.3-3.1,3.5-4.6c1.1-1.4,2.3-2.8,3.5-4.2c1.2-1.3,2.3-2.6,3.6-3.8c1.2-1.2,2.4-2.3,3.6-3.4
		c1.2-1.1,2.4-2.1,3.6-3.2c0.7-0.6,1.3-1.1,2-1.7c-0.7,0.5-1.3,1.1-2,1.6c-1.2,1-2.4,2-3.6,3c-1.2,1.1-2.4,2.2-3.6,3.3
		c-1.2,1.2-2.4,2.4-3.6,3.6c-1.2,1.3-2.4,2.6-3.6,3.9c-1.2,1.4-2.4,2.8-3.5,4.3c-1.2,1.5-2.4,3.1-3.5,4.7c-1.2,1.7-2.4,3.5-3.5,5.3
		c-1.2,2-2.4,4-3.5,6c-1.2,2.3-2.4,4.6-3.5,7c-1.3,2.8-2.4,5.6-3.4,8.5c-1.3,3.7-2.4,7.5-3.3,11.3c-1,4.4-1.8,8.9-2.3,13.5
		c-0.4-3.1-1.2-5.8-2.2-8.2c-1.1-2.3-2.4-4.3-3.9-6c-1.2-1.4-2.5-2.6-3.8-3.7c-1.3-1-2.5-1.9-3.8-2.6c-1.3-0.8-2.6-1.4-3.7-1.9
		c-1.7-0.7-3-1.2-3.7-1.4c-0.4-0.1-0.6-0.2-0.6-0.2c-0.2,3.2,0.1,6.2,0.8,8.8c0.8,3.3,2.2,6.1,3.9,8.5c1.2,1.7,2.5,3.2,3.8,4.5
		c1.2,1.2,2.5,2.3,3.8,3.2c1.3,1,2.6,1.8,3.7,2.5c1.5,0.9,2.8,1.5,3.7,1.9c0.6,0.3,1,0.4,1.4,0.6c-0.1,2.1-0.1,4.3-0.1,6.4
		c0,0.6,0,1.2,0,1.9c0,1,0.1,1.9,0.1,2.9c0.5,8.7,2,17.2,4.4,25.3c1.1,3.7,2.5,7.4,4,11c1.2,2.8,2.5,5.5,3.9,8.2
		c1.2,2.3,2.5,4.5,3.9,6.6c1.2,1.9,2.5,3.8,3.9,5.6c1.2,1.7,2.5,3.3,3.8,4.9c1.2,1.5,2.5,2.9,3.8,4.3c1.2,1.3,2.5,2.6,3.8,3.9
		c1.2,1.2,2.5,2.3,3.8,3.5c1.2,1.1,2.5,2.1,3.8,3.1c1.2,1,2.5,1.9,3.8,2.8c1.2,0.9,2.5,1.8,3.8,2.6c1.2,0.8,2.5,1.6,3.7,2.3
		c1.2,0.7,2.5,1.4,3.7,2.1c1.2,0.7,2.5,1.3,3.7,1.9c1.2,0.6,2.5,1.2,3.7,1.7c1.2,0.5,2.5,1.1,3.7,1.6c1.2,0.5,2.5,1,3.7,1.4
		c1.2,0.4,2.5,0.8,3.7,1.2c1.2,0.4,2.5,0.7,3.7,1.1c1.2,0.3,2.5,0.7,3.7,1c1.2,0.3,2.5,0.6,3.7,0.8c1.2,0.2,2.5,0.5,3.7,0.7
		c1.2,0.2,2.5,0.4,3.7,0.5c1.1,0.1,2.2,0.3,3.2,0.4c-0.1,0-0.2,0-0.2,0c-0.4,0.1-0.8,0.2-1.2,0.2c-0.4,0.1-0.8,0.2-1.2,0.3
		c-0.4,0.1-0.8,0.2-1.2,0.3c-0.4,0.1-0.8,0.2-1.2,0.3c-0.4,0.1-0.8,0.2-1.2,0.4c-0.4,0.1-0.8,0.3-1.2,0.4c-0.4,0.1-0.8,0.3-1.2,0.5
		c-0.4,0.2-0.8,0.3-1.2,0.5c-0.4,0.2-0.8,0.4-1.2,0.6c-0.4,0.2-0.8,0.4-1.2,0.6c-0.4,0.2-0.8,0.4-1.2,0.7c-0.4,0.2-0.8,0.5-1.3,0.8
		c-0.4,0.3-0.9,0.6-1.3,0.8c-0.4,0.3-0.9,0.6-1.3,1c-0.5,0.4-0.9,0.7-1.3,1.1c-0.5,0.4-0.9,0.9-1.4,1.3c-0.5,0.5-1,1.1-1.4,1.7
		c-0.6,0.7-1.1,1.5-1.5,2.3c-1,1.7-1.7,3.6-2.1,5.6c0,0.1-0.1,0.3-0.1,0.4c0,0.2-0.1,0.4-0.1,0.6c0,0.3-0.1,0.6-0.1,0.9l0,0
		c-0.3,0.1-0.7,0.2-1.2,0.3c-0.4,0.1-0.8,0.3-1.2,0.4c-0.4,0.2-0.8,0.4-1.2,0.6c-0.4,0.3-0.9,0.6-1.3,0.9c-0.6,0.5-1.1,1.1-1.4,1.8
		c-0.3,0.6-0.5,1.2-0.5,1.9v0c0,0,0.1,0,0.2,0c0.2,0,0.6-0.1,1.1-0.2c0.3-0.1,0.7-0.2,1.2-0.3c0.4-0.1,0.8-0.3,1.2-0.5
		c0.4-0.2,0.8-0.4,1.2-0.7c0.5-0.3,1-0.7,1.3-1.2c0.2-0.2,0.4-0.5,0.5-0.8c0,0.9,0.1,1.7,0.3,2.5c0.1,0.8,0.3,1.6,0.6,2.4
		c-0.2-0.4-0.4-0.9-0.7-1.4c0-0.1-0.1-0.1-0.1-0.2l0,0c0,0-0.5,0.4-1.2,1c-0.5,0.5-1.1,1.2-1.5,2c-0.4,0.8-0.6,1.7-0.5,2.7
		c0.1,0.6,0.3,1.3,0.7,2c0.1,0.1,0.1,0.2,0.2,0.3h0c0,0,0.4-0.2,1-0.7c0.4-0.3,0.9-0.8,1.4-1.4c0.8-1,1.3-2.4,0.8-4
		c0.2,0.6,0.4,1.2,0.7,1.7c0.2,0.5,0.5,1.1,0.8,1.6c0.3,0.5,0.5,0.9,0.8,1.4c0,0,0,0.1,0.1,0.1l0,0c-0.4,0.3-1,0.9-1.4,1.6
		c-0.6,0.9-0.9,2-0.6,3.2c0.1,0.4,0.3,0.9,0.7,1.4c0,0,0.1,0,0.2-0.1c0.3-0.2,0.8-0.6,1.3-1.1c0.7-0.7,1.3-1.8,1.2-3.1
		c0.1,0.1,0.2,0.3,0.3,0.4c0.3,0.3,0.6,0.7,0.9,1c0,0,0.1,0.1,0.1,0.1l-0.1,0c-0.1,0-0.1,0-0.2,0c0,0,0.1,0.1,0.2,0.2
		c0.2,0.2,0.5,0.5,0.9,0.9c0.3,0.2,0.6,0.5,1,0.7c0.1,0.1,0.2,0.1,0.3,0.2c0.2,0.2,0.4,0.3,0.6,0.5c0.3,0.3,0.6,0.5,1,0.8
		c0.2,0.1,0.4,0.3,0.5,0.4l0,0c-0.2-0.1-0.4-0.3-0.5-0.4c-0.3-0.3-0.7-0.5-1-0.8c-0.1-0.1-0.2-0.2-0.3-0.3c0.1,0.1,0.3,0.1,0.4,0.2
		c0.3,0.1,0.7,0.3,1,0.4c0.3,0.1,0.7,0.2,1.1,0.3c0.3,0.1,0.7,0.1,1.1,0.1c0.4,0,0.7,0,1.1,0c0.3,0,0.6,0,0.9-0.1l0,0l0,0
		c0,0-0.3-0.4-0.7-0.9c-0.2-0.3-0.6-0.5-1-0.8c-0.3-0.2-0.6-0.4-1-0.6c-0.3-0.2-0.7-0.3-1-0.4c-0.3-0.1-0.7-0.2-1.1-0.3
		c-0.3-0.1-0.7-0.1-1.1-0.1c-0.4,0-0.7,0-1.1,0c-0.3,0-0.6,0-0.9,0.1c-0.1-0.1-0.2-0.2-0.3-0.3c-0.3-0.4-0.6-0.7-0.9-1.1
		c-0.2-0.2-0.3-0.4-0.5-0.6c-0.1-0.3-0.2-0.6-0.3-0.9c-0.1-0.3-0.3-0.6-0.5-0.9h0c0,0-0.1,0.1-0.2,0.2c-0.1-0.1-0.1-0.2-0.2-0.3
		c-0.3-0.5-0.6-1-0.8-1.5c-0.3-0.6-0.5-1.2-0.8-1.9c-0.3-0.8-0.5-1.6-0.7-2.4c-0.1-0.4-0.2-0.8-0.2-1.3c0.1,0.2,0.2,0.4,0.4,0.5
		c0.3,0.3,0.6,0.7,0.9,1c0.3,0.3,0.6,0.5,1,0.8c0.3,0.2,0.6,0.4,1,0.6c0.3,0.2,0.7,0.3,1,0.4c0.3,0.1,0.7,0.2,1.1,0.3
		c0.3,0.1,0.7,0.1,1.1,0.2c0.1,0,0.2,0,0.3,0.1h0c0,0,0-0.3-0.2-0.8c-0.1-0.4-0.4-1-0.8-1.6c-0.2-0.3-0.5-0.7-0.9-1
		c-0.3-0.3-0.6-0.5-1-0.8c-0.3-0.2-0.6-0.4-1-0.6c-0.3-0.1-0.7-0.3-1-0.4c-0.3-0.1-0.7-0.2-1.1-0.3c-0.3-0.1-0.6-0.1-0.9-0.2
		c0-0.4,0-0.7,0-1.1c0-0.9,0.1-1.7,0.3-2.6c0.2-0.9,0.4-1.7,0.7-2.5c0.4-1.3,1-2.5,1.8-3.6c0.4-0.7,0.9-1.4,1.5-2
		c0.4-0.5,0.9-1,1.4-1.5c0.4-0.4,0.9-0.8,1.3-1.2c0.4-0.4,0.9-0.7,1.3-1.1c0.4-0.3,0.8-0.6,1.3-0.9c0.4-0.3,0.8-0.6,1.3-0.8
		c0.4-0.2,0.8-0.5,1.2-0.7c0.4-0.2,0.8-0.4,1.2-0.7c0.4-0.2,0.8-0.4,1.2-0.6c0.4-0.2,0.8-0.4,1.2-0.5c0.4-0.2,0.8-0.3,1.2-0.5
		c0.4-0.2,0.8-0.3,1.2-0.5c0.4-0.1,0.8-0.3,1.2-0.4c0.4-0.1,0.8-0.3,1.2-0.4c0.4-0.1,0.8-0.2,1.2-0.3c0.4-0.1,0.8-0.2,1.2-0.3
		c0.4-0.1,0.8-0.2,1.2-0.3c0.4-0.1,0.8-0.2,1.2-0.3c0.4-0.1,0.8-0.2,1.2-0.2c0.4-0.1,0.8-0.1,1.1-0.2c0.4-0.1,0.8-0.1,1.1-0.2
		c0.4-0.1,0.8-0.1,1.1-0.2c0.4,0,0.8-0.1,1.1-0.1c0.2,0,0.4,0,0.6-0.1c0.3,0,0.6,0,0.9,0c1.2,0,2.4,0.1,3.7,0.1c1.2,0,2.4,0,3.7,0
		C179.8,319.1,180.1,319.1,180.5,319.1L180.5,319.1z"/>
	<path fill="#FFFFFF" d="M98.4,279.7c1.7,3.9,3.3,6.3,3.3,6.3c0.2-0.2,0.4-0.4,0.6-0.7c1.3-1.6,2.5-3.1,3.5-4.7
		c1.5-2.2,2.6-4.5,3.5-6.7c4.3-10.7,2-20.4-0.8-27c-1.4-3.2-2.9-5.6-3.9-7.1c-0.7-1-1.1-1.5-1.1-1.5h0c-0.9,1.1-1.7,2.1-2.5,3.2
		c-1.4,2.1-2.6,4.2-3.5,6.2C92,260.3,95.3,272.5,98.4,279.7L98.4,279.7z"/>
	<path fill="#FFFFFF" d="M139.1,267c-0.9-0.8-1.5-1.2-1.5-1.2h0c-0.6,1.3-1.1,2.5-1.6,3.8c-0.8,2.4-1.4,4.7-1.7,6.9
		c-2,13.5,4.4,24.4,9.2,30.5c2.6,3.3,4.8,5.2,4.8,5.2l0,0c0.1-0.3,0.2-0.5,0.4-0.8c0.9-1.9,1.6-3.7,2.2-5.5c0.8-2.6,1.4-5,1.6-7.3
		c1.3-11.4-3.4-20.3-7.8-25.9C142.6,270.1,140.5,268.2,139.1,267L139.1,267z"/>
	<path fill="#FFFFFF" d="M93.6,282.2c-1.5-1.4-3-2.6-4.5-3.7c-1.4-1-2.9-1.8-4.3-2.6c-1.4-0.7-2.8-1.3-4.1-1.7
		c-1.3-0.5-2.7-0.8-4-1.1c-1.3-0.3-2.6-0.5-3.9-0.6c-1.3-0.1-2.6-0.2-3.8-0.2c-1.3,0-2.5,0.1-3.7,0.2c-1.3,0.1-2.5,0.3-3.7,0.5
		c-1.3,0.2-2.5,0.5-3.6,0.8c-1.3,0.3-2.5,0.7-3.5,1.1c-1.6,0.6-2.8,1.1-3.5,1.4c-0.4,0.2-0.6,0.3-0.6,0.3c0.3,0.4,0.6,0.7,0.9,1
		c1.5,1.7,3.1,3.2,4.7,4.5c1.4,1.1,2.9,2.1,4.4,3c1.4,0.8,2.8,1.5,4.2,2.1c1.3,0.6,2.7,1,4.1,1.4c1.3,0.4,2.6,0.7,3.9,0.9
		c1.3,0.2,2.6,0.4,3.9,0.5c1.3,0.1,2.6,0.2,3.8,0.2c1.3,0,2.5-0.1,3.7-0.1c1.3-0.1,2.5-0.2,3.7-0.4c1.3-0.2,2.5-0.4,3.6-0.7
		c1.4-0.3,2.6-0.6,3.6-0.9c1.9-0.6,3.1-1,3.1-1C96.4,285.2,95,283.6,93.6,282.2L93.6,282.2z"/>
	<path fill="#FFFFFF" d="M93.4,299.3c-1.3,0.1-2.6,0.3-3.9,0.6c-1.3,0.3-2.5,0.6-3.7,0.9c-1.2,0.4-2.4,0.8-3.5,1.3
		c-1.2,0.5-2.3,1-3.4,1.6c-1.2,0.6-2.3,1.2-3.2,1.8c-1.2,0.7-2.2,1.4-3.1,2.1c-1.4,1-2.4,1.9-3,2.4c-0.3,0.3-0.5,0.5-0.5,0.5
		c0.4,0.3,0.7,0.5,1.1,0.7c1.9,1.2,3.8,2.2,5.7,2.9c1.7,0.7,3.3,1.2,5,1.6c1.5,0.4,3.1,0.6,4.5,0.7c1.4,0.1,2.8,0.2,4.2,0.1
		c1.4,0,2.7-0.1,4-0.3c1.3-0.2,2.6-0.4,3.8-0.7c1.3-0.3,2.5-0.6,3.7-1c1.2-0.4,2.4-0.8,3.5-1.3c1.2-0.5,2.3-1,3.4-1.5
		c1.2-0.6,2.3-1.2,3.3-1.7c1.2-0.7,2.3-1.4,3.2-1.9c1.7-1.1,2.7-1.9,2.7-1.9c-1.8-1.3-3.5-2.3-5.3-3.2c-1.8-0.9-3.6-1.6-5.3-2.2
		c-1.6-0.5-3.2-0.9-4.8-1.2c-1.5-0.3-3-0.4-4.4-0.4C96.1,299.1,94.7,299.2,93.4,299.3L93.4,299.3z"/>
	<path fill="#FFFFFF" d="M133.9,327.1c1.2-0.5,2.3-1,3.3-1.4c0,0-0.1,0.1-0.1,0.1v0c0,0,0.1,0,0.2,0.1c0.2,0.1,0.6,0.2,1.1,0.3
		c0.3,0.1,0.7,0.1,1.1,0.2c0.3,0,0.7,0.1,1.1,0.1c0.3,0,0.7,0,1.1,0.1c0.4,0,0.7,0,1.1,0c0.4,0,0.7,0,1.1-0.1c0.4,0,0.8-0.1,1.1-0.2
		c0.4-0.1,0.8-0.2,1.2-0.3c0.4-0.1,0.8-0.3,1.2-0.4c0.4-0.2,0.8-0.4,1.2-0.6c0.4-0.3,0.9-0.5,1.3-0.9c0.4-0.3,0.8-0.7,1.2-1.1l0,0
		c0,0-0.4-0.1-0.9-0.2c-0.3-0.1-0.7-0.1-1.1-0.2c-0.3,0-0.7-0.1-1.1-0.1c-0.3,0-0.7,0-1.1,0c-0.4,0-0.7,0-1.1,0
		c-0.4,0-0.7,0-1.1,0.1c-0.4,0-0.8,0.1-1.1,0.2c-0.3,0.1-0.7,0.1-1,0.2c0.5-0.3,0.9-0.6,1.4-0.9c1.7-1.1,2.7-1.9,2.7-1.9
		c-1.8-1.3-3.5-2.3-5.3-3.2c-1.8-0.9-3.6-1.6-5.3-2.2c-1.6-0.5-3.2-0.9-4.8-1.2c-1.5-0.3-3-0.4-4.4-0.4c-1.4,0-2.8,0-4.1,0.1
		c-1.3,0.1-2.6,0.3-3.9,0.6c-1.3,0.3-2.5,0.6-3.7,0.9c-1.2,0.4-2.4,0.8-3.5,1.3c-1.2,0.5-2.3,1-3.4,1.6c-1.2,0.6-2.2,1.2-3.2,1.8
		c-1.2,0.7-2.2,1.4-3.1,2.1c-1.4,1-2.4,1.9-3,2.4c-0.3,0.3-0.5,0.4-0.5,0.5l0,0c0.4,0.3,0.7,0.5,1.1,0.7c1.9,1.2,3.8,2.1,5.7,2.9
		c1.7,0.7,3.3,1.2,5,1.6c1.5,0.4,3,0.6,4.5,0.7c1.4,0.1,2.8,0.2,4.2,0.1c1.4,0,2.7-0.1,4-0.3c1.3-0.2,2.6-0.4,3.8-0.7
		c1.3-0.3,2.5-0.6,3.7-1C131.6,327.9,132.8,327.5,133.9,327.1L133.9,327.1z"/>
	<path fill="#FFFFFF" d="M48.4,254.9c1.2,1,2.5,2,3.8,2.8c1.2,0.8,2.5,1.4,3.7,2c1.2,0.6,2.5,1,3.7,1.4c1.2,0.4,2.5,0.7,3.7,1
		c1.3,0.3,2.5,0.5,3.7,0.6c1.3,0.2,2.5,0.3,3.7,0.3c1.3,0.1,2.6,0.1,3.7,0c1.4,0,2.7-0.2,3.7-0.3c1.5-0.2,2.3-0.3,2.3-0.3l0,0
		c-0.8-1.5-1.6-2.8-2.5-4c-1.2-1.7-2.5-3.2-3.8-4.5c-1.2-1.2-2.5-2.3-3.8-3.2c-1.2-0.9-2.5-1.6-3.7-2.3c-1.2-0.6-2.5-1.2-3.7-1.6
		c-1.2-0.4-2.5-0.8-3.7-1.1c-1.3-0.3-2.5-0.5-3.7-0.6c-1.3-0.1-2.5-0.2-3.7-0.2c-1.3,0-2.5,0-3.7,0.1c-1.4,0.1-2.6,0.3-3.7,0.5
		c-1.9,0.3-3.1,0.7-3.1,0.7c1,1.8,2.1,3.3,3.2,4.8C45.8,252.5,47.1,253.8,48.4,254.9L48.4,254.9z"/>
	<path fill="#FFFFFF" d="M51.8,227.7c1.2,1.4,2.5,2.6,3.8,3.7c1.2,1,2.5,2,3.8,2.8c1.3,0.8,2.5,1.6,3.7,2.2c1.3,0.7,2.6,1.3,3.7,1.8
		c1.5,0.6,2.8,1.1,3.7,1.4c1.1,0.3,1.7,0.5,1.7,0.5l0,0c-0.2-4.2-0.9-7.8-2.1-10.9c-1-2.8-2.4-5.2-3.9-7.2c-1.2-1.6-2.5-3-3.8-4.2
		c-1.2-1.1-2.5-2.1-3.8-3c-1.3-0.8-2.5-1.6-3.7-2.2c-1.3-0.7-2.6-1.2-3.7-1.6c-1.4-0.5-2.6-0.9-3.7-1.2c-2-0.5-3.2-0.7-3.3-0.7l0,0
		c0.3,5.2,1.7,9.5,3.6,13.2C49.1,224.3,50.4,226.1,51.8,227.7L51.8,227.7z"/>
	<path fill="#FFFFFF" d="M69.4,176.4c1.8,3.1,3.4,4.9,3.4,4.9l0,0c0.1-0.2,0.3-0.4,0.4-0.6c1.5-2.4,2.7-4.7,3.5-6.9
		c2.7-7.5,1.5-14.1-0.6-19.1c-1.2-2.8-2.6-5.1-3.9-6.8c-1.6-2.2-3-3.4-3-3.4h0c-0.3,0.4-0.5,0.8-0.8,1.2c-1.8,3-2.8,6-3.4,8.8
		c-0.9,4.5-0.5,8.7,0.4,12.4C66.4,170.7,68,174,69.4,176.4L69.4,176.4z"/>
	<path fill="#FFFFFF" d="M85.4,152.1c0.8,1.2,1.4,1.8,1.4,1.8l0,0c0.9-1.3,1.6-2.6,2.2-3.9c4-8.4,2-15.6-0.6-20.4
		c-1.4-2.6-3-4.5-3.8-5.4c-0.4-0.4-0.6-0.6-0.7-0.7l0,0c-1.3,2-2.2,4-2.9,6c-1.7,5.5-1,10.7,0.4,14.8
		C82.7,147.8,84.3,150.5,85.4,152.1L85.4,152.1z"/>
	<path fill="#FFFFFF" d="M104.2,130.4c1.4-1,2.6-2.1,3.6-3.3c1.8-2.1,2.8-4.4,3.5-6.5c1.3-4.1,0.9-7.6,0.9-7.6
		c-0.4,0.1-0.8,0.2-1.1,0.4c-1.3,0.5-2.6,1.1-3.6,1.8c-1.4,0.9-2.6,1.8-3.6,2.9c-1.5,1.5-2.7,3.3-3.5,4.9
		c-2.7,5.3-2.7,10.5-2.7,10.5c1.1-0.3,2.1-0.7,3-1.1C101.9,131.8,103.1,131.1,104.2,130.4L104.2,130.4z"/>
	<path fill="#FFFFFF" d="M108.7,157.8c2.2-3.3,3-5.9,3-5.9c-1.1-0.1-2.2-0.2-3.2-0.1c-1.3,0-2.5,0.1-3.7,0.3
		c-1.3,0.2-2.5,0.4-3.7,0.8c-1.3,0.4-2.5,0.8-3.6,1.3c-1.3,0.6-2.5,1.3-3.6,2c-1.3,0.8-2.5,1.8-3.6,2.7c-1.4,1.2-2.5,2.4-3.6,3.6
		c-1.6,1.8-2.7,3.6-3.5,4.9c-1,1.6-1.4,2.6-1.4,2.6c0.5,0.1,1,0.1,1.5,0.1c1.3,0.1,2.5,0.1,3.7,0.1c1.3,0,2.5-0.2,3.7-0.4
		c1.3-0.2,2.5-0.5,3.7-0.9c1.3-0.4,2.5-0.9,3.6-1.5c1.3-0.6,2.5-1.4,3.6-2.2c1.4-1,2.5-2,3.6-3.1
		C106.6,160.8,107.7,159.2,108.7,157.8L108.7,157.8z"/>
	<path fill="#FFFFFF" d="M107.1,134.6c-1.4,0.9-2.6,1.8-3.6,2.8c-1.7,1.5-2.9,2.8-3.6,3.7c-0.5,0.5-0.7,0.9-0.7,0.9
		c0.2,0.1,0.5,0.2,0.7,0.2c1.3,0.4,2.5,0.7,3.7,0.9c1.3,0.2,2.5,0.3,3.7,0.3c1.3,0,2.5-0.1,3.7-0.2c1.3-0.2,2.5-0.5,3.7-0.8
		c1.3-0.4,2.5-0.9,3.6-1.5c1.3-0.7,2.5-1.5,3.6-2.3c1.4-1.1,2.6-2.2,3.6-3.3c1.9-2.1,2.9-3.8,2.9-3.8c-1-0.3-2-0.6-3-0.7
		c-1.3-0.2-2.5-0.4-3.7-0.4c-1.3,0-2.5,0-3.7,0.2c-1.3,0.2-2.5,0.4-3.7,0.8c-1.3,0.4-2.5,0.9-3.6,1.4
		C109.4,133.2,108.2,133.9,107.1,134.6L107.1,134.6z"/>
	<path fill="#FFFFFF" d="M115,125c1.3,0.4,2.5,0.7,3.7,0.9c1.3,0.2,2.5,0.4,3.7,0.4c1.3,0.1,2.5,0,3.7-0.1c1.3-0.1,2.5-0.4,3.7-0.7
		c1.3-0.4,2.5-0.9,3.6-1.4c1.3-0.6,2.5-1.4,3.6-2.2c1.4-1,2.6-2.1,3.6-3.1c2.4-2.4,3.5-4.5,3.5-4.5c-1.3-0.4-2.5-0.7-3.7-0.8
		c-1.3-0.2-2.5-0.3-3.7-0.3c-1.3,0-2.5,0.1-3.7,0.3c-1.3,0.2-2.5,0.5-3.7,0.9c-1.3,0.4-2.5,0.9-3.6,1.5c-1.3,0.7-2.5,1.4-3.6,2.2
		c-1.4,1-2.6,2-3.6,2.9c-2.1,1.9-3.3,3.5-3.6,3.9C115,124.9,114.9,125,115,125L115,125L115,125L115,125z"/>
	<path fill="#FFFFFF" d="M154.9,327.2c-0.2-0.5-0.5-1-0.8-1.6c-0.3-0.4-0.6-0.7-0.9-1.1c0-0.1-0.1-0.1-0.1-0.2c0,0-0.6,0.5-1.2,1.3
		c-1.1,1.5-2.5,4.1-1.3,7c0.2,0.5,0.5,1,0.8,1.5c0.2,0.3,0.4,0.5,0.6,0.8l0,0c0,0,0.2-0.1,0.4-0.3c0.3-0.3,0.9-0.8,1.4-1.4
		C154.9,331.7,155.8,329.6,154.9,327.2L154.9,327.2z"/>
	<path fill="#FFFFFF" d="M158.6,331.2c0.2,0.3,0.4,0.5,0.6,0.8l0,0c0,0,0.2-0.1,0.4-0.3c0.3-0.3,0.9-0.8,1.4-1.5
		c1-1.4,2-3.4,1.1-5.9c-0.2-0.5-0.5-1-0.8-1.6c-0.3-0.4-0.6-0.7-0.9-1.1c-0.1-0.1-0.1-0.1-0.1-0.2l0,0c0,0-0.5,0.5-1.2,1.3
		c-1.1,1.5-2.5,4.1-1.3,7C157.9,330.2,158.2,330.7,158.6,331.2L158.6,331.2z"/>
	<path fill="#FFFFFF" d="M166.6,330.3c0,0,0.2-0.1,0.4-0.3c0.3-0.3,0.9-0.8,1.4-1.5c1.1-1.4,2-3.4,1.1-5.9c-0.2-0.5-0.5-1-0.8-1.6
		c-0.3-0.4-0.6-0.7-0.9-1.1c0-0.1-0.1-0.1-0.1-0.2c0,0-0.6,0.5-1.2,1.3c-1.1,1.5-2.5,4.1-1.3,7c0.2,0.5,0.5,1,0.8,1.5
		C166.2,329.8,166.4,330,166.6,330.3L166.6,330.3z"/>
	<path fill="#FFFFFF" d="M144.9,318.5c0.2,0.2,0.5,0.3,0.9,0.5c0.3,0.2,0.6,0.3,0.9,0.5c0.3,0.1,0.6,0.3,1,0.4
		c0.3,0.1,0.7,0.3,1,0.4c0.3,0.1,0.7,0.2,1.1,0.3c0.4,0.1,0.7,0.2,1.1,0.2c0.4,0.1,0.8,0.1,1.2,0.1c0.4,0,0.9,0,1.3,0
		c0.5,0,1-0.1,1.5-0.1c0.5-0.1,1.1-0.2,1.6-0.3c0.5-0.1,1.1-0.3,1.7-0.6c0,0-0.3-0.2-0.7-0.5c-0.2-0.1-0.5-0.3-0.9-0.5
		c-0.3-0.1-0.6-0.3-0.9-0.5c-0.3-0.1-0.6-0.3-1-0.4c-0.3-0.1-0.7-0.2-1-0.4c-0.3-0.1-0.7-0.2-1.1-0.3c-0.4-0.1-0.7-0.2-1.1-0.2
		c-0.4-0.1-0.8-0.1-1.2-0.2c-0.4,0-0.8-0.1-1.3-0.1c-0.4,0-0.9,0-1.4,0c-0.5,0-1,0.1-1.5,0.2c-0.6,0.1-1.2,0.3-1.8,0.5
		c-0.1,0-0.2,0.1-0.3,0.1v0c0,0,0,0,0.1,0.1C144.2,318,144.5,318.2,144.9,318.5L144.9,318.5z"/>
	<path fill="#FFFFFF" d="M143.4,328.7c0.3-0.2,0.6-0.5,0.9-0.8c0,0-0.3-0.1-0.7-0.1c-0.3,0-0.7-0.1-1.1-0.2c-0.3,0-0.7-0.1-1.1-0.1
		c-0.3,0-0.7,0-1.1,0c-0.4,0-0.7,0-1.1,0c-0.4,0-0.7,0.1-1.1,0.1c-0.4,0.1-0.8,0.1-1.2,0.2c-0.4,0.1-0.8,0.2-1.2,0.3
		c-0.4,0.1-0.8,0.3-1.2,0.5c-0.4,0.2-0.8,0.5-1.3,0.8c-0.4,0.3-0.8,0.6-1.1,1l0,0c0,0,0.3,0.1,0.9,0.2c0.3,0.1,0.7,0.1,1.1,0.2
		c0.3,0,0.7,0.1,1.1,0.1c0.3,0,0.7,0,1.1,0c0.4,0,0.7,0,1.1,0c0.4,0,0.8-0.1,1.1-0.1c0.4-0.1,0.8-0.1,1.2-0.3
		c0.4-0.1,0.8-0.2,1.2-0.4c0.4-0.2,0.8-0.4,1.2-0.6C142.5,329.4,143,329.1,143.4,328.7L143.4,328.7z"/>
	<path fill="#FFFFFF" d="M139.3,333.1c-0.4,0.1-0.7,0.2-1.2,0.3c-0.4,0.1-0.8,0.2-1.2,0.4c-0.4,0.1-0.8,0.3-1.2,0.5
		c-0.4,0.2-0.8,0.5-1.2,0.7c-0.5,0.3-0.9,0.7-1.3,1.1c-0.7,0.8-1.2,1.7-1.5,2.8c0,0,0.4,0,1-0.1c0.3,0,0.7-0.1,1.1-0.2
		c0.4-0.1,0.7-0.2,1.2-0.3c0.4-0.1,0.8-0.2,1.2-0.4c0.4-0.2,0.8-0.3,1.2-0.6c0.4-0.2,0.9-0.5,1.3-0.8c0.5-0.4,1-0.9,1.4-1.5
		c0.4-0.7,0.8-1.4,1-2.3v0c0,0-0.2,0-0.5,0.1C140.1,332.9,139.7,333,139.3,333.1L139.3,333.1z"/>
	<path fill="#FFFFFF" d="M146.3,361.3c0.3,0.3,0.6,0.5,1,0.7c0.3,0.2,0.6,0.3,1,0.5c0.1,0,0.2,0.1,0.3,0.1c0,0,0.2-0.7,0-1.7
		c-0.1-0.5-0.4-1-0.8-1.5c-0.3-0.3-0.6-0.6-1-0.8c-0.3-0.2-0.6-0.4-1-0.5c-0.3-0.1-0.5-0.2-0.8-0.3c0,0-0.2,1.1,0.5,2.4
		C145.6,360.5,145.9,360.9,146.3,361.3L146.3,361.3z"/>
	<path fill="#FFFFFF" d="M146.5,337.2c0.3,0.3,0.6,0.6,0.9,0.9c0.3,0.2,0.6,0.5,1,0.7c0.1,0,0.1,0.1,0.2,0.1c0,0,2-2.5,0.8-5.5
		c-0.2-0.5-0.5-1-0.8-1.5c-0.3-0.3-0.6-0.7-0.9-1c-0.3-0.3-0.6-0.5-1-0.8c-0.3-0.2-0.6-0.4-0.9-0.6h0c0,0-0.1,0.2-0.2,0.4
		c-0.3,0.7-0.8,2-0.7,3.6c0.1,0.7,0.3,1.5,0.7,2.3C145.8,336.4,146.1,336.8,146.5,337.2L146.5,337.2z"/>
	<path fill="#FFFFFF" d="M143.2,337c-0.3-0.2-0.7-0.3-1-0.5c-0.3-0.1-0.6-0.2-0.9-0.3h0c0,0-0.3,1.5,0.4,3.2c0.2,0.5,0.5,1,0.8,1.5
		c0.3,0.3,0.6,0.7,0.9,1c0.3,0.3,0.6,0.5,1,0.7c0.3,0.2,0.6,0.4,1,0.6c0.3,0.2,0.7,0.3,1,0.4c0.1,0,0.1,0,0.2,0.1c0,0,0.3-0.8,0.2-2
		c-0.1-0.7-0.3-1.4-0.7-2.2c-0.2-0.4-0.5-0.8-0.9-1.2c-0.3-0.3-0.6-0.6-1-0.8C143.9,337.4,143.6,337.2,143.2,337L143.2,337z"/>
	<path fill="#FFFFFF" d="M145.1,349.6c-0.3-0.1-0.7-0.2-1.1-0.3c-0.3-0.1-0.7-0.1-1.1-0.2c-0.3,0-0.7-0.1-1.1-0.1
		c-0.2,0-0.3,0-0.5,0c0,0,0.1,0.2,0.3,0.6c0.2,0.3,0.5,0.7,0.9,1.2c0.3,0.3,0.6,0.6,0.9,0.9c0.3,0.2,0.6,0.5,1,0.7
		c0.3,0.2,0.6,0.4,1,0.5c0.3,0.1,0.7,0.3,1,0.4c0.3,0.1,0.7,0.2,1.1,0.3c0.3,0.1,0.7,0.1,1.1,0.2c0.3,0,0.6,0.1,1,0.1
		c0,0-0.2-0.6-0.7-1.4c-0.2-0.3-0.5-0.7-0.9-1.1c-0.3-0.3-0.6-0.5-1-0.8c-0.3-0.2-0.6-0.4-1-0.6
		C145.8,349.9,145.5,349.8,145.1,349.6L145.1,349.6z"/>
	<path fill="#FFFFFF" d="M152,360.3c-0.4,0-0.7,0-1.1,0c-0.4,0-0.7,0.1-1.1,0.1l0,0c0,0,0,0,0,0c0.1,0.1,0.4,0.5,0.9,0.9
		c0.3,0.2,0.6,0.5,1,0.7c0.3,0.2,0.6,0.4,1,0.6c0.3,0.2,0.7,0.3,1,0.4c0.3,0.1,0.7,0.2,1.1,0.3c0.3,0.1,0.7,0.1,1.1,0.2
		c0.4,0,0.7,0,1.1,0c0.4,0,0.7,0,1.1-0.1c0,0-0.3-0.5-0.9-1.1c-0.3-0.2-0.6-0.5-1-0.8c-0.3-0.2-0.6-0.4-1-0.6
		c-0.3-0.1-0.7-0.3-1-0.4c-0.3-0.1-0.7-0.2-1.1-0.2C152.8,360.4,152.4,360.3,152,360.3L152,360.3z"/>
	<path fill="#FFFFFF" d="M307.9,238.3c0,0-0.5,0.6-1.1,1.5c-1,1.5-2.5,3.9-3.9,7.1c-2.9,6.6-5.1,16.3-0.8,27c0.9,2.2,2,4.4,3.5,6.7
		c1,1.6,2.2,3.1,3.5,4.7c0.2,0.2,0.4,0.4,0.6,0.7c0,0,1.6-2.4,3.3-6.3c3.1-7.1,6.4-19.4,1-31.9c-0.9-2.1-2.1-4.2-3.5-6.2
		C309.6,240.5,308.8,239.4,307.9,238.3L307.9,238.3L307.9,238.3z"/>
	<path fill="#FFFFFF" d="M273.7,265.8L273.7,265.8c0,0-0.6,0.4-1.5,1.2c-1.4,1.1-3.4,3.1-5.6,5.8c-4.5,5.6-9.2,14.4-7.8,25.9
		c0.3,2.3,0.8,4.8,1.6,7.3c0.6,1.8,1.3,3.6,2.2,5.5c0.1,0.3,0.2,0.5,0.4,0.8l0,0c0,0,2.2-1.9,4.8-5.2c4.8-6.1,11.2-17,9.2-30.5
		c-0.3-2.2-0.9-4.6-1.7-6.9C274.8,268.3,274.3,267.1,273.7,265.8L273.7,265.8z"/>
	<path fill="#FFFFFF" d="M353.3,273.7c-1.1-0.3-2.3-0.6-3.6-0.8c-1.2-0.2-2.4-0.4-3.7-0.5c-1.2-0.1-2.4-0.2-3.7-0.2
		c-1.2,0-2.5,0.1-3.8,0.2c-1.3,0.1-2.6,0.3-3.9,0.6c-1.3,0.3-2.6,0.7-4,1.1c-1.4,0.5-2.8,1.1-4.1,1.7c-1.4,0.7-2.9,1.6-4.3,2.6
		c-1.5,1.1-3,2.3-4.5,3.7c-1.4,1.4-2.9,2.9-4.3,4.7c0,0,1.1,0.5,3.1,1c1,0.3,2.2,0.6,3.6,0.9c1.1,0.2,2.3,0.5,3.6,0.7
		c1.2,0.2,2.4,0.3,3.7,0.4c1.2,0.1,2.4,0.1,3.7,0.1c1.2,0,2.5,0,3.8-0.2c1.3-0.1,2.6-0.3,3.9-0.5c1.3-0.2,2.6-0.5,3.9-0.9
		c1.4-0.4,2.7-0.8,4.1-1.4c1.4-0.6,2.8-1.3,4.2-2.1c1.5-0.9,3-1.9,4.4-3c1.6-1.3,3.2-2.8,4.7-4.5c0.3-0.3,0.6-0.7,0.9-1
		c0,0-0.2-0.1-0.6-0.3c-0.7-0.3-1.9-0.8-3.5-1.4C355.8,274.4,354.7,274.1,353.3,273.7L353.3,273.7z"/>
	<path fill="#FFFFFF" d="M335.4,314c1.9-0.8,3.8-1.7,5.7-2.9c0.4-0.2,0.7-0.5,1.1-0.7c0,0-0.2-0.2-0.5-0.5c-0.6-0.5-1.6-1.4-3-2.4
		c-0.9-0.6-1.9-1.4-3.1-2.1c-1-0.6-2.1-1.2-3.2-1.8c-1.1-0.5-2.2-1.1-3.4-1.6c-1.1-0.5-2.3-0.9-3.5-1.3c-1.2-0.4-2.4-0.7-3.7-0.9
		c-1.3-0.3-2.5-0.5-3.9-0.6c-1.3-0.1-2.7-0.2-4.1-0.1c-1.4,0-2.9,0.2-4.4,0.4c-1.6,0.3-3.2,0.6-4.8,1.2c-1.7,0.6-3.5,1.3-5.3,2.2
		c-1.7,0.9-3.5,1.9-5.3,3.2c0,0,1,0.8,2.7,1.9c0.9,0.6,1.9,1.2,3.2,1.9c1,0.6,2.1,1.1,3.3,1.7c1.1,0.5,2.2,1,3.4,1.5
		c1.1,0.4,2.3,0.9,3.5,1.3c1.2,0.4,2.4,0.7,3.7,1c1.2,0.3,2.5,0.5,3.8,0.7c1.3,0.2,2.6,0.3,4,0.3c1.4,0,2.8,0,4.2-0.1
		c1.5-0.1,3-0.4,4.5-0.7C332.1,315.2,333.7,314.7,335.4,314L335.4,314z"/>
	<path fill="#FFFFFF" d="M284.6,329.3c1.2,0.3,2.5,0.5,3.8,0.7c1.3,0.2,2.6,0.3,4,0.3c1.4,0,2.8,0,4.2-0.1c1.5-0.1,3-0.4,4.5-0.7
		c1.6-0.4,3.3-0.9,5-1.6c1.9-0.8,3.8-1.7,5.7-2.9c0.4-0.2,0.7-0.5,1.1-0.7l0,0c0,0-0.2-0.2-0.5-0.5c-0.6-0.5-1.6-1.4-3-2.4
		c-0.9-0.6-1.9-1.4-3.1-2.1c-1-0.6-2.1-1.2-3.2-1.8c-1.1-0.5-2.2-1.1-3.4-1.6c-1.1-0.5-2.3-0.9-3.5-1.3c-1.2-0.4-2.4-0.7-3.7-0.9
		c-1.3-0.3-2.5-0.5-3.9-0.6c-1.3-0.1-2.7-0.2-4.1-0.1c-1.4,0-2.9,0.2-4.4,0.4c-1.6,0.3-3.2,0.6-4.8,1.2c-1.7,0.6-3.5,1.3-5.3,2.2
		c-1.7,0.9-3.5,2-5.3,3.2c0,0,1,0.8,2.7,1.9c0.4,0.3,0.9,0.6,1.4,0.9c-0.3-0.1-0.7-0.2-1-0.2c-0.4-0.1-0.8-0.1-1.1-0.2
		c-0.4,0-0.8-0.1-1.1-0.1c-0.4,0-0.8,0-1.1,0c-0.4,0-0.8,0-1.1,0c-0.4,0-0.8,0.1-1.1,0.1c-0.4,0-0.8,0.1-1.1,0.2
		c-0.6,0.1-0.9,0.2-0.9,0.2l0,0c0.4,0.4,0.8,0.8,1.2,1.1c0.4,0.3,0.8,0.6,1.3,0.9c0.4,0.2,0.8,0.4,1.2,0.6c0.4,0.2,0.8,0.3,1.2,0.4
		c0.4,0.1,0.8,0.2,1.2,0.3c0.4,0.1,0.8,0.1,1.1,0.2c0.4,0,0.8,0.1,1.1,0.1c0.4,0,0.8,0,1.1,0c0.4,0,0.7,0,1.1-0.1
		c0.4,0,0.8-0.1,1.1-0.1c0.4-0.1,0.8-0.1,1.1-0.2c0.5-0.1,0.9-0.2,1.1-0.3c0.1,0,0.2-0.1,0.2-0.1l0,0c0,0-0.1-0.1-0.1-0.1
		c1,0.5,2.1,1,3.3,1.4c1.1,0.4,2.3,0.9,3.5,1.3C282.1,328.7,283.3,329,284.6,329.3L284.6,329.3z"/>
	<path fill="#FFFFFF" d="M366.7,251c1.2-1.4,2.2-3,3.2-4.8c0,0-1.1-0.4-3.1-0.7c-1-0.2-2.3-0.4-3.7-0.5c-1.1-0.1-2.4-0.1-3.7-0.1
		c-1.2,0-2.4,0.1-3.7,0.2c-1.2,0.1-2.4,0.3-3.7,0.6c-1.2,0.3-2.5,0.6-3.7,1.1c-1.2,0.4-2.5,1-3.7,1.6c-1.3,0.6-2.5,1.4-3.7,2.3
		c-1.3,0.9-2.6,2-3.8,3.2c-1.3,1.3-2.6,2.8-3.8,4.5c-0.9,1.2-1.7,2.6-2.5,4l0,0c0,0,0.9,0.2,2.4,0.4c1,0.1,2.2,0.2,3.7,0.3
		c1.1,0,2.4,0,3.7,0c1.2,0,2.4-0.1,3.7-0.3c1.2-0.1,2.4-0.4,3.7-0.6c1.2-0.3,2.5-0.6,3.7-1c1.2-0.4,2.5-0.9,3.7-1.4
		c1.3-0.6,2.5-1.2,3.7-2c1.3-0.8,2.5-1.7,3.8-2.8C364.2,253.8,365.5,252.5,366.7,251L366.7,251z"/>
	<path fill="#FFFFFF" d="M356.2,212.6c-1.2,0.6-2.5,1.3-3.7,2.2c-1.3,0.9-2.5,1.8-3.8,3c-1.3,1.2-2.6,2.6-3.8,4.2
		c-1.5,2.1-2.9,4.5-3.9,7.2c-1.2,3.1-1.9,6.7-2.1,10.9v0c0,0,0.7-0.1,1.7-0.5c0.9-0.3,2.2-0.7,3.7-1.4c1.1-0.5,2.4-1.1,3.7-1.8
		c1.2-0.6,2.5-1.4,3.7-2.2c1.3-0.8,2.5-1.8,3.8-2.8c1.3-1.1,2.6-2.3,3.8-3.7c1.4-1.6,2.7-3.5,3.8-5.5c2-3.7,3.4-8,3.6-13.2l0,0
		c0,0-1.3,0.2-3.3,0.7c-1.1,0.3-2.3,0.7-3.7,1.2C358.8,211.4,357.5,211.9,356.2,212.6L356.2,212.6z"/>
	<path fill="#FFFFFF" d="M338.1,180.7c0.1,0.2,0.3,0.4,0.4,0.6v0c0,0,1.6-1.8,3.4-4.9c1.4-2.5,3-5.8,4-9.6c0.9-3.7,1.3-7.9,0.4-12.4
		c-0.6-2.9-1.7-5.8-3.4-8.8c-0.2-0.4-0.5-0.8-0.8-1.2h0c0,0-1.3,1.2-3,3.4c-1.3,1.7-2.7,4-3.9,6.8c-2.1,5-3.2,11.6-0.6,19.1
		C335.4,176,336.5,178.3,338.1,180.7L338.1,180.7z"/>
	<path fill="#FFFFFF" d="M324.5,154L324.5,154c0,0,0.6-0.7,1.4-1.8c1.1-1.6,2.8-4.3,3.9-7.6c1.4-4.1,2.2-9.3,0.4-14.8
		c-0.6-2-1.5-4-2.9-6l0,0c0,0-0.3,0.3-0.7,0.7c-0.9,0.9-2.4,2.8-3.8,5.4c-2.6,4.8-4.6,12-0.6,20.4
		C322.8,151.4,323.6,152.7,324.5,154L324.5,154z"/>
	<path fill="#FFFFFF" d="M303.5,127.1c1,1.2,2.2,2.3,3.6,3.3c1.1,0.7,2.3,1.4,3.6,2c0.9,0.4,1.9,0.8,3,1.1c0,0,0-5.2-2.7-10.5
		c-0.9-1.7-2-3.4-3.5-4.9c-1-1-2.2-2-3.6-2.9c-1.1-0.7-2.3-1.3-3.6-1.8c-0.4-0.1-0.7-0.3-1.1-0.4c0,0-0.4,3.4,0.9,7.6
		C300.7,122.7,301.7,125,303.5,127.1L303.5,127.1z"/>
	<path fill="#FFFFFF" d="M317,169c1.2,0.4,2.4,0.7,3.7,0.9c1.2,0.2,2.4,0.3,3.7,0.4c1.2,0,2.4,0,3.7-0.1c0.5,0,1-0.1,1.5-0.1
		c0,0-0.5-1-1.4-2.6c-0.8-1.3-2-3.1-3.5-4.9c-1-1.2-2.2-2.4-3.6-3.6c-1.1-1-2.3-1.9-3.6-2.7c-1.1-0.7-2.3-1.4-3.6-2
		c-1.1-0.5-2.4-1-3.6-1.3c-1.2-0.3-2.4-0.6-3.7-0.8c-1.2-0.2-2.4-0.3-3.7-0.3c-1,0-2.1,0-3.2,0.1c0,0,0.9,2.6,3,5.9
		c0.9,1.4,2.1,3,3.6,4.4c1,1.1,2.2,2.1,3.6,3.1c1.1,0.8,2.3,1.5,3.6,2.2C314.5,168.1,315.7,168.6,317,169L317,169z"/>
	<path fill="#FFFFFF" d="M307.8,137.4c-1-0.9-2.2-1.9-3.6-2.8c-1.1-0.7-2.3-1.4-3.6-2c-1.1-0.5-2.4-1-3.6-1.4
		c-1.2-0.3-2.4-0.6-3.7-0.8c-1.2-0.2-2.4-0.2-3.7-0.2c-1.2,0-2.4,0.2-3.7,0.4c-1,0.2-2,0.4-3,0.7c0,0,1,1.7,2.9,3.8
		c1,1,2.2,2.2,3.6,3.3c1.1,0.8,2.3,1.6,3.6,2.3c1.1,0.6,2.3,1.1,3.6,1.5c1.1,0.4,2.4,0.7,3.7,0.8c1.2,0.2,2.4,0.2,3.7,0.2
		c1.2,0,2.4-0.1,3.7-0.3c1.2-0.2,2.4-0.5,3.7-0.9c0.2-0.1,0.5-0.1,0.7-0.2c0,0-0.2-0.3-0.7-0.9C310.7,140.2,309.4,138.9,307.8,137.4
		L307.8,137.4z"/>
	<path fill="#FFFFFF" d="M274.3,122c1.1,0.8,2.3,1.5,3.6,2.2c1.1,0.5,2.3,1,3.6,1.4c1.2,0.3,2.4,0.6,3.7,0.7
		c1.2,0.1,2.4,0.2,3.7,0.1c1.2-0.1,2.4-0.2,3.7-0.4c1.2-0.2,2.4-0.5,3.7-0.9l0,0l0.1,0c0,0,0,0-0.1-0.1c-0.3-0.4-1.5-2-3.6-3.9
		c-1-0.9-2.2-1.9-3.6-2.9c-1.1-0.8-2.3-1.5-3.6-2.2c-1.1-0.6-2.3-1.1-3.6-1.5c-1.2-0.4-2.4-0.7-3.7-0.9c-1.2-0.2-2.4-0.3-3.7-0.3
		c-1.2,0-2.4,0.1-3.7,0.3c-1.2,0.2-2.4,0.5-3.7,0.8c0,0,1.2,2.1,3.5,4.5C271.7,119.9,272.9,121,274.3,122L274.3,122z"/>
	<path fill="#FFFFFF" d="M163.3,213.2v-5.7l1.8,1.1c0.2,0.1,0.3,0.3,0.3,0.7v4H163.3L163.3,213.2z M165.5,184.9v6.2l-1.6-1v-5.1
		H165.5L165.5,184.9z M159.1,169.7h20.3V190h-12.3v-6.7h-4.3c-0.1,0.1-0.2,0.3-0.3,0.6c-0.1,0.3-0.2,0.6-0.2,1v5.1
		c0,0.5,0.4,1,1.1,1.5l12.2,7.5c1.5,0.9,2.6,2.1,3.1,3.5c0.6,1.4,0.9,2.7,0.9,4l0,12.1c-0.3,1.3-0.7,2.5-1.4,3.7
		c-0.6,1.1-1.4,2.1-2.2,2.9c-0.9,0.8-1.8,1.4-2.8,1.9c-1,0.5-2.1,0.7-3.1,0.7l-12.1,0c-2.3-0.7-4.1-1.7-5.5-3.1
		c-1.4-1.4-2.3-3.3-2.8-5.6l0-11.6h12v6.4c0,0.4,0.1,0.6,0.1,0.7c0.1,0.1,0.2,0.2,0.2,0.3h4.3c0.1-0.1,0.2-0.2,0.3-0.3
		c0.1-0.1,0.1-0.3,0.1-0.7v-4.6c0-0.7-0.1-1-0.1-1.2c-0.1-0.1-0.3-0.4-0.8-0.8l-12.2-7.5c-1.1-0.7-2.1-1.8-3-3.3
		c-0.9-1.5-1.3-3.3-1.3-5.2v-12.1c0.2-1.4,0.7-2.6,1.3-3.8c0.7-1.1,1.4-2.1,2.3-3c0.9-0.8,1.9-1.5,2.9-2
		C157,169.9,158.1,169.7,159.1,169.7L159.1,169.7z M152.1,171.4c-1,1-1.9,2.2-2.7,3.5c-0.8,1.3-1.3,2.8-1.6,4.3v12
		c0,2.2,0.5,4.3,1.5,6c1,1.8,2.2,3,3.5,3.8l7.2,4.8h-12v13.1c0.5,2.9,1.6,5.1,3.2,6.8c1.6,1.7,3.8,2.9,6.5,3.7h12.3
		c1.2,0,2.4-0.3,3.6-0.8c1.2-0.6,2.3-1.3,3.3-2.3c1-1,1.9-2.1,2.7-3.5c0.8-1.3,1.3-2.8,1.6-4.3v-12.3c0-1.8-0.4-3.4-1.1-4.8
		s-2-2.6-3.6-3.6l-10.1-6.2H181v-23.5h-21.8c-1.2,0-2.4,0.3-3.6,0.9C154.3,169.6,153.1,170.4,152.1,171.4L152.1,171.4z"/>
	<path fill="#FFFFFF" d="M152.6,176.4c-0.5,0.9-0.9,1.9-1.1,3v11.8c0,1.6,0.3,3,1,4.2c0.7,1.2,1.4,2.1,2.3,2.7l12.2,7.6
		c0.8,0.5,1.3,1,1.5,1.5c0.2,0.4,0.3,1.1,0.3,2.1v4.6c0,1.1-0.2,1.8-0.7,2.2c-0.4,0.4-0.9,0.7-1.3,0.9l-0.1,0h-5.2l-0.1,0
		c-0.5-0.2-0.9-0.5-1.3-0.9c-0.5-0.4-0.7-1.1-0.7-2.2v-4.4h-7.8v9.2c0.4,1.8,1.1,3.4,2.2,4.5c1.1,1.1,2.6,1.9,4.4,2.5h11.8
		c0.8,0,1.6-0.2,2.4-0.6c0.8-0.4,1.6-0.9,2.2-1.5c0.7-0.6,1.3-1.4,1.8-2.3c0.5-0.9,0.8-1.9,1.1-3l-0.1-11.8c0-1-0.3-2-0.8-3.2
		c-0.5-1.1-1.3-2-2.3-2.6l-12.2-7.5c-0.8-0.5-1.4-1-1.6-1.5c-0.2-0.5-0.4-1-0.4-1.7v-5.1c0-1,0.2-1.8,0.5-2.3
		c0.3-0.5,0.7-0.9,1.1-1.3l0.1-0.1h7.1v6.7h8.1v-16.2h-8.1l0.1,3l-2.8-3h-7.3c-0.8,0-1.6,0.2-2.4,0.6c-0.8,0.4-1.6,1-2.3,1.6
		C153.7,174.7,153.1,175.5,152.6,176.4L152.6,176.4z"/>
	<path fill="#FFFFFF" d="M202.6,227.8h-18.2v-13.7h3.2v-30.7h-3.2v-13.7h17.7l2.6,10.1v-10.1h17.8v13.7h-3.2v44.4h-12.7l-7.2-27.3
		v13.6h3.2V227.8L202.6,227.8z M204.2,225l1.1,4.3h15.6v-44.4h3.2v-16.9h-41.2v16.9h3.2v27.6h-3.2v16.9h21.3V225L204.2,225z"/>
	<polygon fill="#FFFFFF" points="200.6,171.7 186.5,171.7 186.5,181.3 189.7,181.3 189.7,216.1 186.5,216.1 186.5,225.7 
		200.6,225.7 200.6,216.1 197.4,216.1 197.4,184.2 208.1,225.7 217.2,225.7 217.2,181.3 220.4,181.3 220.4,171.7 206.9,171.7 
		206.9,181.3 210,181.3 210,208.1 200.6,171.7 	"/>
	<path fill="#FFFFFF" d="M242.6,212.5l0.2-0.8h1.9l0.2,0.8H242.6L242.6,212.5z M233,183.4h-2.8v-13.7h27.1v13.7h-2.8l4.3,30.7h3.2
		v13.7h-17.7v-13.7h2.2l-0.4-4h-4.6l-0.4,4h2.3v13.7h-17.7v-13.7h3.2L233,183.4L233,183.4z M224.1,212.5v16.9h39.4v-16.9h-3.3
		l-4-27.6h2.6v-16.9h-30.3v16.9h2.6l-3.8,27.6H224.1L224.1,212.5z"/>
	<path fill="#FFFFFF" d="M242,185.2c0.1-0.5,0.3-1.2,0.5-1.9c0.2-0.8,0.6-1.4,1.1-1.8l0.2-0.1l0.2,0.1c0.5,0.4,0.9,1,1.1,1.8
		c0.2,0.8,0.4,1.4,0.5,1.9l2.1,16.9H240L242,185.2L242,185.2z M227.8,225.7h13.5v-9.5h-2.7l0.9-8.1h8.6l0.9,8.1h-2.7v9.5h13.6v-9.5
		h-2.9l-4.9-34.9h3.2v-9.5h-22.9v9.5h3.2l-4.8,34.9h-2.8V225.7L227.8,225.7z"/>
	<polygon fill="#FFFFFF" points="242.3,200.1 245.1,200.1 243.7,188.4 242.3,200.1 	"/>
	<path fill="#FFFFFF" d="M151.9,241.2c0,1.8,0.1,2.9,0.3,3c0.1,0.1,0.3,0.2,0.5,0.2c0.3,0,0.6,0.1,1.2,0.1c0.5,0,0.8,0,1-0.1
		c0.3-0.1,0.5-0.2,0.7-0.3c0.2-0.2,0.3-0.5,0.4-0.8c0-0.1,0.1-0.2,0.2-0.2c0,0,0.1,0.1,0.1,0.2c0,0.1,0,0.4-0.1,0.7l-0.1,0.5
		c0,0.2-0.1,0.3-0.1,0.4c0,0.2-0.1,0.3-0.2,0.3c-0.1,0-0.3,0.1-0.7,0.1c-0.4,0-0.9,0-1.3,0l-1,0c-0.6,0-1.2,0-1.7,0h-0.3
		c-0.2,0-0.3,0-0.5,0l-1,0c-0.2,0-0.3,0-0.3-0.1c0-0.1,0.1-0.1,0.2-0.1c0.2,0,0.3,0,0.5-0.1c0.2,0,0.3-0.3,0.4-0.8
		c0-0.3,0-0.7,0.1-1.2c0-0.2,0-0.5,0-0.8v-5.5l0-0.9c0-0.5-0.2-0.7-0.6-0.8c-0.1,0-0.3,0-0.5,0c-0.2,0-0.2,0-0.2-0.1
		c0-0.1,0.1-0.1,0.3-0.1l2.3,0c0.1,0,0.1,0,0.2,0l1.3,0c0.2,0,0.3,0,0.3,0.1c0,0.1-0.1,0.1-0.3,0.1c-0.2,0-0.4,0-0.5,0
		c-0.3,0.1-0.5,0.3-0.5,0.8l0,0.9V241.2L151.9,241.2z"/>
	<path fill="#FFFFFF" d="M158,236.6l0-0.9c0-0.5-0.2-0.7-0.6-0.8c-0.1,0-0.3,0-0.5,0c-0.2,0-0.2,0-0.2-0.1c0-0.1,0.1-0.1,0.3-0.1
		l2.4,0c0.1,0,0.1,0,0.2,0l1.2,0c0.2,0,0.3,0,0.3,0.1c0,0.1-0.1,0.1-0.2,0.1c-0.1,0-0.2,0-0.4,0c-0.3,0.1-0.5,0.3-0.5,0.8l0,0.9v4.1
		c0,1,0.1,1.7,0.3,2.3c0.2,0.5,0.4,0.9,0.8,1.2c0.3,0.2,0.6,0.4,0.9,0.5c0.2,0.1,0.5,0.1,0.8,0.1c0.3,0,0.7-0.1,1-0.2
		c0.4-0.1,0.7-0.3,0.9-0.6c0.3-0.3,0.6-0.8,0.7-1.5c0-0.3,0.1-0.6,0.1-1c0-0.3,0-0.6,0-1v-3.9l0-0.9c0-0.5-0.2-0.7-0.6-0.8
		c-0.1,0-0.3,0-0.5,0c-0.2,0-0.2,0-0.2-0.1c0-0.1,0.1-0.1,0.3-0.1c0.3,0,0.7,0,1.1,0c0.1,0,0.1,0,0.1,0l0.6,0c0,0,0.1,0,0.1,0l1.3,0
		c0.2,0,0.3,0,0.3,0.1c0,0.1-0.1,0.1-0.2,0.1c-0.1,0-0.2,0-0.4,0c-0.3,0.1-0.5,0.3-0.5,0.8l0,0.9v3.6c0,0.4,0,0.8,0,1.2
		c0,0.4-0.1,0.8-0.2,1.1c-0.2,0.8-0.6,1.4-1.1,1.9c-0.5,0.4-1,0.7-1.5,0.8c-0.4,0.1-0.9,0.2-1.4,0.2h-0.3l-0.4,0
		c-0.3,0-0.5-0.1-0.8-0.1c-0.7-0.1-1.2-0.4-1.7-0.8c-0.4-0.4-0.7-0.8-0.9-1.3c-0.2-0.6-0.3-1.4-0.3-2.4V236.6L158,236.6z"/>
	<path fill="#FFFFFF" d="M174.1,239.4c0.1,0.1,0.3,0.5,0.6,1l1.4,2.4c0.2,0.3,0.3,0.5,0.4,0.7c0.3,0.5,0.5,0.8,0.6,0.9
		c0.2,0.3,0.5,0.5,0.8,0.6c0.2,0.1,0.4,0.1,0.5,0.1c0.1,0,0.2,0,0.2,0.1c0,0.1-0.1,0.1-0.3,0.1H177c-0.3,0-0.5,0-0.7,0
		c-0.3,0-0.5,0-0.8,0c-0.2,0-0.3,0-0.4,0c-0.1,0-0.1,0-0.1-0.1c0-0.1,0.1-0.1,0.2-0.2c0,0,0.1,0,0.1-0.1c0-0.1,0-0.1-0.1-0.2
		c-0.4-0.7-0.8-1.4-1.2-2c-0.4-0.7-0.8-1.3-1.1-1.8l-2.1,3.4c-0.2,0.2-0.2,0.4-0.2,0.6c0,0.1,0.1,0.2,0.3,0.2c0,0,0.1,0,0.1,0
		c0.1,0,0.2,0,0.2,0c0.1,0,0.2,0,0.2,0.1c0,0.1-0.1,0.1-0.3,0.1l-1.2,0l-1.8,0c-0.1,0-0.2,0-0.2-0.1c0-0.1,0.1-0.1,0.2-0.1
		c0.1,0,0.1,0,0.2,0c0.1,0,0.2,0,0.3-0.1c0.3-0.1,0.7-0.4,1.2-1.1l2.7-3.8l-2.4-4c-0.3-0.6-0.7-0.9-1.2-1.1
		c-0.2-0.1-0.4-0.1-0.6-0.1c-0.1,0-0.1,0-0.1-0.1c0-0.1,0.1-0.1,0.3-0.1l1.6,0l2.1,0c0.2,0,0.3,0,0.3,0.1c0,0.1-0.1,0.1-0.2,0.1
		l-0.1,0c-0.2,0-0.2,0-0.3,0.1c-0.1,0-0.2,0.1-0.2,0.2c0,0.1,0,0.2,0.1,0.4c0.1,0.3,0.3,0.5,0.5,0.8c0.1,0.2,0.3,0.5,0.4,0.8
		l0.9,1.5l1.6-2.4c0.2-0.3,0.3-0.5,0.3-0.5c0.1-0.2,0.2-0.4,0.2-0.5c0-0.1-0.1-0.2-0.2-0.3c-0.1,0-0.1,0-0.2,0H175
		c-0.1,0-0.2,0-0.2-0.1c0-0.1,0.1-0.1,0.3-0.1l1.7,0c0,0,0.1,0,0.1,0l1,0c0.2,0,0.3,0,0.3,0.1c0,0.1-0.1,0.1-0.2,0.1
		c-0.1,0-0.3,0-0.5,0.1c-0.2,0.1-0.6,0.4-1,1.1L174.1,239.4L174.1,239.4z"/>
	<path fill="#FFFFFF" d="M184.1,236.6l0-0.9c0-0.5-0.2-0.7-0.6-0.8c-0.1,0-0.3,0-0.5,0c-0.2,0-0.2,0-0.2-0.1c0-0.1,0.1-0.1,0.3-0.1
		l2,0h2.9l0.6,0c0.3,0,0.5-0.1,0.6-0.1c0,0,0,0,0.1,0l0.2,0c0,0,0.1,0,0.1,0.1l-0.1,0.5c0,0.1,0,0.3,0,0.4l-0.1,0.7
		c0,0.1,0,0.2,0,0.2c0,0,0,0.1,0,0.1c0,0,0,0.1,0,0.1c-0.1,0-0.2-0.1-0.2-0.2c0-0.1,0-0.1,0-0.2c0-0.1,0-0.2-0.1-0.3
		c-0.1-0.1-0.1-0.2-0.2-0.3c-0.1-0.1-0.4-0.1-0.7-0.2c-0.1,0-0.2,0-0.4,0l-0.6,0l-1,0c0,0-0.1,0-0.1,0.1v3.6c0,0.1,0,0.2,0,0.2h1.2
		c0.3,0,0.5,0,0.7,0c0.2,0,0.4,0,0.5,0c0.3,0,0.6-0.1,0.7-0.2c0.1-0.1,0.2-0.2,0.2-0.2c0,0,0.1,0,0.1,0.1l-0.1,0.6
		c0,0.1,0,0.3,0,0.5l-0.1,0.9c0,0.2,0,0.3,0,0.3c-0.2,0-0.2,0-0.2-0.1l0-0.2c0-0.1,0-0.2,0-0.3c-0.1-0.3-0.3-0.5-0.8-0.5
		c-0.1,0-0.2,0-0.4,0c-0.2,0-0.4,0-0.6,0l-1,0c0,0-0.1,0-0.1,0.1v3.3c0,0.5,0.1,0.8,0.3,1c0.2,0.2,0.7,0.2,1.4,0.2h0.3l0.3,0
		c0.3,0,0.5-0.1,0.7-0.1c0.3-0.2,0.5-0.5,0.6-1c0-0.1,0.1-0.2,0.2-0.2c0,0,0.1,0.1,0.1,0.3c0,0.6-0.1,1.1-0.2,1.6
		c-0.1,0.2-0.3,0.4-0.8,0.4c-0.4,0-0.9,0-1.4,0l-1,0c-0.6,0-1.1,0-1.5,0h-0.3c-0.2,0-0.3,0-0.5,0l-1,0c-0.2,0-0.3,0-0.3-0.1
		c0-0.1,0.1-0.1,0.2-0.1c0.2,0,0.3,0,0.5-0.1c0.2,0,0.3-0.3,0.4-0.8c0-0.3,0-0.7,0.1-1.2c0-0.2,0-0.5,0-0.8V236.6L184.1,236.6z"/>
	<path fill="#FFFFFF" d="M194.9,235.4l-2.1,0.1c-0.7,0-1.2,0.2-1.4,0.4c-0.1,0.2-0.2,0.4-0.2,0.5c0,0.1-0.1,0.2-0.2,0.2
		c0,0-0.1-0.1-0.1-0.2c0-0.1,0-0.2,0-0.3c0-0.1,0.1-0.3,0.1-0.5c0.1-0.4,0.1-0.6,0.2-0.8c0-0.2,0.1-0.3,0.2-0.3c0,0,0.1,0,0.1,0
		l0.1,0c0.1,0,0.1,0.1,0.2,0.1c0.1,0,0.1,0,0.2,0c0.4,0,0.9,0.1,1.4,0.1h5.6c0.2,0,0.4,0,0.6,0c0,0,0.1,0,0.2,0l0.6-0.1
		c0.1,0,0.1,0.1,0.1,0.3l0,1.6c0,0.2-0.1,0.2-0.1,0.2c-0.2,0-0.2-0.1-0.2-0.3l0-0.2c0-0.2-0.1-0.4-0.4-0.5c-0.3-0.2-0.7-0.3-1.3-0.3
		l-1.8,0v6.7c0,0.3,0,0.6,0,0.8c0,0.6,0,1,0.1,1.2c0,0.5,0.2,0.7,0.5,0.8c0.3,0,0.5,0.1,0.7,0.1c0.2,0,0.2,0,0.2,0.1
		c0,0.1-0.1,0.1-0.3,0.1l-1.7,0c0,0-0.1,0-0.1,0l-2.2,0c-0.2,0-0.3,0-0.3-0.1c0-0.1,0.1-0.1,0.2-0.1c0.2,0,0.3,0,0.5-0.1
		c0.2,0,0.4-0.3,0.4-0.8c0-0.3,0-0.7,0.1-1.2c0-0.2,0-0.5,0-0.8V235.4L194.9,235.4z"/>
	<path fill="#FFFFFF" d="M215,244.3c0,0.3-0.1,0.4-0.2,0.5c-0.4,0.2-1,0.4-1.6,0.5c-0.6,0.1-1.1,0.1-1.8,0.1c-1.9,0-3.4-0.4-4.5-1.3
		c-0.6-0.5-1.1-1-1.4-1.7c-0.4-0.7-0.5-1.6-0.5-2.5c0-1.1,0.2-2,0.7-2.9c0.4-0.7,1-1.3,1.7-1.7c0.6-0.4,1.3-0.6,2-0.8
		c0.3-0.1,0.6-0.1,0.9-0.1c0.3,0,0.6,0,0.9,0c0.4,0,0.9,0,1.5,0.1c0.5,0.1,0.8,0.1,1,0.1c0.2,0,0.4,0.1,0.5,0.1c0.2,0,0.4,0,0.6,0.1
		c0.1,0,0.1,0,0.2,0.1c0,0,0,0.1,0,0.1l0,0.3c0,0.1,0,0.1,0,0.2c0,0.2,0,0.4,0,0.7c0,0.3,0,0.7,0,1.1c0,0.2-0.1,0.3-0.2,0.3
		c0,0-0.1-0.1-0.1-0.2l0-0.3c0-0.1,0-0.2-0.1-0.3c-0.1-0.2-0.2-0.4-0.4-0.6c-0.3-0.3-0.6-0.5-1.1-0.7c-0.6-0.3-1.3-0.4-2-0.4
		c-0.2,0-0.5,0-0.6,0c-0.2,0-0.5,0-0.7,0.1c-0.5,0.1-1,0.4-1.5,0.7c-0.4,0.3-0.7,0.8-0.9,1.3c-0.2,0.6-0.3,1.3-0.3,2.1
		c0,1.5,0.4,2.8,1.3,3.8c0.9,1,2.1,1.5,3.6,1.5h0.3c0.1,0,0.2,0,0.3,0c0.2,0,0.4-0.1,0.6-0.1c0.2-0.1,0.3-0.3,0.3-0.5v-2.3
		c0-0.3,0-0.5,0-0.7c0-0.4-0.2-0.7-0.6-0.8c-0.1,0-0.3,0-0.5,0c-0.1,0-0.2,0-0.2-0.1c0-0.1,0.1-0.1,0.3-0.1l2.4,0c0.1,0,0.2,0,0.4,0
		l0.8,0c0.2,0,0.3,0,0.3,0.1c0,0.1-0.1,0.1-0.2,0.1c-0.1,0-0.2,0-0.4,0c-0.3,0.1-0.5,0.3-0.5,0.8c0,0.2,0,0.4,0,0.7V244.3L215,244.3
		z"/>
	<path fill="#FFFFFF" d="M220.7,241.2c0,1.8,0.1,2.9,0.3,3c0.1,0.1,0.3,0.2,0.5,0.2c0.3,0,0.6,0.1,1.2,0.1c0.5,0,0.8,0,1-0.1
		c0.3-0.1,0.5-0.2,0.7-0.3c0.2-0.2,0.3-0.5,0.4-0.8c0-0.1,0.1-0.2,0.2-0.2c0,0,0.1,0.1,0.1,0.2c0,0.1,0,0.4-0.1,0.7l-0.1,0.5
		c0,0.2-0.1,0.3-0.1,0.4c0,0.2-0.1,0.3-0.2,0.3c-0.1,0-0.3,0.1-0.7,0.1c-0.4,0-0.9,0-1.3,0l-1,0c-0.6,0-1.2,0-1.7,0h-0.3
		c-0.2,0-0.3,0-0.5,0l-1,0c-0.2,0-0.3,0-0.3-0.1c0-0.1,0.1-0.1,0.2-0.1c0.2,0,0.3,0,0.5-0.1c0.2,0,0.3-0.3,0.4-0.8
		c0-0.3,0-0.7,0.1-1.2c0-0.2,0-0.5,0-0.8v-5.5l0-0.9c0-0.5-0.2-0.7-0.6-0.8c-0.1,0-0.3,0-0.5,0c-0.2,0-0.2,0-0.2-0.1
		c0-0.1,0.1-0.1,0.3-0.1l2.3,0c0.1,0,0.1,0,0.2,0l1.3,0c0.2,0,0.3,0,0.3,0.1c0,0.1-0.1,0.1-0.3,0.1c-0.2,0-0.4,0-0.5,0
		c-0.3,0.1-0.5,0.3-0.5,0.8l0,0.9V241.2L220.7,241.2z"/>
	<path fill="#FFFFFF" d="M232.7,244.6c0.4-0.1,0.8-0.3,1.1-0.6c0.4-0.3,0.7-0.8,0.9-1.4c0.2-0.7,0.4-1.5,0.4-2.4
		c0-1.5-0.4-2.8-1.2-3.7c-0.8-0.9-1.7-1.4-2.9-1.4c-0.4,0-0.8,0.1-1.2,0.2c-0.4,0.2-0.8,0.4-1.1,0.7c-0.4,0.4-0.6,0.8-0.8,1.3
		c-0.2,0.6-0.3,1.3-0.3,2.2c0,1.5,0.4,2.7,1.2,3.7c0.8,1,1.8,1.5,3.2,1.5C232.1,244.8,232.4,244.7,232.7,244.6L232.7,244.6z
		 M228.6,245c-0.7-0.3-1.3-0.7-1.8-1.3c-0.4-0.5-0.8-1.1-1-1.8c-0.2-0.6-0.3-1.3-0.3-1.9c0-0.6,0.1-1.3,0.3-1.9
		c0.2-0.7,0.6-1.3,1-1.8c0.5-0.6,1.1-1,1.8-1.3c0.8-0.3,1.7-0.5,2.7-0.5c1.7,0,3.1,0.5,4.1,1.4c1,0.9,1.5,2.2,1.5,3.8
		c0,1.7-0.5,3-1.6,4.1c-1.1,1.1-2.5,1.7-4.2,1.7C230.2,245.5,229.4,245.3,228.6,245L228.6,245z"/>
	<path fill="#FFFFFF" d="M240.6,239.8c0,0.1,0,0.2,0.1,0.2c0.3,0.1,0.6,0.1,1.1,0.1c0.4,0,0.8-0.1,1-0.2c0.2-0.2,0.4-0.4,0.6-0.7
		c0.2-0.4,0.3-0.8,0.3-1.4c0-0.5-0.1-0.9-0.2-1.2c-0.1-0.3-0.3-0.6-0.5-0.8c-0.4-0.4-0.9-0.5-1.4-0.5c-0.4,0-0.6,0-0.7,0.1
		c-0.1,0-0.1,0.1-0.1,0.2V239.8L240.6,239.8z M239,236.6l0-0.9c0-0.5-0.2-0.7-0.6-0.8c-0.1,0-0.3,0-0.5,0c-0.2,0-0.2,0-0.2-0.1
		c0-0.1,0.1-0.1,0.3-0.1l1.5,0c0,0,0.1,0,0.1,0l2.3,0c0.5,0,1,0,1.3,0.1c0.5,0.1,0.9,0.3,1.2,0.5c0.2,0.2,0.4,0.4,0.6,0.7
		c0.2,0.4,0.3,0.8,0.3,1.2c0,0.6-0.1,1.1-0.4,1.5c-0.3,0.5-0.8,1.1-1.5,1.6l1.7,2.1c0.5,0.7,1,1.2,1.4,1.6c0.3,0.3,0.7,0.6,1,0.8
		c0.1,0,0.1,0.1,0.2,0.1c0,0,0.1,0,0.2,0.1c0,0,0.1,0,0.1,0l0.1,0c0.2,0,0.3,0,0.4,0c0.1,0,0.2,0,0.2,0.1c0,0.1-0.1,0.1-0.3,0.1H247
		c-0.7,0-1.2-0.1-1.5-0.3c-0.3-0.2-0.6-0.4-0.9-0.7c-0.2-0.3-0.6-0.7-1-1.3l-1.4-1.9c-0.1-0.1-0.1-0.1-0.3-0.1l-1.2,0
		c-0.1,0-0.1,0-0.1,0.1v1.1c0,0.3,0,0.6,0,0.8c0,0.6,0,1,0.1,1.2c0,0.5,0.2,0.7,0.5,0.8c0.3,0,0.5,0.1,0.7,0.1c0.1,0,0.2,0,0.2,0.1
		c0,0.1-0.1,0.1-0.3,0.1l-1.7,0c0,0-0.1,0-0.1,0l-2,0c-0.2,0-0.3,0-0.3-0.1c0-0.1,0.1-0.1,0.2-0.1c0.2,0,0.3,0,0.5-0.1
		c0.2,0,0.3-0.3,0.4-0.8c0-0.3,0-0.7,0.1-1.2c0-0.2,0-0.5,0-0.8V236.6L239,236.6z"/>
	<path fill="#FFFFFF" d="M249.6,236.6l0-0.9c0-0.5-0.2-0.7-0.5-0.8c-0.1,0-0.3-0.1-0.5-0.1c-0.2,0-0.2,0-0.2-0.1
		c0-0.1,0.1-0.1,0.3-0.1l2.2,0c0.1,0,0.1,0,0.2,0l1.2,0c0.2,0,0.3,0,0.3,0.1c0,0.1-0.1,0.1-0.2,0.1c-0.1,0-0.2,0-0.4,0
		c-0.3,0.1-0.5,0.3-0.5,0.8l0,0.9v5.6c0,0.3,0,0.6,0,0.9c0,0.6,0,1,0,1.3c0.1,0.4,0.2,0.6,0.6,0.7c0.3,0,0.5,0.1,0.7,0.1
		c0.2,0,0.2,0,0.2,0.1c0,0.1-0.1,0.1-0.3,0.1l-1.7,0c0,0-0.1,0-0.1,0l-2.1,0c-0.2,0-0.3,0-0.3-0.1c0-0.1,0.1-0.1,0.2-0.1
		c0.2,0,0.3,0,0.5-0.1c0.2,0,0.4-0.3,0.4-0.7c0-0.3,0-0.7,0.1-1.2c0-0.2,0-0.5,0-0.9V236.6L249.6,236.6z"/>
	<path fill="#FFFFFF" d="M259.4,240.9C259.4,240.9,259.4,240.9,259.4,240.9l-1.2-3.6c0-0.1,0-0.1,0-0.1s-0.1,0-0.1,0.1l-1.3,3.5
		c0,0.1,0,0.1,0.1,0.1H259.4L259.4,240.9z M256.5,241.6c0,0-0.1,0-0.1,0.1l-0.8,2c-0.1,0.3-0.2,0.6-0.2,0.9c0,0.3,0.2,0.4,0.6,0.4
		h0.2c0.1,0,0.2,0,0.2,0.1c0,0.1-0.1,0.1-0.2,0.1l-1.7,0c0,0,0,0,0,0H254c-0.4,0-0.7,0-1,0c-0.2,0-0.3,0-0.3-0.1
		c0-0.1,0.1-0.1,0.2-0.1c0.1,0,0.3,0,0.4,0c0.3,0,0.5-0.2,0.7-0.4c0.1-0.2,0.3-0.5,0.5-0.9l3.5-8.8c0.2-0.4,0.3-0.6,0.4-0.6
		c0.1,0,0.2,0.1,0.3,0.4c0.1,0.2,0.3,0.6,0.6,1.4l2.1,5.1c0.4,0.9,0.7,1.7,0.9,2.1c0.2,0.6,0.5,1,0.7,1.2c0.1,0.1,0.2,0.2,0.3,0.2
		c0.1,0,0.1,0.1,0.2,0.1c0.2,0,0.4,0.1,0.6,0.1c0.1,0,0.2,0,0.2,0.1c0,0.1-0.2,0.1-0.7,0.1l-2.7,0l-0.2,0c-0.1,0-0.1,0-0.1-0.1
		c0-0.1,0.1-0.1,0.2-0.1c0.1,0,0.1-0.1,0.1-0.1c0-0.1,0-0.1,0-0.2l-1.1-3c0-0.1-0.1-0.1-0.1-0.1H256.5L256.5,241.6z"/>
	<g>
		<polygon fill="#FFFFFF" points="28.7,391.2 25.9,393.8 18,393.8 15.1,391.2 15.1,387.3 19.6,387.3 19.6,389.3 24.2,389.3 
			24.2,383.8 18,383.8 15.1,381.2 15.1,371.8 18,369.2 22.8,369.2 24.2,370.5 24.2,369.2 28.7,369.2 28.7,375.8 24.2,375.8 
			24.2,373.8 19.6,373.8 19.6,379.2 25.9,379.2 28.7,381.8 28.7,391.2 		"/>
		<polygon fill="#FFFFFF" points="44.9,391.2 41.9,393.8 33.8,393.8 30.9,391.2 30.9,371.8 33.8,369.2 39,369.2 40.3,370.5 
			40.3,369.2 44.9,369.2 44.9,375.8 40.3,375.8 40.3,373.8 35.5,373.8 35.5,389.3 40.3,389.3 40.3,387.3 44.9,387.3 44.9,391.2 		
			"/>
		<polygon fill="#FFFFFF" points="56.8,393.8 56.8,389.3 58,389.3 58,383.8 52.9,383.8 52.9,389.3 54.2,389.3 54.2,393.8 
			47.1,393.8 47.1,389.3 48.4,389.3 48.4,373.8 47.1,373.8 47.1,369.2 54.2,369.2 54.2,373.8 52.9,373.8 52.9,379.2 58,379.2 
			58,373.8 56.8,373.8 56.8,369.2 63.9,369.2 63.9,373.8 62.6,373.8 62.6,389.3 63.9,389.3 63.9,393.8 56.8,393.8 		"/>
		<path fill="#FFFFFF" d="M75.8,389.3v-15.5h-5.2v15.5H75.8L75.8,389.3z M80.3,391.2l-2.9,2.6H69l-2.9-2.6v-19.4l2.9-2.6h8.4
			l2.9,2.6V391.2L80.3,391.2z"/>
		<path fill="#FFFFFF" d="M92.2,389.3v-15.5h-5.2v15.5H92.2L92.2,389.3z M96.8,391.2l-2.9,2.6h-8.4l-2.9-2.6v-19.4l2.9-2.6h8.4
			l2.9,2.6V391.2L96.8,391.2z"/>
		<polygon fill="#FFFFFF" points="99,393.8 99,389.3 100.3,389.3 100.3,373.8 99,373.8 99,369.2 106.1,369.2 106.1,373.8 
			104.8,373.8 104.8,389.3 108.3,389.3 108.3,387.3 112.8,387.3 112.8,393.8 99,393.8 		"/>
		<polygon fill="#FFFFFF" points="128.7,391.2 125.8,393.8 118,393.8 115,391.2 115,387.3 119.6,387.3 119.6,389.3 124.1,389.3 
			124.1,383.8 118,383.8 115,381.2 115,371.8 118,369.2 122.7,369.2 124.1,370.5 124.1,369.2 128.7,369.2 128.7,375.8 124.1,375.8 
			124.1,373.8 119.6,373.8 119.6,379.2 125.8,379.2 128.7,381.8 128.7,391.2 		"/>
		<path fill="#FFFFFF" d="M148.4,389.3v-15.5h-5.2v15.5H148.4L148.4,389.3z M152.9,391.2l-2.9,2.6h-8.4l-2.9-2.6v-19.4l2.9-2.6h8.4
			l2.9,2.6V391.2L152.9,391.2z"/>
		<polygon fill="#FFFFFF" points="164.9,373.8 161,373.8 161,379.2 167.2,379.2 167.2,383.8 161,383.8 161,389.3 162.3,389.3 
			162.3,393.8 155.1,393.8 155.1,389.3 156.4,389.3 156.4,373.8 155.1,373.8 155.1,369.2 169.5,369.2 169.5,375.8 164.9,375.8 
			164.9,373.8 		"/>
		<polygon fill="#FFFFFF" points="190.3,393.8 185.3,380.9 185.3,389.3 186.6,389.3 186.6,393.8 179.5,393.8 179.5,389.3 
			180.8,389.3 180.8,373.8 179.5,373.8 179.5,369.2 185.7,369.2 190.6,382.1 190.6,373.8 189.3,373.8 189.3,369.2 196.4,369.2 
			196.4,373.8 195.1,373.8 195.1,393.8 190.3,393.8 		"/>
		<path fill="#FFFFFF" d="M208.4,389.3v-15.5h-5.2v15.5H208.4L208.4,389.3z M212.9,391.2l-2.9,2.6h-8.4l-2.9-2.6v-19.4l2.9-2.6h8.4
			l2.9,2.6V391.2L212.9,391.2z"/>
		<path fill="#FFFFFF" d="M220.9,379.2h4.7v-5.5h-4.7V379.2L220.9,379.2z M231,393.8h-4.9l-3.9-10h-1.3v5.5h1.3v4.5h-7.1v-4.5h1.3
			v-15.5h-1.3v-4.5h5.8v1.3l1.5-1.3h4.9l2.9,2.6v9l-3.1,2.9l2.2,5.5h1.8V393.8L231,393.8z"/>
		<polygon fill="#FFFFFF" points="244.8,373.8 243.5,373.8 243.5,389.3 244.8,389.3 244.8,393.8 237.7,393.8 237.7,389.3 239,389.3 
			239,373.8 237.7,373.8 237.7,375.8 233.2,375.8 233.2,369.2 249.4,369.2 249.4,375.8 244.8,375.8 244.8,373.8 		"/>
		<polygon fill="#FFFFFF" points="261.2,393.8 261.2,389.3 262.5,389.3 262.5,383.8 257.4,383.8 257.4,389.3 258.7,389.3 
			258.7,393.8 251.5,393.8 251.5,389.3 252.8,389.3 252.8,373.8 251.5,373.8 251.5,369.2 258.7,369.2 258.7,373.8 257.4,373.8 
			257.4,379.2 262.5,379.2 262.5,373.8 261.2,373.8 261.2,369.2 268.4,369.2 268.4,373.8 267.1,373.8 267.1,389.3 268.4,389.3 
			268.4,393.8 261.2,393.8 		"/>
		<path fill="#FFFFFF" d="M285.5,382.8h2.5l-1.3-6.3L285.5,382.8L285.5,382.8z M288,393.8v-4.5h1.3l-0.4-2h-4.3l-0.4,2h1.3v4.5h-7.1
			v-4.5h1.2l4-20h6.4l4,20h1.2v4.5H288L288,393.8z"/>
		<polygon fill="#FFFFFF" points="309.9,393.8 309.9,389.3 311.2,389.3 311.2,380 307.2,388.4 303.3,380 303.3,389.3 304.5,389.3 
			304.5,393.8 297.4,393.8 297.4,389.3 298.7,389.3 298.7,373.8 297.4,373.8 297.4,369.2 303.3,369.2 307.2,377.7 311.2,369.2 
			317,369.2 317,373.8 315.7,373.8 315.7,389.3 317.1,389.3 317.1,393.8 309.9,393.8 		"/>
		<polygon fill="#FFFFFF" points="319.3,393.8 319.3,389.3 320.6,389.3 320.6,373.8 319.3,373.8 319.3,369.2 333.6,369.2 
			333.6,375.8 329.1,375.8 329.1,373.8 325.1,373.8 325.1,379.2 331.3,379.2 331.3,383.8 325.1,383.8 325.1,389.3 329.1,389.3 
			329.1,387.3 333.6,387.3 333.6,393.8 319.3,393.8 		"/>
		<path fill="#FFFFFF" d="M341.6,379.2h4.7v-5.5h-4.7V379.2L341.6,379.2z M351.7,393.8h-4.9l-3.9-10h-1.3v5.5h1.3v4.5h-7.1v-4.5h1.3
			v-15.5h-1.3v-4.5h5.8v1.3l1.5-1.3h4.9l2.9,2.6v9l-3.1,2.9l2.2,5.5h1.8V393.8L351.7,393.8z"/>
		<polygon fill="#FFFFFF" points="353.9,393.8 353.9,389.3 355.2,389.3 355.2,373.8 353.9,373.8 353.9,369.2 361,369.2 361,373.8 
			359.7,373.8 359.7,389.3 361,389.3 361,393.8 353.9,393.8 		"/>
		<polygon fill="#FFFFFF" points="377.2,391.2 374.2,393.8 366.1,393.8 363.2,391.2 363.2,371.8 366.1,369.2 371.3,369.2 
			372.6,370.5 372.6,369.2 377.2,369.2 377.2,375.8 372.6,375.8 372.6,373.8 367.8,373.8 367.8,389.3 372.6,389.3 372.6,387.3 
			377.2,387.3 377.2,391.2 		"/>
		<path fill="#FFFFFF" d="M386.5,382.8h2.5l-1.3-6.3L386.5,382.8L386.5,382.8z M389,393.8v-4.5h1.3l-0.4-2h-4.3l-0.4,2h1.3v4.5h-7.1
			v-4.5h1.2l4-20h6.4l4,20h1.2v4.5H389L389,393.8z"/>
	</g>
	<g>
		<polygon fill="#FFFFFF" points="154.1,351.3 154.1,349.1 154.7,349.1 154.7,341.5 154.1,341.5 154.1,339.3 157.6,339.3 
			157.6,341.5 156.9,341.5 156.9,349.1 157.6,349.1 157.6,351.3 154.1,351.3 		"/>
		<polygon fill="#FFFFFF" points="163.9,351.3 161.5,345 161.5,349.1 162.1,349.1 162.1,351.3 158.6,351.3 158.6,349.1 159.3,349.1 
			159.3,341.5 158.6,341.5 158.6,339.3 161.6,339.3 164,345.6 164,341.5 163.4,341.5 163.4,339.3 166.9,339.3 166.9,341.5 
			166.2,341.5 166.2,351.3 163.9,351.3 		"/>
		<polygon fill="#FFFFFF" points="173.6,341.5 173,341.5 173,349.1 173.6,349.1 173.6,351.3 170.1,351.3 170.1,349.1 170.8,349.1 
			170.8,341.5 170.1,341.5 170.1,342.5 167.9,342.5 167.9,339.3 175.8,339.3 175.8,342.5 173.6,342.5 173.6,341.5 		"/>
		<polygon fill="#FFFFFF" points="176.9,351.3 176.9,349.1 177.5,349.1 177.5,341.5 176.9,341.5 176.9,339.3 183.8,339.3 
			183.8,342.5 181.6,342.5 181.6,341.5 179.7,341.5 179.7,344.2 182.7,344.2 182.7,346.4 179.7,346.4 179.7,349.1 181.6,349.1 
			181.6,348.1 183.8,348.1 183.8,351.3 176.9,351.3 		"/>
		<path fill="#FFFFFF" d="M187.7,344.2h2.3v-2.7h-2.3V344.2L187.7,344.2z M192.6,351.3h-2.4l-1.9-4.9h-0.7v2.7h0.6v2.2h-3.5v-2.2
			h0.6v-7.5h-0.6v-2.2h2.8v0.6l0.7-0.6h2.4l1.4,1.3v4.4l-1.5,1.4l1,2.7h0.9V351.3L192.6,351.3z"/>
		<polygon fill="#FFFFFF" points="198.9,351.3 196.5,345 196.5,349.1 197.2,349.1 197.2,351.3 193.7,351.3 193.7,349.1 194.3,349.1 
			194.3,341.5 193.7,341.5 193.7,339.3 196.7,339.3 199.1,345.6 199.1,341.5 198.5,341.5 198.5,339.3 201.9,339.3 201.9,341.5 
			201.3,341.5 201.3,351.3 198.9,351.3 		"/>
		<path fill="#FFFFFF" d="M206.5,345.9h1.2l-0.6-3.1L206.5,345.9L206.5,345.9z M207.7,351.3v-2.2h0.6l-0.2-1H206l-0.2,1h0.6v2.2H203
			v-2.2h0.6l1.9-9.7h3.1l1.9,9.7h0.6v2.2H207.7L207.7,351.3z"/>
		<polygon fill="#FFFFFF" points="216.1,341.5 215.5,341.5 215.5,349.1 216.1,349.1 216.1,351.3 212.7,351.3 212.7,349.1 
			213.3,349.1 213.3,341.5 212.7,341.5 212.7,342.5 210.5,342.5 210.5,339.3 218.3,339.3 218.3,342.5 216.1,342.5 216.1,341.5 		"/>
		<polygon fill="#FFFFFF" points="219.4,351.3 219.4,349.1 220,349.1 220,341.5 219.4,341.5 219.4,339.3 222.9,339.3 222.9,341.5 
			222.2,341.5 222.2,349.1 222.9,349.1 222.9,351.3 219.4,351.3 		"/>
		<path fill="#FFFFFF" d="M228.6,349.1v-7.5h-2.5v7.5H228.6L228.6,349.1z M230.8,350l-1.4,1.2h-4.1l-1.4-1.2v-9.4l1.4-1.3h4.1
			l1.4,1.3V350L230.8,350z"/>
		<polygon fill="#FFFFFF" points="237.2,351.3 234.7,345 234.7,349.1 235.4,349.1 235.4,351.3 231.9,351.3 231.9,349.1 232.6,349.1 
			232.6,341.5 231.9,341.5 231.9,339.3 234.9,339.3 237.3,345.6 237.3,341.5 236.7,341.5 236.7,339.3 240.2,339.3 240.2,341.5 
			239.5,341.5 239.5,351.3 237.2,351.3 		"/>
		<path fill="#FFFFFF" d="M244.7,345.9h1.2l-0.6-3.1L244.7,345.9L244.7,345.9z M245.9,351.3v-2.2h0.6l-0.2-1h-2.1l-0.2,1h0.6v2.2
			h-3.5v-2.2h0.6l1.9-9.7h3.1l1.9,9.7h0.6v2.2H245.9L245.9,351.3z"/>
		<polygon fill="#FFFFFF" points="250.5,351.3 250.5,349.1 251.1,349.1 251.1,341.5 250.5,341.5 250.5,339.3 253.9,339.3 
			253.9,341.5 253.3,341.5 253.3,349.1 255,349.1 255,348.1 257.2,348.1 257.2,351.3 250.5,351.3 		"/>
	</g>
</g>
</svg>
