<?xml version="1.0" encoding="UTF-8"?>
<svg width="70px" height="70px" viewBox="0 0 70 70" version="1.1" xmlns="http://www.w3.org/2000/svg" xmlns:xlink="http://www.w3.org/1999/xlink">
    <!-- Generator: Sketch 54.1 (76490) - https://sketchapp.com -->
    <title>Group 49</title>
    <desc>Created with Sketch.</desc>
    <g id="25.DORMITORY" stroke="none" stroke-width="1" fill="none" fill-rule="evenodd">
        <g id="Dormitory" transform="translate(-540.000000, -2878.000000)">
            <g id="Group-19" transform="translate(150.000000, 2587.000000)">
                <g id="Group-49" transform="translate(390.000000, 291.000000)">
                    <path d="M35.2481889,44.4620556 L18.3696333,27.5842778 L0.350077778,65.6541667 C0.333744444,65.6907222 -0.613588889,68.0256111 0.679855556,69.3198333 C1.97796667,70.6179444 4.32763333,69.6573889 4.34552222,69.6496111 L42.4154111,51.6292778 L37.7650778,46.9789444" id="Fill-1" fill="#AD1F2B"></path>
                    <path d="M28.2523111,37.4661778 C22.8280889,44.2281778 19.9689778,52.8552889 20.5880889,61.9607333 L42.4156444,51.6295111 C36.7565333,45.9704 38.6465333,47.8604 28.2523111,37.4661778" id="Fill-3" fill="#AD1F2B"></path>
                    <path d="M3.20366667,69.9474222 C3.44011111,68.4113111 17.0465556,40.4533111 21.5281111,30.7419778 L18.3703333,27.5842 L0.35,65.6548667 C0.226333333,65.9239778 -0.592666667,68.2526444 0.811222222,69.4403111 C1.74144444,70.2313111 3.06755556,69.9474222 3.20366667,69.9474222" id="Fill-5" fill="#AD1F2B"></path>
                    <path d="M26.4328556,11.5111111 C27.5691889,11.5111111 28.4900778,12.432 28.4900778,13.5683333 C28.4900778,14.7046667 27.5691889,15.6263333 26.4328556,15.6263333 C25.2965222,15.6263333 24.3756333,14.7046667 24.3756333,13.5683333 C24.3756333,12.432 25.2965222,11.5111111 26.4328556,11.5111111" id="Fill-7" fill="#AD1F2B"></path>
                    <path d="M57.8480778,19.8105444 C58.9844111,19.8105444 59.9053,20.7314333 59.9053,21.8677667 C59.9053,23.0041 58.9844111,23.9257667 57.8480778,23.9257667 C56.7117444,23.9257667 55.7908556,23.0041 55.7908556,21.8677667 C55.7908556,20.7314333 56.7117444,19.8105444 57.8480778,19.8105444" id="Fill-9" fill="#F7D6DE"></path>
                    <path d="M42.4154889,51.6295889 L46.8651556,49.5607 C46.7290444,49.4245889 20.6579333,23.3534778 20.4432667,23.1388111 L18.3697111,27.5838111" id="Fill-11" fill="#E797A1"></path>
                    <path d="M28.2523111,37.4661778 L42.4156444,51.6295111 L46.8653111,49.5606222 C46.4352,49.1312889 31.6333111,34.3286222 31.3657556,34.0618444 C30.2558667,35.1266222 29.2159778,36.2645111 28.2523111,37.4661778" id="Fill-13" fill="#E797A1"></path>
                    <path d="M15.5832444,33.4712778 L10.2616889,44.7132778 C12.5351333,45.6963889 15.2744667,45.2600556 17.1325778,43.4027222 C20.1036889,40.4308333 19.3360222,35.4056111 15.5832444,33.4712778" id="Fill-15" fill="#F7D6DE"></path>
                    <path d="M15.5832444,33.4712778 C12.9403556,39.0557222 10.4265778,44.3663889 10.2616889,44.7132778 C11.7184667,45.3425 13.3650222,45.3868333 14.8490222,44.8517222 L18.5994667,36.9277222 C18.0705778,35.4281667 16.9816889,34.1922778 15.5832444,33.4712778" id="Fill-17" fill="#F7D6DE"></path>
                    <path d="M25.3837889,55.0446556 L25.3791222,55.0415444 C23.4253444,52.8738778 21.0274556,53.0099889 21.0274556,53.0099889 L21.0274556,53.0123222 C15.2540111,52.7805444 12.2759,59.9384333 16.6065667,63.8459889 L26.9914556,58.9304333 C26.9222333,57.4728778 26.3451222,56.1016556 25.3837889,55.0446556" id="Fill-19" fill="#F7D6DE"></path>
                    <path d="M6.79567778,52.0368333 L4.35656667,57.1888333 C5.55823333,58.5655 7.63956667,58.5997222 8.89567778,57.3428333 C10.8230111,55.4162778 9.5039,52.1231667 6.79567778,52.0368333" id="Fill-21" fill="#F7D6DE"></path>
                    <path d="M25.5082333,41.8316111 C26.9766778,41.8316111 28.1674556,43.0223889 28.1674556,44.4908333 C28.1674556,45.9592778 26.9766778,47.1500556 25.5082333,47.1500556 C24.0397889,47.1500556 22.8490111,45.9592778 22.8490111,44.4908333 C22.8490111,43.0223889 24.0397889,41.8316111 25.5082333,41.8316111" id="Fill-23" fill="#F7D6DE"></path>
                    <path d="M21.5278,30.7418222 L23.5686889,26.3660444 C23.5445778,26.3116 23.5228,26.2556 23.5033556,26.1988222 C22.5855778,25.2818222 23.2054667,25.9009333 20.4435778,23.1390444 L20.4202444,23.1888222 L18.3700222,27.5840444 L21.5278,30.7418222 Z" id="Fill-25" fill="#E797A1"></path>
                    <path d="M40.8455444,28.5382222 C40.6565444,27.9486667 40.9816556,27.3171111 41.5712111,27.1281111 C43.3002111,26.5743333 47.3539889,24.7862222 47.6619889,20.1475556 C47.8447667,17.3965556 48.8527667,15.2148889 50.6595444,13.6655556 C53.9425444,10.8484444 58.6527667,11.221 58.8518778,11.2381111 C59.4694333,11.2917778 59.9259889,11.8354444 59.8723222,12.4522222 C59.8194333,13.069 59.2773222,13.5255556 58.6613222,13.4734444 C58.6216556,13.4695556 54.6666556,13.1732222 52.1093222,15.3766667 C50.7839889,16.5184444 50.0412111,18.1743333 49.8996556,20.2961111 C49.6188778,24.5295556 46.8328778,27.7985556 42.2556556,29.2646667 C41.6676556,29.4528889 41.0345444,29.1301111 40.8455444,28.5382222" id="Fill-27" fill="#E797A1"></path>
                    <path d="M42.8832444,18.1977444 C43.6874667,18.1977444 44.3392444,18.8495222 44.3392444,19.6537444 C44.3392444,20.4579667 43.6874667,21.1097444 42.8832444,21.1097444 C42.0790222,21.1097444 41.4272444,20.4579667 41.4272444,19.6537444 C41.4272444,18.8495222 42.0790222,18.1977444 42.8832444,18.1977444" id="Fill-29" fill="#AD1F2B"></path>
                    <path d="M35.6254889,1.09814444 C36.4297111,1.09814444 37.0814889,1.74992222 37.0814889,2.55414444 C37.0814889,3.35836667 36.4297111,4.01014444 35.6254889,4.01014444 C34.8212667,4.01014444 34.1694889,3.35836667 34.1694889,2.55414444 C34.1694889,1.74992222 34.8212667,1.09814444 35.6254889,1.09814444" id="Fill-31" fill="#AD1F2B"></path>
                    <path d="M50.8791111,42.0804222 C50.8596667,41.4613111 51.3457778,40.9440889 51.9648889,40.9246444 L54.1986667,40.8538667 C54.8185556,40.8305333 55.3357778,41.3205333 55.3552222,41.9396444 C55.3746667,42.5587556 54.8885556,43.0767556 54.2694444,43.0962 L52.0348889,43.1662 C51.422,43.1864222 50.8985556,42.7042 50.8791111,42.0804222" id="Fill-33" fill="#F7D6DE"></path>
                    <path d="M30.6339444,9.71257778 C30.0148333,9.69313333 29.5287222,9.17591111 29.5481667,8.5568 L29.6181667,6.32224444 C29.6383889,5.70313333 30.1548333,5.21468889 30.7747222,5.23646667 C31.3938333,5.25591111 31.8799444,5.77391111 31.8605,6.39302222 L31.7905,8.6268 C31.7702778,9.25835556 31.2359444,9.73591111 30.6339444,9.71257778" id="Fill-35" fill="#F7D6DE"></path>
                    <path d="M42.2253222,11.4627333 C42.2058778,10.8436222 42.6919889,10.3264 43.3111,10.3061778 L45.5448778,10.2361778 C46.1632111,10.2144 46.6812111,10.7028444 46.7006556,11.3219556 C46.7201,11.9410667 46.2347667,12.4582889 45.6148778,12.4777333 L43.3811,12.5485111 C42.7767667,12.5718444 42.2447667,12.0919556 42.2253222,11.4627333" id="Fill-37" fill="#C83951"></path>
                    <path d="M69.0734333,26.2264333 C63.4952111,25.2409889 61.7288778,28.9019889 60.4393222,31.5759889 C59.1567667,34.2352111 58.4497667,35.7005444 55.1582111,34.3091 C52.1031,33.0179889 49.5551,32.8616556 47.5834333,33.8432111 C46.0115444,34.6256556 45.4344333,35.8553222 45.3729889,35.9929889 C45.0455444,36.7365444 45.5938778,37.5664333 46.3988778,37.5664333 C46.8297667,37.5664333 47.2412111,37.3167667 47.4255444,36.8975444 C47.4387667,36.8679889 48.7602111,34.0407667 54.2847667,36.3748778 C59.3846556,38.5301 61.0716556,35.4259889 62.4592111,32.5505444 C63.7549889,29.8656556 64.7769889,27.7446556 68.6829889,28.4353222 C69.2935444,28.5434333 69.8753222,28.1358778 69.9826556,27.5261 C70.0899889,26.9163222 69.6832111,26.3345444 69.0734333,26.2264333" id="Fill-39" fill="#E797A1"></path>
                    <path d="M42.4735889,0.0171111111 C41.8638111,0.125222222 41.4562556,0.707 41.5643667,1.31677778 C42.6680333,7.56311111 36.1938111,6.699 33.7111444,10.1367778 C32.6743667,11.5741111 32.6455889,13.398 33.6248111,15.715 C35.8897,21.0754444 33.2608111,22.4941111 33.0912556,22.5788889 C32.9691444,22.6325556 31.8569222,23.1435556 32.2395889,23.9983333 C32.7817,25.2062222 34.0067,24.6267778 34.0067,24.6267778 C35.2744778,24.0683333 38.4447,21.3601111 35.6905889,14.8415556 C34.2991444,11.55 35.6781444,10.885 38.4237,9.56044444 C41.0969222,8.27088889 44.7579222,6.50455556 43.7732556,0.926333333 C43.6651444,0.316555556 43.0841444,-0.0894444444 42.4735889,0.0171111111" id="Fill-41" fill="#E797A1"></path>
                    <path d="M49.3638444,45.8400444 C46.9457333,43.4219333 26.6169556,23.0939333 24.1599556,20.6361556 C23.2592889,19.7362667 21.8001778,19.7362667 20.9002889,20.6361556 C20.0004,21.5360444 20.0004,22.9951556 20.9002889,23.8950444 L46.1049556,49.0997111 C47.0048444,49.9996 48.4639556,49.9996 49.3638444,49.0997111 C50.2637333,48.1990444 50.2637333,46.7399333 49.3638444,45.8400444" id="Fill-43" fill="#C83951"></path>
                    <path d="M46.1044889,49.0991667 C47.0043778,49.9990556 48.4634889,49.9990556 49.3641556,49.0991667 C50.2640444,48.1992778 50.2640444,46.7401667 49.3641556,45.8395 L34.7341556,31.2102778 C33.4959333,32.1327222 32.3207111,33.1360556 31.2147111,34.2093889 L46.1044889,49.0991667 Z" id="Fill-45" fill="#C83951"></path>
                    <path d="M20.4199333,23.1885889 L20.4199333,23.1885889 C20.6478222,23.7097 20.6439333,23.6397 23.5061556,26.5003667 L23.5683778,26.3665889 C22.8380444,24.6967 24.2419333,22.8829222 26.0432667,23.1699222 L26.0417111,23.1675889 C26.0417111,23.1675889 26.7650444,23.2422556 26.2548222,22.7320333 L24.1594889,20.6359222 C23.2074889,19.6839222 21.6309333,19.7407 20.7574889,20.7945889 C20.2068222,21.4533667 20.0699333,22.3905889 20.4199333,23.1885889" id="Fill-47" fill="#C83951"></path>
                </g>
            </g>
        </g>
    </g>
</svg>