<?xml version="1.0" encoding="UTF-8"?>
<svg width="75px" height="70px" viewBox="0 0 75 70" version="1.1" xmlns="http://www.w3.org/2000/svg" xmlns:xlink="http://www.w3.org/1999/xlink">
    <!-- Generator: Sketch 54.1 (76490) - https://sketchapp.com -->
    <title>Group 10</title>
    <desc>Created with Sketch.</desc>
    <defs>
        <polygon id="path-1" points="0 0.169064704 74.1176471 0.169064704 74.1176471 69.1763059 0 69.1763059"></polygon>
    </defs>
    <g id="25.DORMITORY" stroke="none" stroke-width="1" fill="none" fill-rule="evenodd">
        <g id="Dormitory" transform="translate(-536.000000, -3099.000000)">
            <g id="Group-19" transform="translate(150.000000, 2587.000000)">
                <g id="Group-10" transform="translate(386.000000, 512.000000)">
                    <g id="Group-3" transform="translate(0.000000, 0.654706)">
                        <mask id="mask-2" fill="white">
                            <use xlink:href="#path-1"></use>
                        </mask>
                        <g id="Clip-2"></g>
                        <path d="M74.1176471,19.3387765 C74.1225882,10.0946588 67.5261176,2.16489412 58.4351765,0.489011765 C49.3442353,-1.18851765 40.3529412,3.86465882 37.0588235,12.5018353 C33.7647059,3.86465882 24.7734118,-1.18851765 15.6824706,0.489011765 C6.59152941,2.16489412 -0.00494117647,10.0946588 4.23516474e-22,19.3387765 C4.23516474e-22,41.0626588 26.4723529,69.1763059 37.0588235,69.1763059 C47.6452941,69.1763059 74.1176471,41.0626588 74.1176471,19.3387765" id="Fill-1" fill="#E797A1" mask="url(#mask-2)"></path>
                    </g>
                    <path d="M28.1135647,31.4944824 C27.4078,31.4944824 26.8354471,30.9221294 26.8354471,30.2163647 C26.8354471,26.7534235 25.0796824,23.8274235 23.0019176,23.8274235 C20.9241529,23.8274235 19.1683882,26.7534235 19.1683882,30.2163647 C19.1683882,30.9221294 18.5960353,31.4944824 17.8902706,31.4944824 C17.1845059,31.4944824 16.6121529,30.9221294 16.6121529,30.2163647 C16.6121529,25.2010706 19.4245059,21.2711882 23.0019176,21.2711882 C26.5801529,21.2711882 29.3916824,25.2010706 29.3916824,30.2163647 C29.3916824,30.9221294 28.8193294,31.4944824 28.1135647,31.4944824" id="Fill-4" fill="#AD1F2B"></path>
                    <path d="M56.2272118,31.4944824 C55.5214471,31.4944824 54.9490941,30.9221294 54.9490941,30.2163647 C54.9490941,26.7534235 53.1933294,23.8274235 51.1155647,23.8274235 C49.0378,23.8274235 47.2820353,26.7534235 47.2820353,30.2163647 C47.2820353,30.9221294 46.7096824,31.4944824 46.0039176,31.4944824 C45.2981529,31.4944824 44.7258,30.9221294 44.7258,30.2163647 C44.7258,25.2010706 47.5381529,21.2711882 51.1155647,21.2711882 C54.6938,21.2711882 57.5053294,25.2010706 57.5053294,30.2163647 C57.5053294,30.9221294 56.9329765,31.4944824 56.2272118,31.4944824" id="Fill-6" fill="#AD1F2B"></path>
                    <path d="M37.0588235,51.9407412 C32.76,51.9407412 29.3917647,46.8892118 29.3917647,40.4393294 C29.3917647,39.7343882 29.9632941,39.1620353 30.6690588,39.1620353 C31.3748235,39.1620353 31.9471765,39.7343882 31.9471765,40.4393294 C31.9471765,45.2882706 34.2884706,49.3853294 37.0588235,49.3853294 C39.8291765,49.3853294 42.1704706,45.2882706 42.1704706,40.4393294 C42.1704706,39.7343882 42.7428235,39.1620353 43.4485882,39.1620353 C44.1543529,39.1620353 44.7258824,39.7343882 44.7258824,40.4393294 C44.7258824,46.8892118 41.3576471,51.9407412 37.0588235,51.9407412" id="Fill-8" fill="#AD1F2B"></path>
                </g>
            </g>
        </g>
    </g>
</svg>