<?xml version="1.0" encoding="UTF-8"?>
<svg width="66px" height="70px" viewBox="0 0 66 70" version="1.1" xmlns="http://www.w3.org/2000/svg" xmlns:xlink="http://www.w3.org/1999/xlink">
    <!-- Generator: Sketch 54.1 (76490) - https://sketchapp.com -->
    <title>Group 7</title>
    <desc>Created with Sketch.</desc>
    <g id="25.DORMITORY" stroke="none" stroke-width="1" fill="none" fill-rule="evenodd">
        <g id="Dormitory" transform="translate(-540.000000, -2768.000000)">
            <g id="Group-19" transform="translate(150.000000, 2587.000000)">
                <g id="Group-7" transform="translate(390.000000, 181.000000)">
                    <polygon id="Fill-1" fill="#AD1F2B" points="55.517 4.8279 55.517 9.65478889 47.0687778 9.65478889 47.0687778 4.8279 18.1035556 4.8279 18.1035556 9.65478889 9.65533333 9.65478889 9.65533333 4.8279 0 4.8279 0 18.1037889 65.1723333 18.1037889 65.1723333 4.8279"></polygon>
                    <polygon id="Fill-2" fill="#F7D6DE" points="55.517 18.1034 47.0687778 18.1034 18.1035556 18.1034 9.65533333 18.1034 0 18.1034 0 69.9998444 65.1723333 69.9998444 65.1723333 18.1034"></polygon>
                    <path d="M44.6553333,37.4134444 L53.1035556,37.4134444 L53.1035556,28.9652222 L44.6553333,28.9652222 L44.6553333,37.4134444 Z M44.6553333,48.2758889 L53.1035556,48.2758889 L53.1035556,39.8276667 L44.6553333,39.8276667 L44.6553333,48.2758889 Z M44.6553333,59.1375556 L53.1035556,59.1375556 L53.1035556,50.6893333 L44.6553333,50.6893333 L44.6553333,59.1375556 Z M33.7928889,59.1375556 L42.2411111,59.1375556 L42.2411111,50.6893333 L33.7928889,50.6893333 L33.7928889,59.1375556 Z M22.9312222,59.1375556 L31.3794444,59.1375556 L31.3794444,50.6893333 L22.9312222,50.6893333 L22.9312222,59.1375556 Z M12.0687778,59.1375556 L20.517,59.1375556 L20.517,50.6893333 L12.0687778,50.6893333 L12.0687778,59.1375556 Z M12.0687778,48.2758889 L20.517,48.2758889 L20.517,39.8276667 L12.0687778,39.8276667 L12.0687778,48.2758889 Z M12.0687778,37.4134444 L20.517,37.4134444 L20.517,28.9652222 L12.0687778,28.9652222 L12.0687778,37.4134444 Z M22.9312222,37.4134444 L31.3794444,37.4134444 L31.3794444,28.9652222 L22.9312222,28.9652222 L22.9312222,37.4134444 Z M22.9312222,48.2758889 L31.3794444,48.2758889 L31.3794444,39.8276667 L22.9312222,39.8276667 L22.9312222,48.2758889 Z M33.7928889,48.2758889 L42.2411111,48.2758889 L42.2411111,39.8276667 L33.7928889,39.8276667 L33.7928889,48.2758889 Z M33.7928889,37.4134444 L42.2411111,37.4134444 L42.2411111,28.9652222 L33.7928889,28.9652222 L33.7928889,37.4134444 Z M44.6553333,26.5517778 L42.2411111,26.5517778 L33.7928889,26.5517778 L31.3794444,26.5517778 L22.9312222,26.5517778 L20.517,26.5517778 L9.65533333,26.5517778 L9.65533333,37.4134444 L9.65533333,39.8276667 L9.65533333,48.2758889 L9.65533333,50.6893333 L9.65533333,61.5517778 L20.517,61.5517778 L22.9312222,61.5517778 L31.3794444,61.5517778 L33.7928889,61.5517778 L42.2411111,61.5517778 L44.6553333,61.5517778 L55.517,61.5517778 L55.517,50.6893333 L55.517,48.2758889 L55.517,39.8276667 L55.517,37.4134444 L55.517,26.5517778 L44.6553333,26.5517778 Z" id="Fill-3" fill="#E797A1"></path>
                    <polygon id="Fill-4" fill="#D06E7B" points="9.65533333 9.65533333 18.1035556 9.65533333 18.1035556 0 9.65533333 0"></polygon>
                    <polygon id="Fill-5" fill="#D06E7B" points="47.0687778 9.65533333 55.517 9.65533333 55.517 0 47.0687778 0"></polygon>
                    <polygon id="Fill-6" fill="#C83951" points="33.7928889 48.2758889 42.2411111 48.2758889 42.2411111 39.8276667 33.7928889 39.8276667"></polygon>
                </g>
            </g>
        </g>
    </g>
</svg>