<?xml version="1.0" encoding="UTF-8"?>
<svg width="70px" height="70px" viewBox="0 0 70 70" version="1.1" xmlns="http://www.w3.org/2000/svg" xmlns:xlink="http://www.w3.org/1999/xlink">
    <!-- Generator: Sketch 54.1 (76490) - https://sketchapp.com -->
    <title>Group 44</title>
    <desc>Created with Sketch.</desc>
    <defs>
        <polygon id="path-1" points="0 0.0720222222 69.9999222 0.0720222222 69.9999222 50.7761333 0 50.7761333"></polygon>
        <polygon id="path-3" points="0.441388889 0.0721 4.66666667 0.0721 4.66666667 50.7762111 0.441388889 50.7762111"></polygon>
        <polygon id="path-5" points="0 70 70 70 70 0 0 0"></polygon>
    </defs>
    <g id="25.DORMITORY" stroke="none" stroke-width="1" fill="none" fill-rule="evenodd">
        <g id="Dormitory" transform="translate(-540.000000, -2658.000000)">
            <g id="Group-19" transform="translate(150.000000, 2587.000000)">
                <g id="Group-44" transform="translate(390.000000, 71.000000)">
                    <g id="Group-3" transform="translate(0.000000, 17.111111)">
                        <mask id="mask-2" fill="white">
                            <use xlink:href="#path-1"></use>
                        </mask>
                        <g id="Clip-2"></g>
                        <path d="M69.4531444,50.7761333 L0.5467,50.7761333 C0.244922222,50.7761333 -7.77777778e-05,50.5311333 -7.77777778e-05,50.2293556 L-7.77777778e-05,0.6188 C-7.77777778e-05,0.317022222 0.244922222,0.0720222222 0.5467,0.0720222222 L69.4531444,0.0720222222 C69.7549222,0.0720222222 69.9999222,0.317022222 69.9999222,0.6188 L69.9999222,50.2293556 C69.9999222,50.5311333 69.7549222,50.7761333 69.4531444,50.7761333" id="Fill-1" fill="#AD1F2B" mask="url(#mask-2)"></path>
                    </g>
                    <g id="Group-6" transform="translate(65.333333, 17.111111)">
                        <mask id="mask-4" fill="white">
                            <use xlink:href="#path-3"></use>
                        </mask>
                        <g id="Clip-5"></g>
                        <path d="M0.441388889,0.618877778 L0.441388889,50.2294333 C0.441388889,50.5312111 0.686388889,50.7762111 0.988166667,50.7762111 L4.1195,50.7762111 C4.42205556,50.7762111 4.66705556,50.5312111 4.66705556,50.2294333 L4.66705556,0.618877778 C4.66705556,0.3171 4.42205556,0.0721 4.1195,0.0721 L0.988166667,0.0721 C0.686388889,0.0721 0.441388889,0.3171 0.441388889,0.618877778" id="Fill-4" fill="#AD1F2B" mask="url(#mask-4)"></path>
                    </g>
                    <path d="M37.1127556,63.3801778 L37.1127556,67.8874 C37.1127556,69.0532889 36.1662,69.9998444 35.0003111,69.9998444 C33.8336444,69.9998444 32.8870889,69.0532889 32.8870889,67.8874 L32.8870889,63.3801778 L37.1127556,63.3801778 Z" id="Fill-7" fill="#AD1F2B"></path>
                    <path d="M35,63.3801778 L4.56088889,63.3801778 C4.25911111,63.3801778 4.01411111,63.1351778 4.01411111,62.8334 L4.01411111,57.0117333 C4.01411111,56.7099556 4.25911111,56.4649556 4.56088889,56.4649556 L35,56.4649556 L35,63.3801778 Z" id="Fill-9" fill="#E797A1"></path>
                    <path d="M65.4390333,63.3801778 L34.9999222,63.3801778 L34.9999222,56.4649556 L65.4390333,56.4649556 C65.7408111,56.4649556 65.9858111,56.7099556 65.9858111,57.0117333 L65.9858111,62.8334 C65.9858111,63.1351778 65.7408111,63.3801778 65.4390333,63.3801778" id="Fill-11" fill="#E797A1"></path>
                    <path d="M35,59.1549 L4.56088889,59.1549 C4.25911111,59.1549 4.01411111,58.9099 4.01411111,58.6081222 L4.01411111,14.0679 C4.01411111,13.7661222 4.25911111,13.5211222 4.56088889,13.5211222 L35,13.5211222 L35,59.1549 Z" id="Fill-13" fill="#F7D6DE"></path>
                    <path d="M65.4390333,59.1549 L34.9999222,59.1549 L34.9999222,13.5211222 L65.4390333,13.5211222 C65.7408111,13.5211222 65.9858111,13.7661222 65.9858111,14.0679 L65.9858111,58.6081222 C65.9858111,58.9099 65.7408111,59.1549 65.4390333,59.1549" id="Fill-15" fill="#F7D6DE"></path>
                    <path d="M41.3380333,38.8423778 L44.0625889,38.8423778 C44.6288111,38.8423778 45.0877,38.3834889 45.0877,37.8172667 C45.0877,37.2510444 44.6288111,36.7913778 44.0625889,36.7913778 L41.3380333,36.7913778 C40.7718111,36.7913778 40.3129222,37.2510444 40.3129222,37.8172667 C40.3129222,38.3834889 40.7718111,38.8423778 41.3380333,38.8423778" id="Fill-17" fill="#C83951"></path>
                    <path d="M41.3380333,43.8187556 L59.6477,43.8187556 C60.2139222,43.8187556 60.6735889,43.3598667 60.6735889,42.7936444 C60.6735889,42.2274222 60.2139222,41.7677556 59.6477,41.7677556 L41.3380333,41.7677556 C40.7718111,41.7677556 40.3129222,42.2274222 40.3129222,42.7936444 C40.3129222,43.3598667 40.7718111,43.8187556 41.3380333,43.8187556" id="Fill-19" fill="#C83951"></path>
                    <path d="M59.6477778,46.7445222 L41.3381111,46.7445222 C40.7718889,46.7445222 40.3122222,47.2034111 40.3122222,47.7696333 C40.3122222,48.3358556 40.7718889,48.7955222 41.3381111,48.7955222 L59.6477778,48.7955222 C60.214,48.7955222 60.6728889,48.3358556 60.6728889,47.7696333 C60.6728889,47.2034111 60.214,46.7445222 59.6477778,46.7445222" id="Fill-21" fill="#C83951"></path>
                    <path d="M47.8320111,51.7211333 L41.3383444,51.7211333 C40.7713444,51.7211333 40.3124556,52.1800222 40.3124556,52.7462444 C40.3124556,53.3124667 40.7713444,53.7721333 41.3383444,53.7721333 L47.8320111,53.7721333 C48.3982333,53.7721333 48.8571222,53.3124667 48.8571222,52.7462444 C48.8571222,52.1800222 48.3982333,51.7211333 47.8320111,51.7211333" id="Fill-23" fill="#C83951"></path>
                    <path d="M51.1380333,44.4564556 C46.5569222,38.7499 48.7743667,35.9654556 48.7743667,35.9654556 L54.7243667,35.9654556 C54.7243667,35.9654556 56.9433667,38.7499 52.3607,44.4564556 C52.0511444,44.8414556 51.4468111,44.8414556 51.1380333,44.4564556" id="Fill-25" fill="#D06E7B"></path>
                    <path d="M51.7495222,35.2311556 C51.1833,35.2311556 50.7244111,35.6900444 50.7244111,36.2562667 L50.7244111,38.9909333 C50.7244111,39.5571556 51.1833,40.0160444 51.7495222,40.0160444 C52.3157444,40.0160444 52.7746333,39.5571556 52.7746333,38.9909333 L52.7746333,36.2562667 C52.7746333,35.6900444 52.3157444,35.2311556 51.7495222,35.2311556" id="Fill-27" fill="#F7D6DE"></path>
                    <path d="M55.2848333,36.2944556 L48.2140556,36.2944556 C47.8329444,36.2944556 47.5241667,35.9856778 47.5241667,35.6045667 L47.5241667,2.0419 C47.5241667,0.914122222 48.4388333,0.000233333333 49.5666111,0.000233333333 L53.9322778,0.000233333333 C55.0600556,0.000233333333 55.9747222,0.914122222 55.9747222,2.0419 L55.9747222,35.6045667 C55.9747222,35.9856778 55.6659444,36.2944556 55.2848333,36.2944556" id="Fill-29" fill="#C83951"></path>
                    <path d="M53.9324333,0 L49.7067667,0 C50.8353222,0 51.7492111,0.914666667 51.7492111,2.04244444 L51.7492111,35.6043333 C51.7492111,35.9854444 51.4404333,36.2942222 51.0593222,36.2942222 L55.2849889,36.2942222 C55.6661,36.2942222 55.9748778,35.9854444 55.9748778,35.6043333 L55.9748778,2.04244444 C55.9748778,0.914666667 55.0602111,0 53.9324333,0" id="Fill-31" fill="#C83951"></path>
                    <path d="M55.2848333,36.2944556 L48.2140556,36.2944556 C47.8329444,36.2944556 47.5241667,35.9856778 47.5241667,35.6045667 L47.5241667,32.0687889 L55.9747222,32.0687889 L55.9747222,35.6045667 C55.9747222,35.9856778 55.6659444,36.2944556 55.2848333,36.2944556" id="Fill-33" fill="#E797A1"></path>
                    <path d="M51.7495222,32.0691778 L51.7495222,35.6041778 C51.7495222,35.9852889 51.4407444,36.2948444 51.0596333,36.2948444 L55.2845222,36.2948444 C55.6656333,36.2948444 55.9751889,35.9852889 55.9751889,35.6041778 L55.9751889,32.0691778 L51.7495222,32.0691778 Z" id="Fill-35" fill="#E797A1"></path>
                    <mask id="mask-6" fill="white">
                        <use xlink:href="#path-5"></use>
                    </mask>
                    <g id="Clip-38"></g>
                    <polygon id="Fill-37" fill="#E797A1" mask="url(#mask-6)" points="47.5237778 10.8017778 55.9743333 10.8017778 55.9743333 6.57611111 47.5237778 6.57611111"></polygon>
                    <polygon id="Fill-39" fill="#E797A1" mask="url(#mask-6)" points="51.7494444 10.8017778 55.9751111 10.8017778 55.9751111 6.57611111 51.7494444 6.57611111"></polygon>
                    <path d="M19.5070556,50.2113111 L19.5070556,50.2113111 C18.3403889,50.2113111 17.3946111,49.2655333 17.3946111,48.0988667 L17.3946111,28.5214222 L21.6195,28.5214222 L21.6195,48.0988667 C21.6195,49.2655333 20.6737222,50.2113111 19.5070556,50.2113111" id="Fill-40" fill="#C83951" mask="url(#mask-6)"></path>
                    <path d="M19.5070556,31.0563556 C13.2941667,31.0563556 8.23938889,26.0015778 8.23938889,19.7886889 C8.23938889,13.5758 13.2941667,8.52102222 19.5070556,8.52102222 C25.7199444,8.52102222 30.7747222,13.5758 30.7747222,19.7886889 C30.7747222,26.0015778 25.7199444,31.0563556 19.5070556,31.0563556" id="Fill-41" fill="#F7E3E8" mask="url(#mask-6)"></path>
                    <path d="M19.5070556,8.5211 C18.7845,8.5211 18.0790556,8.59187778 17.3946111,8.72254444 C22.6002778,9.71498889 26.5490556,14.2976556 26.5490556,19.7887667 C26.5490556,25.2798778 22.6002778,29.8625444 17.3946111,30.8549889 C18.0790556,30.9856556 18.7845,31.0564333 19.5070556,31.0564333 C25.7199444,31.0564333 30.7747222,26.0016556 30.7747222,19.7887667 C30.7747222,13.5758778 25.7199444,8.5211 19.5070556,8.5211" id="Fill-42" fill="#F7D6DE" mask="url(#mask-6)"></path>
                    <path d="M19.5070556,30.0309333 C13.8596111,30.0309333 9.26527778,25.4366 9.26527778,19.7883778 C9.26527778,14.1409333 13.8596111,9.5466 19.5070556,9.5466 C25.1545,9.5466 29.7496111,14.1409333 29.7496111,19.7883778 C29.7496111,25.4366 25.1545,30.0309333 19.5070556,30.0309333 M19.5070556,7.4956 C12.7287222,7.4956 7.21427778,13.0100444 7.21427778,19.7883778 C7.21427778,26.5667111 12.7287222,32.0819333 19.5070556,32.0819333 C26.2853889,32.0819333 31.7998333,26.5674889 31.7998333,19.7883778 C31.7998333,13.0100444 26.2853889,7.4956 19.5070556,7.4956" id="Fill-43" fill="#C83951" mask="url(#mask-6)"></path>
                </g>
            </g>
        </g>
    </g>
</svg>